<svg xmlns="http://www.w3.org/2000/svg" viewBox="0 0 109.65 32.83"><defs><style>.cls-1{fill:#58595b;}</style></defs><g id="Layer_2" data-name="Layer 2"><g id="Layer_1_1:1_" data-name="Layer 1 (1:1)"><path class="cls-1" d="M98.85,5.94c-1.09,0-1.51-.42-1.51-1.5V1.56c0-1.08.42-1.5,1.51-1.5h9.36c1,0,1.44.42,1.44,1.5V31.27c0,1.08-.42,1.5-1.44,1.5h-5.34c-1.08,0-1.5-.42-1.5-1.5V5.94ZM53.05,1.56c0-1.08.42-1.5,1.5-1.5h4.5c1.09,0,1.5.42,1.5,1.5V5h.31a8.82,8.82,0,0,1,8.4-5,6.2,6.2,0,0,1,6.36,5h.3c2.64-4.44,5.64-5,9.66-5C90.74,0,94,3.72,94,11V31.27c-.06,1.08-.48,1.5-1.56,1.5H87.26c-1.08,0-1.5-.42-1.5-1.5V11.94c0-3.65-.66-5.46-3.66-5.46-3.54,0-4.44,5.16-4.44,5.16V31.27c0,1.08-.42,1.5-1.5,1.5H70.94c-1.08,0-1.5-.42-1.5-1.5V11.94c0-3.65-.66-5.46-3.6-5.46-3.54,0-4.56,5.16-4.56,5.16V31.27c0,1.08-.42,1.5-1.5,1.5H54.55c-1.08,0-1.5-.42-1.5-1.5Zm-36.25,16H12.36a4.51,4.51,0,0,0-4.5,4.56c0,2.7,1.5,4.5,3.9,4.5a5.16,5.16,0,0,0,5-4ZM25,31.27c0,1.08-.42,1.5-1.5,1.5H19.26c-1,0-1.44-.42-1.44-1.5V28.39h-.3C15.9,30.55,14,32.83,8.88,32.83c-4.86,0-8.88-4-8.88-10a10,10,0,0,1,10-10H16.8V11c0-3.6-1.92-4.86-5.64-4.86H4.92c-1.08,0-1.5-.42-1.5-1.5V1.5c0-1,.42-1.44,1.5-1.44H14.7A10.32,10.32,0,0,1,25,10.38Z"/><path class="cls-1" d="M47.66,32.77h-6.9C34.15,32.77,29,26.65,29,21V11.88C29,6.18,34.15.06,40.76.06h6.9c1,0,1.44.42,1.44,1.44V5c0,1-.42,1.44-1.44,1.44H43c-3.73,0-5.77,2.46-5.77,6.06v7.87c0,3.6,2,6.06,5.77,6.06h4.68c1,0,1.44.42,1.44,1.44v3.48c0,1-.42,1.44-1.44,1.44"/></g></g></svg>