<svg xmlns="http://www.w3.org/2000/svg" viewBox="0 0 455.97 51.38"><defs><style>.cls-1{fill:#58595b;}</style></defs><g id="Layer_2" data-name="Layer 2"><g id="Layer_1_1:1_" data-name="Layer 1 (1:1)"><rect class="cls-1" x="289.79" y="28.79" width="18.99" height="3.35"/><path class="cls-1" d="M221.49,47.91a11.09,11.09,0,0,1-1.52-.2,2.8,2.8,0,0,1-1.17-.48,2.08,2.08,0,0,1-.57-.61,3.12,3.12,0,0,1-.38-1.15,16.13,16.13,0,0,1-.16-2.69V0c-1.56.43-3.15.8-4.74,1.1-1.43.26-2.85.48-4.29.64-.72.09-1.44.16-2.17.22V3.25c.84,0,1.67,0,2.5.12a4.42,4.42,0,0,1,1.29.36,2.32,2.32,0,0,1,1,.9,4.89,4.89,0,0,1,.38,1.55c.06.88.08,1.76.06,2.65V20.62l-.36-.56c-.15-.24-.31-.47-.47-.7a18.77,18.77,0,0,0-1.15-1.51,8.89,8.89,0,0,0-1.44-1.37,8,8,0,0,0-2.4-1.19,10.32,10.32,0,0,0-2.66-.41,12.06,12.06,0,0,0-3.11.28,11.12,11.12,0,0,0-2.46.89,11.39,11.39,0,0,0-2.16,1.43,15.12,15.12,0,0,0-2.92,3.36,18.55,18.55,0,0,0-1.71,3.35,22.71,22.71,0,0,0-1.41,6.19,29.36,29.36,0,0,0,.12,6.49,20.58,20.58,0,0,0,1.9,6.51,17.81,17.81,0,0,0,2.86,4.18,12,12,0,0,0,3.55,2.66,11.33,11.33,0,0,0,3.69,1.06,11.14,11.14,0,0,0,4.52-.34,8.76,8.76,0,0,0,3.48-2,11.89,11.89,0,0,0,1.79-2.15,13.87,13.87,0,0,0,.88-1.54c0,.21,0,.43.07.64.09.75.19,1.49.32,2.23q.26,1.56.63,3.09a35.34,35.34,0,0,1,3.77-1c1.6-.33,3.21-.59,4.83-.8l1.2-.16V48C222.55,48,222,47.94,221.49,47.91Zm-12.71-1a6.37,6.37,0,0,1-5,2.48,6.2,6.2,0,0,1-4-1.43,8.36,8.36,0,0,1-2.66-3.83A32.31,32.31,0,0,1,195.55,33q0-16.14,7.81-16.15,8.43,0,8.43,16.77Q211.79,43.37,208.78,46.87Z"/><path class="cls-1" d="M86.44,39a14.37,14.37,0,0,1-1.8,5.51A8.58,8.58,0,0,1,82,47.36a8.2,8.2,0,0,1-3.57,1.27,11.65,11.65,0,0,1-3.68-.15,7.56,7.56,0,0,1-3.36-1.64,9.14,9.14,0,0,1-2.45-3.7,21.12,21.12,0,0,1-1.34-5,31.74,31.74,0,0,1-.32-4.36c0-.58,0-1.17,0-1.76h22c0-1-.08-2.06-.19-3.09a27.71,27.71,0,0,0-.64-3.75,18.49,18.49,0,0,0-1.2-3.42,13.23,13.23,0,0,0-1.9-3,12.28,12.28,0,0,0-5.74-3.67,13.5,13.5,0,0,0-4.05-.53,14.58,14.58,0,0,0-4.09.62,12.33,12.33,0,0,0-4.06,2.2,15,15,0,0,0-3,3.4,18,18,0,0,0-1.84,3.74,22.44,22.44,0,0,0-1,4.28,30.34,30.34,0,0,0,.11,8.83,21.78,21.78,0,0,0,1,3.73A18.18,18.18,0,0,0,63.87,44a18.37,18.37,0,0,0,1.51,2.28,13,13,0,0,0,1.9,2,12.18,12.18,0,0,0,2.33,1.5,13.45,13.45,0,0,0,3.07,1.06,17.78,17.78,0,0,0,5.88.2,12.62,12.62,0,0,0,2-.43,10.7,10.7,0,0,0,2.05-.82,9.77,9.77,0,0,0,1.68-1.07,10,10,0,0,0,1.43-1.32A12.77,12.77,0,0,0,87,45.75a14.5,14.5,0,0,0,.92-1.63,16.5,16.5,0,0,0,.67-1.69,16.09,16.09,0,0,0,.46-1.72c.11-.56.2-1.13.27-1.7Zm-18.87-11c.09-.78.21-1.55.35-2.32s.29-1.42.48-2.12c.12-.46.27-.91.43-1.35a9,9,0,0,1,.34-.86c.13-.33.29-.64.45-1a9.24,9.24,0,0,1,1.15-1.7,6.65,6.65,0,0,1,1.43-1.27,6.16,6.16,0,0,1,2.11-.85,7.54,7.54,0,0,1,1.9-.12,6,6,0,0,1,2.08.5A6.43,6.43,0,0,1,81,19.49a14.34,14.34,0,0,1,1.67,4.39,34.89,34.89,0,0,1,.66,5.48H67.44C67.48,28.92,67.52,28.48,67.57,28.05Z"/><path class="cls-1" d="M180.64,39a14.32,14.32,0,0,1-1.8,5.51,8.6,8.6,0,0,1-2.65,2.85,8.27,8.27,0,0,1-3.57,1.26,11.37,11.37,0,0,1-3.68-.15,7.36,7.36,0,0,1-3.36-1.64,9.07,9.07,0,0,1-2.45-3.7,21.51,21.51,0,0,1-1.33-5,30.35,30.35,0,0,1-.32-4.36c0-.59,0-1.17,0-1.76h22c0-1-.08-2.07-.19-3.1a26.47,26.47,0,0,0-.64-3.75,17.36,17.36,0,0,0-1.2-3.42,12.71,12.71,0,0,0-1.9-3,12.25,12.25,0,0,0-2.35-2.08,11.91,11.91,0,0,0-3.38-1.6,13.53,13.53,0,0,0-4.05-.52,13.79,13.79,0,0,0-4.09.62,11.79,11.79,0,0,0-4.06,2.2,14.66,14.66,0,0,0-3,3.4,17.93,17.93,0,0,0-1.83,3.73,21.73,21.73,0,0,0-1,4.28,29.25,29.25,0,0,0-.27,4.18,28,28,0,0,0,.39,4.66,21.89,21.89,0,0,0,1,3.72A18.84,18.84,0,0,0,158.08,44a16.88,16.88,0,0,0,1.51,2.27,12.15,12.15,0,0,0,1.9,2,11.85,11.85,0,0,0,2.32,1.51,12.88,12.88,0,0,0,3.08,1,16.36,16.36,0,0,0,2.79.34,17.72,17.72,0,0,0,3.09-.13,15.29,15.29,0,0,0,2-.43,12,12,0,0,0,2.05-.82,11.37,11.37,0,0,0,1.68-1.07,11.9,11.9,0,0,0,1.43-1.32,12.87,12.87,0,0,0,1.28-1.66,14.29,14.29,0,0,0,.91-1.62,15.22,15.22,0,0,0,.67-1.69,15.06,15.06,0,0,0,.46-1.72,16.44,16.44,0,0,0,.27-1.71ZM161.78,28c.09-.78.2-1.55.34-2.32s.29-1.42.48-2.11c.13-.46.27-.91.43-1.36.11-.29.22-.58.34-.86s.29-.64.46-.95A9.26,9.26,0,0,1,165,18.73a6.93,6.93,0,0,1,1.44-1.26,5.94,5.94,0,0,1,2.1-.86,7.15,7.15,0,0,1,1.9-.11,5.93,5.93,0,0,1,2.08.5,6.43,6.43,0,0,1,2.75,2.49,14.13,14.13,0,0,1,1.67,4.38,33.87,33.87,0,0,1,.66,5.49H161.65C161.69,28.92,161.73,28.48,161.78,28Z"/><path class="cls-1" d="M252.46,39a14.37,14.37,0,0,1-1.8,5.51A8.67,8.67,0,0,1,248,47.3a8.2,8.2,0,0,1-3.57,1.27,11.65,11.65,0,0,1-3.68-.16,7.44,7.44,0,0,1-3.36-1.63A9.17,9.17,0,0,1,235,43.07a21.53,21.53,0,0,1-1.34-5,31.74,31.74,0,0,1-.32-4.36c0-.58,0-1.17,0-1.76h22c0-1-.08-2.07-.19-3.1a26.33,26.33,0,0,0-.64-3.74,18.85,18.85,0,0,0-1.2-3.43,13.4,13.4,0,0,0-1.9-3A12.25,12.25,0,0,0,249,16.64a12.08,12.08,0,0,0-3.39-1.59,13.5,13.5,0,0,0-4-.53,14.58,14.58,0,0,0-4.09.62,12.15,12.15,0,0,0-4.06,2.2,14.82,14.82,0,0,0-3,3.4,17.8,17.8,0,0,0-1.84,3.74,22.34,22.34,0,0,0-1,4.27,29.39,29.39,0,0,0-.27,4.19,27.88,27.88,0,0,0,.39,4.65,20.87,20.87,0,0,0,1,3.73,19.18,19.18,0,0,0,1.2,2.66,17.54,17.54,0,0,0,1.51,2.27,12.58,12.58,0,0,0,1.9,2,11.76,11.76,0,0,0,2.33,1.51,13.45,13.45,0,0,0,3.07,1.06,17.78,17.78,0,0,0,5.88.2,13.55,13.55,0,0,0,2-.43,11.79,11.79,0,0,0,2.06-.82,10.08,10.08,0,0,0,1.67-1.07,11.27,11.27,0,0,0,1.44-1.32A13.75,13.75,0,0,0,253,45.68a13.54,13.54,0,0,0,.92-1.62,16.5,16.5,0,0,0,.67-1.69,16.75,16.75,0,0,0,.46-1.72c.11-.56.2-1.13.27-1.7ZM233.6,28c.08-.77.2-1.55.34-2.32s.29-1.41.48-2.11c.12-.46.27-.91.43-1.36.1-.29.21-.57.34-.86s.29-.64.45-.95a8.91,8.91,0,0,1,1.15-1.7,6.65,6.65,0,0,1,1.43-1.27,6.24,6.24,0,0,1,2.11-.85,7.54,7.54,0,0,1,1.9-.12,6,6,0,0,1,2.08.5,6.43,6.43,0,0,1,2.75,2.49,14.34,14.34,0,0,1,1.67,4.39,33.61,33.61,0,0,1,.66,5.48H233.46C233.5,28.86,233.54,28.42,233.6,28Z"/><path class="cls-1" d="M379.19,39a14.53,14.53,0,0,1-1.79,5.51,8.61,8.61,0,0,1-2.66,2.84,8.16,8.16,0,0,1-3.57,1.27,11.65,11.65,0,0,1-3.68-.15,7.56,7.56,0,0,1-3.36-1.64,9.14,9.14,0,0,1-2.45-3.7,21.59,21.59,0,0,1-1.33-5,30.25,30.25,0,0,1-.32-4.36c0-.58,0-1.17,0-1.76h22c0-1-.08-2.06-.19-3.09a24.9,24.9,0,0,0-.64-3.75A17.76,17.76,0,0,0,380,21.75a12.93,12.93,0,0,0-1.91-3,12.31,12.31,0,0,0-5.73-3.67,13.58,13.58,0,0,0-4.05-.53,14.48,14.48,0,0,0-4.09.62,12.13,12.13,0,0,0-4.06,2.2,15.33,15.33,0,0,0-3,3.4,18,18,0,0,0-1.83,3.74,21.73,21.73,0,0,0-1,4.28,29.15,29.15,0,0,0-.27,4.18,27.88,27.88,0,0,0,.39,4.65,21.76,21.76,0,0,0,1,3.73A18.23,18.23,0,0,0,356.63,44a16.37,16.37,0,0,0,1.51,2.28,13,13,0,0,0,1.9,2,11.8,11.8,0,0,0,2.32,1.5,13.36,13.36,0,0,0,3.08,1.06,17.43,17.43,0,0,0,2.79.34,17.73,17.73,0,0,0,3.09-.14,12.62,12.62,0,0,0,2-.43,11.25,11.25,0,0,0,2.05-.82,10.6,10.6,0,0,0,1.68-1.07,11.13,11.13,0,0,0,1.43-1.32,12.77,12.77,0,0,0,1.28-1.65,14,14,0,0,0,1.58-3.32,14,14,0,0,0,.46-1.72,16.25,16.25,0,0,0,.27-1.7ZM360.33,28c.09-.78.2-1.55.34-2.32s.29-1.42.48-2.12c.13-.46.27-.91.43-1.35.1-.29.22-.58.34-.86s.29-.64.45-.95a9.48,9.48,0,0,1,1.15-1.71A6.7,6.7,0,0,1,365,17.46a6.11,6.11,0,0,1,2.1-.85,7.6,7.6,0,0,1,1.9-.12A5.93,5.93,0,0,1,371,17a6.45,6.45,0,0,1,2.75,2.5,14,14,0,0,1,1.67,4.38,33.75,33.75,0,0,1,.66,5.48H360.2C360.24,28.91,360.28,28.47,360.33,28Z"/><path class="cls-1" d="M111,49.17q-.75,0-1.5-.12a11.38,11.38,0,0,1-1.3-.22,5.24,5.24,0,0,1-1.31-.46,1.9,1.9,0,0,1-.82-.74,3.43,3.43,0,0,1-.29-1,10.69,10.69,0,0,1-.09-1.79V30.11c0-.74,0-1.48,0-2.22s.07-1.24.14-1.86a18.81,18.81,0,0,1,.45-2.47,12.2,12.2,0,0,1,.74-2.13,9.86,9.86,0,0,1,.56-1.07,8,8,0,0,1,.71-1,6.29,6.29,0,0,1,.73-.73,4.6,4.6,0,0,1,.79-.54,4.89,4.89,0,0,1,.57-.27,4.5,4.5,0,0,1,.6-.17,5.25,5.25,0,0,1,.55-.09,3.92,3.92,0,0,1,.59,0,2.6,2.6,0,0,1,.56.07,2.23,2.23,0,0,1,1,.49,1.54,1.54,0,0,1,.43.61,1.84,1.84,0,0,1,.11.7,3.18,3.18,0,0,1-.07.62c-.07.35-.12.69-.17,1a2.89,2.89,0,0,0,0,.88,2,2,0,0,0,.49,1,2.73,2.73,0,0,0,1,.7,3.61,3.61,0,0,0,1.16.3,3.32,3.32,0,0,0,1.53-.19,2.74,2.74,0,0,0,1.15-.87,3.37,3.37,0,0,0,.67-1.49,6.22,6.22,0,0,0-.39-3.49,6.24,6.24,0,0,0-1.07-1.62,5.76,5.76,0,0,0-1.9-1.34,7,7,0,0,0-2.42-.56,9.08,9.08,0,0,0-2.55.21,7.72,7.72,0,0,0-2.13.85A9.25,9.25,0,0,0,107.61,17a12.48,12.48,0,0,0-1.81,2.46,15.07,15.07,0,0,0-.82,1.72c0-.64-.06-1.28-.11-1.93s-.11-1.4-.19-2.11c-.11-1-.24-2-.39-3-.4.12-.79.23-1.19.33-.91.23-1.83.43-2.75.6q-1.71.32-3.42.54c-.8.1-1.6.2-2.41.28v1.27l1.54.06,1.24.07a4.11,4.11,0,0,1,.86.18,3.09,3.09,0,0,1,.7.36,2.14,2.14,0,0,1,.46.49,2.17,2.17,0,0,1,.31.86c0,.31.05.63.06.94,0,.62,0,1.25,0,1.87V45.63a4.93,4.93,0,0,1-.22,1.66,2.21,2.21,0,0,1-.79,1,4,4,0,0,1-1.54.58,21.18,21.18,0,0,1-2.75.28v1.49l.59,0,.68-.06.81-.06.89-.06c1.23-.09,2.46-.15,3.69-.19,1.5-.05,3,0,4.51,0,1.1.06,2.2.12,3.3.21l2.11.17Z"/><path class="cls-1" d="M148.89,26h-1.67c-.17-.85-.38-1.69-.63-2.51a15.36,15.36,0,0,0-1.33-3.19,8.07,8.07,0,0,0-2.54-2.66,7.22,7.22,0,0,0-3.45-1.2,7.41,7.41,0,0,0-3.45.56A6.76,6.76,0,0,0,133,19.39a13.45,13.45,0,0,0-1.86,4,26.44,26.44,0,0,0-.88,4,38.16,38.16,0,0,0-.36,4.78,46.65,46.65,0,0,0,.27,6,24.37,24.37,0,0,0,1,4.56,10.54,10.54,0,0,0,2.5,4.17A6.49,6.49,0,0,0,137,48.64a8.36,8.36,0,0,0,4.18-.33,6.79,6.79,0,0,0,3.39-2.84,13,13,0,0,0,1.6-3.88,22.59,22.59,0,0,0,.5-2.58h3c-.08.73-.2,1.45-.35,2.17a17.57,17.57,0,0,1-1.07,3.39,13.64,13.64,0,0,1-1.8,2.94,10.3,10.3,0,0,1-1.92,1.81,9.88,9.88,0,0,1-2.5,1.29,11.45,11.45,0,0,1-3.07.6,15.1,15.1,0,0,1-3.22-.11,12.83,12.83,0,0,1-3.44-1,12.38,12.38,0,0,1-3.34-2.24,15.37,15.37,0,0,1-2.71-3.36,16.66,16.66,0,0,1-1.32-2.72,20.08,20.08,0,0,1-1-3.59,25.66,25.66,0,0,1-.41-3.81,32.23,32.23,0,0,1,.09-3.93,25.53,25.53,0,0,1,.56-3.59,19.76,19.76,0,0,1,1.46-4.16,16.19,16.19,0,0,1,1.46-2.47,15.18,15.18,0,0,1,3.18-3.32,12.54,12.54,0,0,1,3.24-1.75,13.57,13.57,0,0,1,4.6-.75,10.75,10.75,0,0,1,3.38.52,10.22,10.22,0,0,1,2.71,1.39,11.78,11.78,0,0,1,1.42,1.21l2-3.76h1.3Z"/><path class="cls-1" d="M284,25.49h-1.66a19.42,19.42,0,0,0-.32-2A11.51,11.51,0,0,0,280.63,20,6.46,6.46,0,0,0,278,17.5a7.3,7.3,0,0,0-2.94-.71,8.73,8.73,0,0,0-2.83.3,6.74,6.74,0,0,0-2.19,1.1,7.47,7.47,0,0,0-1.46,1.51,5.42,5.42,0,0,0-.83,1.77,6,6,0,0,0-.17,1.64A4.81,4.81,0,0,0,268,25a5.08,5.08,0,0,0,.89,1.3,6.78,6.78,0,0,0,1.71,1.25c1,.55,2,1,3,1.5l3.7,1.64c1,.42,2,.87,2.92,1.34a17.42,17.42,0,0,1,3.16,2,7.16,7.16,0,0,1,2,2.52,8.77,8.77,0,0,1,.78,3.6,10.88,10.88,0,0,1-.46,3.54,9.58,9.58,0,0,1-1.29,2.65,10.89,10.89,0,0,1-2.1,2.24,11.15,11.15,0,0,1-2.72,1.61,12.56,12.56,0,0,1-3,.79,15.9,15.9,0,0,1-4,.08A13.95,13.95,0,0,1,266.7,49a15.93,15.93,0,0,1-1.37-1l-1.76,3.3h-1.3V38.89h1.62a27.12,27.12,0,0,0,1,3.76,10,10,0,0,0,2,3.39,8.94,8.94,0,0,0,2.34,1.76,9.14,9.14,0,0,0,3.5,1,9.44,9.44,0,0,0,3.87-.49,7.59,7.59,0,0,0,2.69-1.7,6.46,6.46,0,0,0,1.43-2.11,5.93,5.93,0,0,0,.43-2,5.76,5.76,0,0,0-.1-1.55,4.73,4.73,0,0,0-.7-1.65,5.36,5.36,0,0,0-1.21-1.26A12.46,12.46,0,0,0,277.35,37c-.84-.44-1.7-.87-2.56-1.27-1.13-.53-2.26-1.06-3.4-1.57L268.83,33q-.78-.36-1.53-.78a12.86,12.86,0,0,1-1.16-.76A10.77,10.77,0,0,1,265,30.36a8.22,8.22,0,0,1-1.17-1.57,7.56,7.56,0,0,1-.81-2.05,9.94,9.94,0,0,1-.24-2.55A10.77,10.77,0,0,1,263,22a8.35,8.35,0,0,1,2.85-4.62,11.17,11.17,0,0,1,2.39-1.56,11.71,11.71,0,0,1,2.52-.86,14,14,0,0,1,2.5-.31,13.34,13.34,0,0,1,2.75.17,12.69,12.69,0,0,1,2.18.56,14.73,14.73,0,0,1,3.21,1.6l1.24-3H284Z"/><path class="cls-1" d="M347.59,35.47a12.89,12.89,0,0,0-.43-2.77,11.93,11.93,0,0,0-2-4.15,10.84,10.84,0,0,0-3.3-3,13.5,13.5,0,0,0-2.09-.94,19.37,19.37,0,0,0-2.61-.72,16.86,16.86,0,0,0,2.25-1,12.68,12.68,0,0,0,2.51-1.78,10.16,10.16,0,0,0,2-2.49,9.78,9.78,0,0,0,.92-2.24,12.31,12.31,0,0,0,.45-3.42,13.83,13.83,0,0,0-.36-3.27,11,11,0,0,0-1.07-2.78A10.53,10.53,0,0,0,342,4.57a11.51,11.51,0,0,0-2.62-2,12.71,12.71,0,0,0-2.65-1.08A16.19,16.19,0,0,0,333.94,1c-.81-.09-1.63-.14-2.45-.15H311.16V2.64a24,24,0,0,1,2.52.28,8.84,8.84,0,0,1,1.8.53,3.13,3.13,0,0,1,1.2.83,2.16,2.16,0,0,1,.41,1A9.89,9.89,0,0,1,317.25,7c0,.71,0,1.42,0,2.12V42.7c0,.77,0,1.54,0,2.3a3.68,3.68,0,0,1-.34,1.6,2.74,2.74,0,0,1-1,1,6.24,6.24,0,0,1-2.18.69c-.86.13-1.72.23-2.58.28v1.82h16.2c1.26,0,2.53,0,3.79,0s2.31-.1,3.46-.23a19.37,19.37,0,0,0,2.92-.59,14.73,14.73,0,0,0,2.56-1A13,13,0,0,0,344,45.7a14.69,14.69,0,0,0,1.7-2.3,13.67,13.67,0,0,0,1.81-5.23A15.26,15.26,0,0,0,347.59,35.47ZM323.46,3.14H330a14,14,0,0,1,2.24.18,8.8,8.8,0,0,1,2.2.63,5.62,5.62,0,0,1,2,1.36A7.64,7.64,0,0,1,337.8,7.7a14.15,14.15,0,0,1,.81,4.07,20.05,20.05,0,0,1,0,3.1,12.16,12.16,0,0,1-.73,3.37,8,8,0,0,1-1.26,2.24,6.91,6.91,0,0,1-1.39,1.31,7.58,7.58,0,0,1-1.49.84,9.83,9.83,0,0,1-2.12.53,23.77,23.77,0,0,1-2.79.19h-5.35ZM340.94,38.2a16.28,16.28,0,0,1-.44,2.68,10.91,10.91,0,0,1-1,2.47A9.47,9.47,0,0,1,338,45.47,7.46,7.46,0,0,1,336,47a9.69,9.69,0,0,1-2,.76,12.14,12.14,0,0,1-2,.32c-.9.06-1.8.08-2.7,0-.63,0-1.26,0-1.89,0A11.65,11.65,0,0,1,326,48a5.73,5.73,0,0,1-1.15-.3,1.88,1.88,0,0,1-.69-.45,1.7,1.7,0,0,1-.29-.46,4.27,4.27,0,0,1-.33-1.32,12.79,12.79,0,0,1-.06-1.52V25.66h7.1c.5,0,1,0,1.5.05a17.08,17.08,0,0,1,2,.27,10.47,10.47,0,0,1,2,.63,7.58,7.58,0,0,1,1.22.67,6.34,6.34,0,0,1,1.16,1,8.84,8.84,0,0,1,.92,1.26,10.57,10.57,0,0,1,.71,1.48,12.59,12.59,0,0,1,.58,2.08,16,16,0,0,1,.26,2.19A19.78,19.78,0,0,1,340.94,38.2Z"/><path class="cls-1" d="M418.61,45.16V28.45c0-.57,0-1.13,0-1.7a23.68,23.68,0,0,0-.16-2.52,13.87,13.87,0,0,0-.84-3.53,8.34,8.34,0,0,0-.94-1.77,10.47,10.47,0,0,0-1.39-1.65A9.44,9.44,0,0,0,413.59,16a9.83,9.83,0,0,0-2.13-.93,12,12,0,0,0-2.52-.46,13,13,0,0,0-2.79.08,10.34,10.34,0,0,0-2.56.7,10.9,10.9,0,0,0-2.84,1.74,14.14,14.14,0,0,0-2,2c-.32.41-.63.83-.91,1.26-.06-1.27-.16-2.53-.3-3.79a18.55,18.55,0,0,0-.47-2.68c-1,.34-1.94.64-2.93.9-1.61.4-3.23.74-4.86,1l-2,.3v1.28l1.66.07c.35,0,.69,0,1,.06a3.17,3.17,0,0,1,.86.15,2.55,2.55,0,0,1,.73.34,1.88,1.88,0,0,1,.78,1.36,9.71,9.71,0,0,1,.1,1.2c0,.62.05,1.24.05,1.86V45.73a6.3,6.3,0,0,1-.1,1.15,2.38,2.38,0,0,1-.5,1,2.47,2.47,0,0,1-1,.69,8.1,8.1,0,0,1-1.53.36q-1.08.14-2.16.18v1.49L389,50.5c1-.08,2-.15,3-.21,1.38-.07,2.77-.1,4.16-.08,1.22,0,2.44.08,3.65.16s2.3.17,3.45.28V49.2c-.39,0-.77,0-1.15-.08a8.16,8.16,0,0,1-1.1-.19,4.9,4.9,0,0,1-1.08-.36,3,3,0,0,1-.81-.56,1.79,1.79,0,0,1-.37-.54,2.64,2.64,0,0,1-.17-.61,6.85,6.85,0,0,1-.12-1.1c0-.5,0-1,0-1.5V27.32a21.2,21.2,0,0,1,.12-2.25,10.56,10.56,0,0,1,.8-3.17,6.13,6.13,0,0,1,1.31-1.83,7.3,7.3,0,0,1,1.22-1,7,7,0,0,1,1.9-.85,8.21,8.21,0,0,1,1.83-.29,9.41,9.41,0,0,1,1.5.05,7.22,7.22,0,0,1,1.29.27,5.31,5.31,0,0,1,1.24.56,5.25,5.25,0,0,1,1.17,1,5.83,5.83,0,0,1,1.32,2.53,13.32,13.32,0,0,1,.37,2.26c.06.64.09,1.28.1,1.93V44.24c0,.67,0,1.34,0,2a2.88,2.88,0,0,1-.32,1.31,2.59,2.59,0,0,1-1.22,1.07,7.91,7.91,0,0,1-1.8.45c-.5.06-1,.1-1.51.12v1.45l2.85-.24c1.09-.08,2.19-.14,3.28-.18s2.35,0,3.52,0,2.35.09,3.53.18l2.21.17.75.07V49.16c-.28,0-.57,0-.86,0s-.67-.06-1-.1A9.93,9.93,0,0,1,421,48.8a5.65,5.65,0,0,1-1-.33,3.17,3.17,0,0,1-.75-.5,1.81,1.81,0,0,1-.32-.46,3.28,3.28,0,0,1-.18-.61,6.49,6.49,0,0,1-.11-.77c0-.32,0-.64,0-1"/><path class="cls-1" d="M456,15.26H431.41L429.75,25h1.52c.43-1.11.89-2.21,1.38-3.29a11.71,11.71,0,0,1,1.33-2.2,6.14,6.14,0,0,1,1.47-1.36,4.7,4.7,0,0,1,1.45-.63,9.64,9.64,0,0,1,1.68-.27c.55,0,1.09-.06,1.63,0h7.89l-20,33.26h25.42l1.91-10.74h-1.52A29.28,29.28,0,0,1,452.66,43,15,15,0,0,1,451,45.9,7.32,7.32,0,0,1,449,47.69a6.93,6.93,0,0,1-2.34.69,17,17,0,0,1-2,.15h-8.81Z"/><path class="cls-1" d="M2.18,48.63a10.18,10.18,0,0,0,1.95-.44,2.68,2.68,0,0,0,1.16-.83A3.5,3.5,0,0,0,5.9,46a9.09,9.09,0,0,0,.21-1.72L7.62,8.9a19,19,0,0,0,0-2.82,5.59,5.59,0,0,0-.28-1.52,2,2,0,0,0-.81-1A4.86,4.86,0,0,0,5.18,3a11.56,11.56,0,0,0-1.84-.38c-.59-.08-1.19-.14-1.79-.18V.63C2.61.7,3.67.77,4.73.82S7.07.9,8.25.89c.94,0,1.89,0,2.84-.09C12.28.74,13.48.64,14.67.51L28.38,38.17,42.32.51l.25,0,.34,0,.63,0,.68.06.73,0L46,.79l1.79.08c.6,0,1.21,0,1.81,0,1,0,2,0,3-.09Q53.71.74,54.8.65l.44,0V2.44a23.46,23.46,0,0,0-2.51.26A10.69,10.69,0,0,0,51.37,3a2.94,2.94,0,0,0-1.13.6,2.64,2.64,0,0,0-.64.84,4.08,4.08,0,0,0-.35,1.14,7.08,7.08,0,0,0-.09,1.13c0,.5,0,1,0,1.5l.75,35.94a14.93,14.93,0,0,0,.17,1.77,5.23,5.23,0,0,0,.12.54,2.13,2.13,0,0,0,.23.56,2.18,2.18,0,0,0,.51.54,4.27,4.27,0,0,0,1,.56,8.64,8.64,0,0,0,1.16.34c.27.06.54.12.81.16l.47.07.5.06.57.05.55,0v1.81c-1.23-.12-2.45-.23-3.68-.32q-2.37-.18-4.74-.24c-1.5,0-3,0-4.51.11-1.06.07-2.12.14-3.18.23l-2.38.22V48.84a20,20,0,0,0,2.79-.31,6.94,6.94,0,0,0,1.89-.6,2.52,2.52,0,0,0,1-1,3.31,3.31,0,0,0,.34-1.05,10.94,10.94,0,0,0,.09-1.61L43,5.34,40,13.68,33.83,30.31,29.67,41.68,27.08,49H26L22.19,38.18l-2.32-6.36L10.15,5.24,10,10.52,8.66,43.9c0,.45,0,.89,0,1.33a5.47,5.47,0,0,0,.24,1.39,1.86,1.86,0,0,0,.69.94,4.51,4.51,0,0,0,1.36.66,12.66,12.66,0,0,0,1.7.39q1,.16,2.07.24v1.81l-1.62-.13c-.77-.06-1.53-.11-2.3-.15s-1.51-.08-2.27-.1-1.68,0-2.51,0c-1,0-2,.09-3,.15l-3,.22V48.85C.73,48.81,1.46,48.73,2.18,48.63Z"/></g></g></svg>