<svg xmlns="http://www.w3.org/2000/svg" viewBox="0 0 139.66 179.35"><defs><style>.cls-1{fill:#58595b;}</style></defs><g id="Layer_2" data-name="Layer 2"><g id="Layer_1_1:1_" data-name="Layer 1 (1:1)"><path class="cls-1" d="M7.93,169.09c-.33,2.34-1.7,3.69-3.35,3.69a1.54,1.54,0,0,1-1.73-1.52c0-1.51,1.31-2.21,3.91-2.21.38,0,.75,0,1.17,0m2.92-.82a9.29,9.29,0,0,0,.2-1.65c0-2.35-1.59-3.72-4.51-3.72a11.05,11.05,0,0,0-3.67.62l-.35,2.17A8.43,8.43,0,0,1,6,164.87c1.54,0,2.38.77,2.38,2.1,0,.15,0,.35,0,.53-.84-.07-1.48-.11-1.95-.11C2.23,167.39,0,169,0,171.47c0,1.89,1.44,3.23,3.67,3.23a4.48,4.48,0,0,0,3.8-1.94l-.24,1.72H9.68c.09-.86.26-1.84.48-2.91Z"/><path class="cls-1" d="M27.89,174.48h-3l1.26-5.9a7.76,7.76,0,0,0,.12-1.3,1.69,1.69,0,0,0-1.78-1.9c-1.63,0-2.92,1.35-3.47,4L20,174.48H17l2.4-11.31h2.65l-.42,2A5.23,5.23,0,0,1,25.77,163c2.14,0,3.51,1.41,3.51,3.77a12.36,12.36,0,0,1-.31,2.54Z"/><path class="cls-1" d="M39.25,167.81H33.86c.49-1.9,1.76-3,3.25-3a2.08,2.08,0,0,1,2.18,2.37c0,.19,0,.39,0,.61m2.32,1.79a12.18,12.18,0,0,0,.22-2.17,4.18,4.18,0,0,0-4.48-4.53,5.91,5.91,0,0,0-4.69,1.95,7.08,7.08,0,0,0-1.85,4.77c0,3.2,2,5.2,5.32,5.2a11.1,11.1,0,0,0,3.69-.63l.16-2.21a7.06,7.06,0,0,1-3.23.74c-2,0-3.18-1-3.18-2.69a3,3,0,0,1,0-.43Z"/><polygon class="cls-1" points="46.61 163.25 47.01 172.23 51.45 163.25 54.89 163.25 55.4 172.25 59.65 163.25 62.63 163.25 56.62 174.55 53.28 174.55 52.71 165.58 48.31 174.55 44.82 174.55 43.73 163.25 46.61 163.25"/><path class="cls-1" d="M75.65,167.81H70.26c.48-1.9,1.76-3,3.24-3a2.09,2.09,0,0,1,2.19,2.37c0,.19,0,.39,0,.61M78,169.6a11.44,11.44,0,0,0,.23-2.17,4.19,4.19,0,0,0-4.49-4.53A5.89,5.89,0,0,0,69,164.85a7.09,7.09,0,0,0-1.86,4.77c0,3.2,2,5.2,5.33,5.2a11.14,11.14,0,0,0,3.69-.63l.16-2.21a7.06,7.06,0,0,1-3.23.74c-2,0-3.19-1-3.19-2.69a2,2,0,0,1,0-.43Z"/><path class="cls-1" d="M89.71,174.48h-3l1.27-5.9a7.83,7.83,0,0,0,.13-1.3,1.69,1.69,0,0,0-1.79-1.9c-1.63,0-2.92,1.35-3.47,4l-1.08,5.15h-3l2.4-11.31H83.9l-.43,2A5.23,5.23,0,0,1,87.59,163c2.14,0,3.51,1.41,3.51,3.77a12.36,12.36,0,0,1-.31,2.54Z"/><path class="cls-1" d="M100.84,167.81H95.45c.48-1.9,1.77-3,3.25-3a2.08,2.08,0,0,1,2.18,2.37c0,.19,0,.39,0,.61m2.32,1.79a13.2,13.2,0,0,0,.22-2.17,4.18,4.18,0,0,0-4.49-4.53,5.9,5.9,0,0,0-4.68,1.95,7.09,7.09,0,0,0-1.86,4.77c0,3.2,2,5.2,5.33,5.2a11.1,11.1,0,0,0,3.69-.63l.15-2.21a7,7,0,0,1-3.22.74c-2,0-3.19-1-3.19-2.69a2,2,0,0,1,0-.43Z"/><path class="cls-1" d="M113.15,165.71a5,5,0,0,0-1.39-.22c-2,0-2.81,1.21-3.36,3.75l-1.13,5.25h-3l2.32-11.28h2.67l-.4,1.93c1.08-1.46,2.17-2.19,3.58-2.19a4.62,4.62,0,0,1,1.33.22Z"/><path class="cls-1" d="M122.38,168c0,2.56-1.65,4.53-3.51,4.53a2.29,2.29,0,0,1-2.23-2.54c0-2.81,1.55-4.75,3.34-4.75,1.43,0,2.4,1.06,2.4,2.76m1.13-4.73-.42,2a3.81,3.81,0,0,0-3.73-2.29c-3.23,0-5.7,2.82-5.7,6.73,0,3.06,1.59,4.85,4.17,4.85a5,5,0,0,0,4.07-2.22c-.6,3.36-1.73,4.82-4.35,4.82a7.21,7.21,0,0,1-3.45-.93l-.64,2.23a11.29,11.29,0,0,0,4.2.85c3.59,0,5.74-1.6,6.41-4.75l2.33-11.32Z"/><path class="cls-1" d="M130.83,163.25l1.12,8.49,4.4-8.49h3.09l-7.29,12.8c-1.26,2.23-2.43,3.27-4.59,3.27a7.52,7.52,0,0,1-2.33-.44l.71-2.14a3.17,3.17,0,0,0,1.2.26,2.61,2.61,0,0,0,2.22-1.12l.69-1.22-2.14-11.41Z"/><path class="cls-1" d="M85.37,28.5A6.51,6.51,0,0,1,86,33.07l1.15.17a6.09,6.09,0,0,0,.15-2l1.12-.09a10.26,10.26,0,0,0-1.47-5l-1,.52a9.11,9.11,0,0,1,1.33,4.11,9.22,9.22,0,0,0-.86-2.73Z"/><path class="cls-1" d="M31.17,49.28l.39,1.15,2.35-.77.4,1.14c.73-.27,1.48-.53,2.23-.79l.39,1c1.52-.62,3.09-1.2,4.69-1.74l-.37-1.09c-.77.26-1.53.53-2.29.81l-.26-.92c-.81.25-1.61.5-2.4.77l-.3-1c-.83.24-1.66.48-2.48.74l-.29-1.09c-1.65.44-3.27.9-4.84,1.41L28.74,50Z"/><path class="cls-1" d="M26.24,50.87l-.4-1.1q-2.43.88-4.67,1.92l.49,1.07c1.45-.68,3-1.31,4.58-1.89"/><path class="cls-1" d="M19.25,54l-.53-1.06a34.6,34.6,0,0,0-4.28,2.71l.7,1A34.68,34.68,0,0,1,19.25,54"/><path class="cls-1" d="M13.14,58.24l-.86-.84A23,23,0,0,0,8.9,61.21l1,.71a22.21,22.21,0,0,1,3.26-3.68"/><path class="cls-1" d="M7.46,63.62a20.75,20.75,0,0,0-1.69,4.79l1.15.28a19,19,0,0,1,1.63-4.56Z"/><path class="cls-1" d="M6.52,71.25l-1.16,0a26.83,26.83,0,0,0,0,4.48l0,.58,1.15-.1-.05-.58a24.07,24.07,0,0,1,0-4.33"/><path class="cls-1" d="M24,52.28l.48,1,.22-.1c1.38-.67,2.83-1.29,4.33-1.87l-.4-1.07c-1.6.61-3.15,1.29-4.63,2"/><path class="cls-1" d="M17.35,56.36l.72.91a33.55,33.55,0,0,1,4.1-2.73l-.59-1a35.63,35.63,0,0,0-4.23,2.8"/><path class="cls-1" d="M12.91,62.7A22.21,22.21,0,0,1,16.1,59l-.84-.81A23.78,23.78,0,0,0,12,62Z"/><path class="cls-1" d="M10.55,64.45A20.45,20.45,0,0,0,8.9,69.27l1.13.28a19.27,19.27,0,0,1,1.59-4.62Z"/><path class="cls-1" d="M9.65,72.11,8.49,72a27.14,27.14,0,0,0,0,4.5l0,.58L9.71,77l0-.58a25.09,25.09,0,0,1,0-4.33"/><path class="cls-1" d="M89.53,29.11a12.83,12.83,0,0,0-1.94-4.76l-1,.57a11.59,11.59,0,0,1,1.81,4.44Z"/><path class="cls-1" d="M26.83,52.82l.51,1,.06,0c1.42-.74,2.91-1.42,4.45-2.06l-.45-1c-1.59.65-3.12,1.36-4.57,2.11"/><path class="cls-1" d="M21,58A33,33,0,0,1,25,55.13l-.63-1a35.63,35.63,0,0,0-4.13,2.88Z"/><path class="cls-1" d="M16,63.5a22.13,22.13,0,0,1,3.09-3.79l-.84-.8a23.74,23.74,0,0,0-3.23,4Z"/><path class="cls-1" d="M12,70.12l1.13.28a19.84,19.84,0,0,1,1.54-4.65l-1.08-.45A21.14,21.14,0,0,0,12,70.12"/><path class="cls-1" d="M12.79,73l-1.15-.07a28.23,28.23,0,0,0,0,4.5l.05.58,1.15-.1,0-.58a27.26,27.26,0,0,1,0-4.33"/><path class="cls-1" d="M90.25,26.86a15.93,15.93,0,0,0-2.31-4.56l-1,.63a14.24,14.24,0,0,1,2.2,4.35Z"/><path class="cls-1" d="M29.51,53.3l.55,1,.06,0c1.38-.78,2.84-1.5,4.35-2.18L34,51q-2.36,1-4.52,2.27"/><path class="cls-1" d="M27.15,54.71a35.2,35.2,0,0,0-4,3l.7.91a34.33,34.33,0,0,1,4-3Z"/><path class="cls-1" d="M21.94,60.43l-.84-.79a24.69,24.69,0,0,0-3.13,4l1,.61a23.33,23.33,0,0,1,3-3.86"/><path class="cls-1" d="M15.14,71l1.14.23a20.74,20.74,0,0,1,1.48-4.64l-1.09-.43A22.43,22.43,0,0,0,15.14,71"/><path class="cls-1" d="M15.93,73.8l-1.15-.07a28.52,28.52,0,0,0,0,4.52l0,.58,1.15-.1L16,78.15a26.4,26.4,0,0,1,0-4.35"/><path class="cls-1" d="M91,25a18.69,18.69,0,0,0-2.55-4.42l-.95.65a17.32,17.32,0,0,1,2.43,4.21Z"/><path class="cls-1" d="M39.64,51.38c1.5-.64,3-1.26,4.61-1.84l-.36-1.08c-1.59.58-3.16,1.21-4.68,1.87Z"/><path class="cls-1" d="M32.29,53.83l.57,1c1.39-.83,2.85-1.6,4.37-2.34l-.49-1c-1.54.74-3,1.53-4.45,2.37"/><path class="cls-1" d="M30.63,56.24,30,55.31a35.86,35.86,0,0,0-4,3.14l.76.86a34.67,34.67,0,0,1,3.89-3.07"/><path class="cls-1" d="M24.9,61.16l-.84-.79a24.26,24.26,0,0,0-3,4.11l1,.61a23.6,23.6,0,0,1,2.89-3.93"/><path class="cls-1" d="M18.27,71.82l1.13.25a22.23,22.23,0,0,1,1.43-4.68L19.76,67a22.43,22.43,0,0,0-1.49,4.87"/><path class="cls-1" d="M19.07,74.69l-1.15-.1a27.29,27.29,0,0,0,0,4.51l.05.58,1.14-.09,0-.58a27.19,27.19,0,0,1,0-4.32"/><path class="cls-1" d="M91.71,23.2A21.72,21.72,0,0,0,89,18.91l-.94.68a21,21,0,0,1,2.62,4.13Z"/><path class="cls-1" d="M42.32,51.74c1.49-.69,3-1.35,4.59-2l-.42-1.07c-1.57.63-3.12,1.3-4.63,2Z"/><path class="cls-1" d="M35,54.4l.59,1C37,54.49,38.44,53.67,40,52.9l-.53-1c-1.52.78-3,1.61-4.39,2.51"/><path class="cls-1" d="M33.44,56.83l-.67-.91a36.31,36.31,0,0,0-3.89,3.24l.77.83a36.66,36.66,0,0,1,3.79-3.16"/><path class="cls-1" d="M27.87,61.88l-.9-.72A25.39,25.39,0,0,0,24,65.32l1,.57a24.17,24.17,0,0,1,2.83-4"/><path class="cls-1" d="M21.4,72.68l1.13.26a22.87,22.87,0,0,1,1.37-4.72l-1.08-.4a23,23,0,0,0-1.42,4.86"/><path class="cls-1" d="M22.21,75.53l-1.15-.08a29.66,29.66,0,0,0,0,4.51l0,.57,1.15-.1-.05-.57a28.56,28.56,0,0,1,0-4.33"/><path class="cls-1" d="M92.42,21.52a24.93,24.93,0,0,0-2.84-4.21l-.9.72a23.76,23.76,0,0,1,2.73,4Z"/><path class="cls-1" d="M45,52.08c1.46-.72,3-1.42,4.5-2.08l-.45-1c-1.55.66-3.07,1.37-4.56,2.11Z"/><path class="cls-1" d="M37.78,55l.62.93c1.35-.9,2.77-1.76,4.24-2.57l-.55-1c-1.49.82-2.94,1.7-4.31,2.63"/><path class="cls-1" d="M36.27,57.43l-.71-.88a35.23,35.23,0,0,0-3.81,3.35l.78.81a35.65,35.65,0,0,1,3.74-3.28"/><path class="cls-1" d="M30.8,62.65l-.89-.72a26.77,26.77,0,0,0-2.84,4.21l1,.57a25.77,25.77,0,0,1,2.73-4.06"/><path class="cls-1" d="M24.52,73.55l1.13.22A22.87,22.87,0,0,1,27,69.06l-1.09-.39a24.35,24.35,0,0,0-1.37,4.88"/><path class="cls-1" d="M25.35,76.36l-1.16,0a30.93,30.93,0,0,0,.06,4.5l.05.59,1.15-.11-.05-.57a27.72,27.72,0,0,1,0-4.36"/><path class="cls-1" d="M93.15,19.93a28,28,0,0,0-3-4.14l-.9.72a26.14,26.14,0,0,1,2.86,4Z"/><path class="cls-1" d="M47.66,52.45c1.44-.78,2.94-1.52,4.46-2.22l-.48-1c-1.53.72-3,1.47-4.51,2.26Z"/><path class="cls-1" d="M40.52,55.52l.66.92c1.32-1,2.72-1.85,4.17-2.7l-.59-1c-1.47.87-2.89,1.78-4.24,2.75"/><path class="cls-1" d="M39.08,58l-.72-.87a37.46,37.46,0,0,0-3.74,3.47l.84.76A36.76,36.76,0,0,1,39.08,58"/><path class="cls-1" d="M33.75,63.39l-.92-.67A27.5,27.5,0,0,0,30.07,67l1,.52a26.32,26.32,0,0,1,2.65-4.14"/><path class="cls-1" d="M27.65,74.4l1.13.21a23.93,23.93,0,0,1,1.27-4.73L29,69.52a24.65,24.65,0,0,0-1.31,4.88"/><path class="cls-1" d="M28.49,77.2l-1.16,0a29.66,29.66,0,0,0,.07,4.5l0,.57,1.15-.09,0-.58a29.12,29.12,0,0,1-.06-4.37"/><path class="cls-1" d="M93.87,18.39a30.58,30.58,0,0,0-3-4.07l-.89.74A28.65,28.65,0,0,1,92.9,19Z"/><path class="cls-1" d="M50.31,52.81q2.14-1.23,4.4-2.36l-.52-1q-2.27,1.13-4.43,2.37Z"/><path class="cls-1" d="M43.27,56.07l.66.92c1.29-1,2.67-1.92,4.1-2.82l-.61-1c-1.44.9-2.83,1.85-4.15,2.85"/><path class="cls-1" d="M37.53,61.33l.83.77a34.92,34.92,0,0,1,3.52-3.45l-.74-.85a38.88,38.88,0,0,0-3.61,3.53"/><path class="cls-1" d="M34.14,68.34a27,27,0,0,1,2.55-4.19l-.91-.67a28.44,28.44,0,0,0-2.66,4.35Z"/><path class="cls-1" d="M30.77,75.25l1.13.24a25.5,25.5,0,0,1,1.23-4.77L32,70.36a25.6,25.6,0,0,0-1.27,4.89"/><path class="cls-1" d="M31.63,78.06l-1.15,0a31,31,0,0,0,.06,4.5l.05.57,1.15-.1,0-.57a30.51,30.51,0,0,1-.06-4.37"/><path class="cls-1" d="M94.66,17a30.9,30.9,0,0,0-3.09-4l-.89.73a32.26,32.26,0,0,1,3,3.92Z"/><path class="cls-1" d="M52.92,53.18q2.1-1.29,4.31-2.47l-.53-1c-1.48.8-2.93,1.62-4.35,2.5Z"/><path class="cls-1" d="M46,56.66l.68.89q1.91-1.53,4-2.93L50,53.69c-1.4.94-2.76,1.93-4,3"/><path class="cls-1" d="M44.7,59.24l-.77-.8a37.7,37.7,0,0,0-3.52,3.64l.87.71a39.05,39.05,0,0,1,3.42-3.55"/><path class="cls-1" d="M39.65,64.9l-.93-.65a28.36,28.36,0,0,0-2.56,4.4l1,.48a26.7,26.7,0,0,1,2.46-4.23"/><path class="cls-1" d="M33.89,76.12l1.14.21a26.35,26.35,0,0,1,1.16-4.75l-1.09-.36a27.64,27.64,0,0,0-1.21,4.9"/><path class="cls-1" d="M34.77,78.91l-1.16,0a30.86,30.86,0,0,0,.08,4.49l0,.57,1.16-.1,0-.57a29.15,29.15,0,0,1-.07-4.37"/><path class="cls-1" d="M95.47,15.61a35.94,35.94,0,0,0-3.12-4l-.87.75a32.63,32.63,0,0,1,3,3.87Z"/><path class="cls-1" d="M97.09,23.1,98.24,23A12.82,12.82,0,0,0,96.86,18l-1.06.45a11.88,11.88,0,0,1,1.29,4.62"/><path class="cls-1" d="M55.52,53.54q2.07-1.35,4.25-2.61l-.55-1c-1.46.85-2.9,1.73-4.29,2.66Z"/><path class="cls-1" d="M48.73,57.24l.69.83q1.86-1.57,3.9-3l-.63-.89c-1.37,1-2.7,2-4,3.09"/><path class="cls-1" d="M47.46,59.85l-.77-.75a41.28,41.28,0,0,0-3.41,3.73l.82.69a37.25,37.25,0,0,1,3.36-3.67"/><path class="cls-1" d="M42.57,65.62l-.92-.56a29.82,29.82,0,0,0-2.46,4.42l1,.46a28.75,28.75,0,0,1,2.38-4.32"/><path class="cls-1" d="M37,77l1.13.19a27.19,27.19,0,0,1,1.11-4.79l-1.07-.32A29.45,29.45,0,0,0,37,77"/><path class="cls-1" d="M37.9,79.78l-1.15,0a33.82,33.82,0,0,0,.08,4.48l.05.58L38,84.7l0-.57a31.91,31.91,0,0,1-.09-4.35"/><path class="cls-1" d="M95.38,15l1-.64a33.88,33.88,0,0,0-3.06-3.86l-.1-.12-.87.76.11.13a34.61,34.61,0,0,1,3,3.73"/><path class="cls-1" d="M98.16,21.81l1.14-.19a14.12,14.12,0,0,0-1.54-4.88l-1.05.47a13.34,13.34,0,0,1,1.45,4.6"/><path class="cls-1" d="M68.92,47.36l-.54-1c-1.46.81-2.92,1.62-4.37,2.48l.58,1c1.43-.84,2.88-1.65,4.33-2.44"/><path class="cls-1" d="M58.14,53.92c1.34-.94,2.73-1.85,4.14-2.72l-.58-1Q59.56,51.57,57.5,53Z"/><path class="cls-1" d="M51.44,57.85l.74.79c1.2-1.09,2.48-2.14,3.8-3.15l-.67-.86c-1.34,1-2.63,2.1-3.87,3.22"/><path class="cls-1" d="M50.26,60.49l-.79-.73a41.43,41.43,0,0,0-3.32,3.85l.85.64a38.33,38.33,0,0,1,3.26-3.76"/><path class="cls-1" d="M45.52,66.4l-.92-.57a32,32,0,0,0-2.37,4.49l1,.45a28.34,28.34,0,0,1,2.29-4.37"/><path class="cls-1" d="M40.14,77.86l1.12.18a28.42,28.42,0,0,1,1.06-4.82l-1.06-.32a29.13,29.13,0,0,0-1.12,5"/><path class="cls-1" d="M41,80.62H39.89A33.69,33.69,0,0,0,40,85.09l.05.57,1.15-.09,0-.58A32.21,32.21,0,0,1,41,80.62"/><path class="cls-1" d="M96.29,13.78l.94-.66a34.1,34.1,0,0,0-3-3.72l-.21-.24-.88.76.23.25a33.15,33.15,0,0,1,2.88,3.61"/><path class="cls-1" d="M99.22,20.58l1.13-.23a15.09,15.09,0,0,0-1.66-4.83L97.63,16a14,14,0,0,1,1.59,4.6"/><path class="cls-1" d="M67,50c1.41-.9,2.83-1.76,4.27-2.61l-.58-1Q68.57,47.68,66.42,49Z"/><path class="cls-1" d="M60.05,53.42l.67.91c1.32-1,2.69-1.95,4.08-2.87l-.63-1q-2.12,1.4-4.12,2.91"/><path class="cls-1" d="M54.11,58.44l.79.8C56.09,58.1,57.33,57,58.64,56l-.73-.86q-2,1.62-3.8,3.35"/><path class="cls-1" d="M52.22,60.39A41.46,41.46,0,0,0,49,64.33l.92.65a38,38,0,0,1,3.13-3.84Z"/><path class="cls-1" d="M48.48,67.17l-1-.57a32.67,32.67,0,0,0-2.28,4.54l1,.45a30.9,30.9,0,0,1,2.21-4.42"/><path class="cls-1" d="M43.26,78.72l1.13.17a30.21,30.21,0,0,1,1-4.85l-1.1-.29a30.69,30.69,0,0,0-1.05,5"/><path class="cls-1" d="M44.18,81.48l-1.16,0a35.66,35.66,0,0,0,.11,4.49l0,.57,1.15-.08,0-.58a34,34,0,0,1-.1-4.37"/><path class="cls-1" d="M97.25,12.66l.94-.67a37,37,0,0,0-2.93-3.67L95,8l-.86.77.25.28a36.44,36.44,0,0,1,2.85,3.57"/><path class="cls-1" d="M100.27,19.41l1.13-.25a16.5,16.5,0,0,0-1.73-4.78l-1.06.48a14.67,14.67,0,0,1,1.66,4.55"/><path class="cls-1" d="M69.47,50.21q2.06-1.41,4.16-2.74l-.61-1q-2.1,1.34-4.19,2.76Z"/><path class="cls-1" d="M62.59,53.86l.71.88q1.94-1.55,4-3l-.66-.94c-1.37,1-2.72,2-4,3.06"/><path class="cls-1" d="M56.84,59.05l.79.8c1.15-1.18,2.36-2.31,3.63-3.41l-.75-.84c-1.28,1.11-2.51,2.26-3.67,3.45"/><path class="cls-1" d="M55.85,61.79,55,61.07a42.78,42.78,0,0,0-3.08,4l.93.64a40.48,40.48,0,0,1,3-3.92"/><path class="cls-1" d="M51.43,68l-1-.53A32.56,32.56,0,0,0,48.27,72l1,.44A31.94,31.94,0,0,1,51.43,68"/><path class="cls-1" d="M46.38,79.55l1.14.16a31.05,31.05,0,0,1,1-4.83l-1.11-.28a33.13,33.13,0,0,0-1,5"/><path class="cls-1" d="M47.31,82.35l-1.15,0a37.37,37.37,0,0,0,.11,4.47l0,.58,1.15-.1,0-.58a35.6,35.6,0,0,1-.11-4.35"/><path class="cls-1" d="M98.25,11.58l1-.64a36.79,36.79,0,0,0-3-3.69L96,7l-.86.77L95.4,8a36.38,36.38,0,0,1,2.85,3.56"/><path class="cls-1" d="M99.63,13.8a16.58,16.58,0,0,1,1.72,4.56l1.13-.24a17.18,17.18,0,0,0-1.79-4.79Z"/><path class="cls-1" d="M71.87,50.43c1.34-1,2.7-2,4.07-2.89l-.64-.95Q73.25,48,71.19,49.51Z"/><path class="cls-1" d="M65.12,54.32l.74.86c1.26-1.09,2.56-2.13,3.89-3.16L69,51.13c-1.33,1-2.65,2.09-3.92,3.19"/><path class="cls-1" d="M59.55,59.68l.82.78c1.11-1.21,2.29-2.39,3.52-3.52l-.78-.83c-1.24,1.15-2.43,2.33-3.56,3.57"/><path class="cls-1" d="M58.65,62.45l-.88-.7a41.22,41.22,0,0,0-3,4.09l.94.62a41.82,41.82,0,0,1,2.92-4"/><path class="cls-1" d="M53.38,68.23a35.23,35.23,0,0,0-2.07,4.58l1.06.41a33.61,33.61,0,0,1,2-4.49Z"/><path class="cls-1" d="M49.51,80.4l1.14.15a32.48,32.48,0,0,1,.92-4.83l-1.1-.26a31.71,31.71,0,0,0-1,4.94"/><path class="cls-1" d="M50.45,83.18l-1.15,0a37.91,37.91,0,0,0,.12,4.5l0,.57,1.16-.1,0-.57a36.14,36.14,0,0,1-.12-4.38"/><path class="cls-1" d="M99.34,10.65l1-.65a36.45,36.45,0,0,0-3.05-3.83L97.11,6l-.87.76.14.17a36.85,36.85,0,0,1,3,3.7"/><path class="cls-1" d="M100.69,12.84a16.56,16.56,0,0,1,1.74,4.55l1.13-.29a17.85,17.85,0,0,0-1.84-4.78Z"/><path class="cls-1" d="M74.27,50.66c1.31-1,2.64-2,4-3l-.67-.94q-2,1.48-4,3.06Z"/><path class="cls-1" d="M67.66,54.75l.79.85q1.83-1.68,3.75-3.27l-.74-.88c-1.3,1.07-2.57,2.16-3.8,3.3"/><path class="cls-1" d="M66.51,57.45l-.8-.85c-1.21,1.18-2.36,2.42-3.46,3.69l.87.78c1.08-1.25,2.2-2.45,3.39-3.62"/><path class="cls-1" d="M61.44,63.13l-.95-.69a44.25,44.25,0,0,0-2.85,4.15l1,.6a44.28,44.28,0,0,1,2.79-4.06"/><path class="cls-1" d="M56.31,69a36,36,0,0,0-2,4.68l1.11.39a35.21,35.21,0,0,1,1.94-4.54Z"/><path class="cls-1" d="M52.62,81.27l1.16.13a33.53,33.53,0,0,1,.87-4.81l-1.14-.28a36.89,36.89,0,0,0-.89,5"/><path class="cls-1" d="M53.59,84.05H52.44a39.87,39.87,0,0,0,.12,4.47l0,.57L53.77,89l-.05-.58a37.94,37.94,0,0,1-.13-4.36"/><path class="cls-1" d="M101.79,11.94a17.33,17.33,0,0,1,1.75,4.56l1.12-.27a18.24,18.24,0,0,0-1.82-4.78Z"/><path class="cls-1" d="M101.4,9.08a39.15,39.15,0,0,0-3.17-4l-.86.77a35.77,35.77,0,0,1,3.08,3.89Z"/><path class="cls-1" d="M85.42,43.85,86.53,43l-.69-.92-1.13.87-2.82,2.22.72.9c.94-.75,1.88-1.47,2.81-2.21"/><path class="cls-1" d="M76.67,50.91c1.27-1.09,2.55-2.14,3.85-3.18l-.72-.9c-1.3,1.05-2.61,2.11-3.9,3.21Z"/><path class="cls-1" d="M70.17,55.25l.83.81c1.17-1.16,2.39-2.29,3.64-3.39l-.78-.87Q72,53.48,70.17,55.25"/><path class="cls-1" d="M69.11,58l-.85-.78Q66.52,59,64.94,61l.9.75c1-1.29,2.13-2.53,3.27-3.74"/><path class="cls-1" d="M64.24,63.8l-1-.66a46.9,46.9,0,0,0-2.73,4.23l1,.6a44.83,44.83,0,0,1,2.69-4.17"/><path class="cls-1" d="M59.25,69.81a37.7,37.7,0,0,0-1.9,4.69l1.11.39a37.15,37.15,0,0,1,1.86-4.6Z"/><path class="cls-1" d="M55.75,82.14l1.15.14a34.5,34.5,0,0,1,.84-4.88l-1.14-.27a36.36,36.36,0,0,0-.85,5"/><path class="cls-1" d="M56.73,84.9H55.57a42.64,42.64,0,0,0,.14,4.48l0,.57,1.15-.1,0-.57a40.46,40.46,0,0,1-.13-4.37"/><path class="cls-1" d="M102.56,8.25a36.34,36.34,0,0,0-3.12-4L98.56,5a35.78,35.78,0,0,1,3,3.9Z"/><path class="cls-1" d="M102.93,11.11a18.19,18.19,0,0,1,1.73,4.58l1.13-.28A19.09,19.09,0,0,0,104,10.62Z"/><path class="cls-1" d="M86.51,43.14,84,45.25l.75.87c.84-.7,1.66-1.4,2.48-2.1l1.35-1.14L87.88,42l-1.37,1.15"/><path class="cls-1" d="M78.24,50.34l.79.84c1.23-1.12,2.48-2.23,3.73-3.31L82,47q-1.89,1.64-3.75,3.34"/><path class="cls-1" d="M72.71,55.73l.84.8c1.14-1.21,2.33-2.39,3.53-3.53l-.81-.82c-1.22,1.15-2.41,2.34-3.56,3.55"/><path class="cls-1" d="M71.76,58.49l-.89-.76q-1.68,1.91-3.23,3.92l.94.7c1-1.33,2.07-2.61,3.18-3.86"/><path class="cls-1" d="M67,64.49l-1-.65a47,47,0,0,0-2.65,4.34l1,.54A49.21,49.21,0,0,1,67,64.49"/><path class="cls-1" d="M62.22,70.6a38.19,38.19,0,0,0-1.82,4.75l1.11.36a40.42,40.42,0,0,1,1.78-4.64Z"/><path class="cls-1" d="M58.87,83l1.15.12a39.9,39.9,0,0,1,.8-4.89L59.68,78a37.8,37.8,0,0,0-.81,5"/><path class="cls-1" d="M59.87,85.73l-1.16,0a42.24,42.24,0,0,0,.15,4.46l0,.57,1.15-.09L60,90.12a38.52,38.52,0,0,1-.14-4.39"/><path class="cls-1" d="M103.78,7.51a35.63,35.63,0,0,0-3.09-4l-.88.74a37.12,37.12,0,0,1,3,3.94Z"/><path class="cls-1" d="M104.13,10.39A18.35,18.35,0,0,1,105.82,15L107,14.7a20.31,20.31,0,0,0-1.78-4.82Z"/><path class="cls-1" d="M88.33,43.37l-2.18,2,.8.84,2.15-2,1.54-1.41L89.85,42l-1.52,1.4"/><path class="cls-1" d="M81.38,51.48Q83.17,49.73,85,48l-.79-.85c-1.21,1.13-2.43,2.29-3.63,3.48Z"/><path class="cls-1" d="M76.08,57c1.11-1.24,2.25-2.47,3.42-3.66l-.85-.79c-1.17,1.2-2.32,2.42-3.43,3.68Z"/><path class="cls-1" d="M74.36,59l-.91-.72c-1.07,1.29-2.1,2.62-3.07,4l.94.68c1-1.35,2-2.67,3-4"/><path class="cls-1" d="M69.84,65.2l-1-.62c-.9,1.41-1.74,2.87-2.5,4.37l1,.54c.75-1.47,1.58-2.9,2.47-4.29"/><path class="cls-1" d="M65.17,71.43a39.41,39.41,0,0,0-1.72,4.75l1.12.34a40.65,40.65,0,0,1,1.68-4.64Z"/><path class="cls-1" d="M62,83.83l1.15.13a38.05,38.05,0,0,1,.76-4.87l-1.15-.23a39.35,39.35,0,0,0-.76,5"/><path class="cls-1" d="M63,86.62l-1.16,0c0,1.45,0,2.94.15,4.47l0,.58,1.16-.1L63.15,91A43.06,43.06,0,0,1,63,86.62"/><path class="cls-1" d="M68.13,72.27a44.26,44.26,0,0,0-1.64,4.79l1.13.32a40.59,40.59,0,0,1,1.6-4.7Z"/><path class="cls-1" d="M77.73,56.8l.9.74q1.59-1.93,3.27-3.76L81,53c-1.12,1.24-2.23,2.51-3.3,3.8"/><path class="cls-1" d="M105.05,6.85a36.58,36.58,0,0,0-3-4.08l-.89.74a34.71,34.71,0,0,1,3,4Z"/><path class="cls-1" d="M105.35,9.72A19.14,19.14,0,0,1,107,14.35l1.12-.28a20,20,0,0,0-1.71-4.81Z"/><path class="cls-1" d="M90.16,43.64l-1.9,1.88.82.8c.64-.62,1.26-1.24,1.89-1.87s1.11-1.09,1.66-1.65L91.84,42c-.56.55-1.12,1.1-1.68,1.67"/><path class="cls-1" d="M82.88,51l.83.8q1.73-1.83,3.47-3.58l-.81-.82C85.2,48.59,84,49.78,82.88,51"/><path class="cls-1" d="M77,59.62,76,58.93c-1,1.33-2,2.68-2.94,4.09l1,.63q1.38-2.07,2.91-4"/><path class="cls-1" d="M72.64,65.9l-1-.59c-.86,1.44-1.66,2.91-2.39,4.44l1.06.5Q71.37,68,72.64,65.9"/><path class="cls-1" d="M65.13,84.7l1.16.12a38.79,38.79,0,0,1,.7-4.9l-1.14-.21a41.61,41.61,0,0,0-.72,5"/><path class="cls-1" d="M66.15,87.45l-1.16,0c0,1.45,0,2.94.16,4.46l0,.57,1.15-.1,0-.57a43.52,43.52,0,0,1-.15-4.38"/><path class="cls-1" d="M106.36,6.27a36.07,36.07,0,0,0-3-4.13l-.88.74a34.66,34.66,0,0,1,2.89,4Z"/><path class="cls-1" d="M106.63,9.18a19.16,19.16,0,0,1,1.56,4.61l1.12-.25a20.35,20.35,0,0,0-1.64-4.84Z"/><path class="cls-1" d="M96.46,40.81c1.15-1.26,2.27-2.5,3.33-3.74l-.87-.75c-1.06,1.23-2.18,2.47-3.34,3.74Z"/><path class="cls-1" d="M92,43.94l-1.63,1.74.84.8,1.64-1.76,1.78-1.91L93.78,42,92,43.94"/><path class="cls-1" d="M85.17,51.4l.87.77c1.1-1.26,2.22-2.5,3.34-3.72l-.86-.77q-1.68,1.83-3.35,3.72"/><path class="cls-1" d="M81.17,58.07c1-1.32,2.06-2.61,3.12-3.88l-.87-.75c-1.08,1.28-2.15,2.59-3.17,3.92Z"/><path class="cls-1" d="M79.57,60.21l-.93-.69q-1.48,2.05-2.84,4.2l1,.62c.87-1.41,1.81-2.79,2.77-4.13"/><path class="cls-1" d="M75.46,66.6l-1-.55c-.83,1.46-1.6,3-2.29,4.52l1.06.49c.68-1.53,1.44-3,2.26-4.46"/><path class="cls-1" d="M71.1,73.07a44.43,44.43,0,0,0-1.55,4.82l1.12.29a45.06,45.06,0,0,1,1.52-4.69Z"/><path class="cls-1" d="M68.25,85.55l1.16.12a42.35,42.35,0,0,1,.66-4.89l-1.13-.23a44.58,44.58,0,0,0-.69,5"/><path class="cls-1" d="M69.29,88.33H68.13c0,1.45,0,2.93.16,4.46l.06.57,1.15-.1,0-.58a42.79,42.79,0,0,1-.16-4.35"/><path class="cls-1" d="M107.71,5.79a34.4,34.4,0,0,0-2.9-4.18l-.92.71a32.7,32.7,0,0,1,2.83,4Z"/><path class="cls-1" d="M107.91,8.68a20,20,0,0,1,1.47,4.67l1.14-.25A21.29,21.29,0,0,0,109,8.22Z"/><path class="cls-1" d="M97.44,40.07l.9.73c1.1-1.3,2.17-2.6,3.18-3.88l-.9-.72c-1,1.28-2.08,2.58-3.18,3.87"/><path class="cls-1" d="M92.44,45.9l.88.74c.48-.54.94-1.08,1.4-1.62.64-.73,1.26-1.46,1.88-2.18l-.9-.73-1.85,2.16L92.44,45.9"/><path class="cls-1" d="M87.47,51.8l.9.73q1.59-2,3.2-3.84L90.68,48c-1.07,1.26-2.15,2.54-3.21,3.84"/><path class="cls-1" d="M85.77,53.92c-1,1.32-2,2.65-3,4l.94.67c1-1.35,2-2.68,3-4Z"/><path class="cls-1" d="M82.19,60.8l-1-.63q-1.41,2.09-2.68,4.26l1,.57q1.26-2.14,2.64-4.2"/><path class="cls-1" d="M78.25,67.35l-1-.54Q76,69,75.06,71.35l1.07.46c.64-1.52,1.36-3,2.12-4.46"/><path class="cls-1" d="M74.05,73.93a48.17,48.17,0,0,0-1.45,4.79l1.13.3a46.2,46.2,0,0,1,1.43-4.73Z"/><path class="cls-1" d="M71.39,86.41l1.15.1a45.86,45.86,0,0,1,.62-4.9L72,81.42a44.45,44.45,0,0,0-.63,5"/><path class="cls-1" d="M72.43,89.17H71.28c0,1.46,0,3,.16,4.47l0,.58,1.15-.1,0-.57c-.12-1.49-.18-2.94-.16-4.37"/><path class="cls-1" d="M109.09,5.37a33.14,33.14,0,0,0-2.82-4.24l-.93.68a32.33,32.33,0,0,1,2.74,4.12Z"/><path class="cls-1" d="M109.22,8.27A20.75,20.75,0,0,1,110.6,13l1.15-.25a22.07,22.07,0,0,0-1.45-4.87Z"/><path class="cls-1" d="M99.29,40.12l.91.71c1-1.34,2.07-2.67,3-4l-.94-.68c-1,1.32-2,2.64-3,4"/><path class="cls-1" d="M94.51,46.15l.92.71,1.2-1.51,1.91-2.41-.91-.69-1.9,2.38c-.41.51-.81,1-1.22,1.52"/><path class="cls-1" d="M89.76,52.26l.93.69c1-1.34,2-2.65,3-4l-.9-.72c-1,1.3-2.06,2.64-3.07,4"/><path class="cls-1" d="M89.11,55.08l-.94-.68c-1,1.34-1.93,2.72-2.87,4.11l1,.66c.92-1.39,1.88-2.75,2.85-4.09"/><path class="cls-1" d="M84.81,61.4l-1-.6q-1.33,2.13-2.54,4.34l1,.57c.8-1.47,1.64-2.9,2.52-4.31"/><path class="cls-1" d="M81.06,68.08l-1-.51c-.74,1.51-1.42,3-2,4.62l1.08.43c.61-1.55,1.29-3.06,2-4.54"/><path class="cls-1" d="M77,74.74c-.53,1.59-1,3.2-1.38,4.86l1.12.26c.38-1.62.85-3.21,1.37-4.77Z"/><path class="cls-1" d="M74.51,87.28l1.16.1a43.44,43.44,0,0,1,.58-4.9l-1.14-.2a47.12,47.12,0,0,0-.6,5"/><path class="cls-1" d="M75.57,90H74.42c0,1.46,0,3,.17,4.48l0,.58,1.15-.1-.05-.57c-.13-1.5-.18-3-.17-4.39"/><path class="cls-1" d="M110.5,5.05A32.43,32.43,0,0,0,107.79.74l-1,.67a29.56,29.56,0,0,1,2.64,4.18Z"/><path class="cls-1" d="M110.56,8a21,21,0,0,1,1.28,4.74l1.15-.22a22.45,22.45,0,0,0-1.33-4.91Z"/><path class="cls-1" d="M109,30.17l-1-.54c-.76,1.42-1.61,2.84-2.51,4.27l1,.62c.92-1.46,1.78-2.91,2.56-4.35"/><path class="cls-1" d="M104.94,36.78l-1-.64c-.91,1.36-1.87,2.72-2.86,4.1l.94.67q1.5-2.07,2.88-4.13"/><path class="cls-1" d="M97.61,45l-1,1.4.93.69c.35-.46.69-.94,1-1.4l1.94-2.64-.93-.68c-.64.87-1.28,1.75-1.94,2.63"/><path class="cls-1" d="M93,53.36c1-1.38,1.93-2.72,2.9-4L95,48.6c-1,1.35-2,2.71-2.92,4.1Z"/><path class="cls-1" d="M90.54,54.94c-.93,1.38-1.85,2.79-2.73,4.22l1,.6c.87-1.42,1.78-2.8,2.7-4.17Z"/><path class="cls-1" d="M86.42,61.47Q85.16,63.65,84,65.89l1,.54q1.14-2.24,2.4-4.39Z"/><path class="cls-1" d="M83.89,68.8l-1.06-.47c-.7,1.52-1.35,3.06-1.93,4.64l1.09.41c.57-1.56,1.21-3.08,1.9-4.58"/><path class="cls-1" d="M80,75.56c-.51,1.59-.94,3.21-1.31,4.87l1.14.26c.35-1.62.78-3.22,1.28-4.78Z"/><path class="cls-1" d="M77.64,88.13l1.15.11a49.29,49.29,0,0,1,.55-4.95l-1.14-.18a48.46,48.46,0,0,0-.56,5"/><path class="cls-1" d="M78.71,90.87H77.55c0,1.47,0,3,.18,4.46l0,.58,1.16-.1,0-.58c-.13-1.48-.19-2.94-.18-4.37"/><path class="cls-1" d="M112,4.82A30.58,30.58,0,0,0,109.33.43l-1,.66a28.77,28.77,0,0,1,2.51,4.25Z"/><path class="cls-1" d="M111.9,7.74a22.58,22.58,0,0,1,1.15,4.76l1.21-.21A24,24,0,0,0,113,7.36Z"/><path class="cls-1" d="M109.39,29.54c-.71,1.45-1.51,2.91-2.37,4.37l1,.57q1.3-2.23,2.4-4.42Z"/><path class="cls-1" d="M105.65,36.2c-.87,1.4-1.78,2.8-2.72,4.22l1,.61q1.41-2.12,2.71-4.2Z"/><path class="cls-1" d="M102.42,43.27l-1-.64L99.51,45.5c-.28.42-.57.85-.87,1.28l1,.64.86-1.27,2-2.88"/><path class="cls-1" d="M97.15,49c-.93,1.38-1.86,2.78-2.77,4.2l1,.61q1.37-2.12,2.76-4.16Z"/><path class="cls-1" d="M93.92,56.07l-1-.59c-.88,1.41-1.74,2.85-2.58,4.3l1,.56c.83-1.45,1.69-2.87,2.56-4.27"/><path class="cls-1" d="M87.8,67.13q1.07-2.25,2.25-4.43l-1-.56q-1.2,2.2-2.28,4.49Z"/><path class="cls-1" d="M86.71,69.55l-1.07-.44c-.67,1.55-1.28,3.11-1.82,4.71l1.08.4c.55-1.59,1.16-3.15,1.81-4.67"/><path class="cls-1" d="M83,76.4q-.72,2.41-1.22,4.9l1.14.21c.33-1.63.74-3.23,1.2-4.79Z"/><path class="cls-1" d="M80.77,89l1.15.07c.09-1.67.27-3.32.51-4.93L81.28,84q-.37,2.46-.51,5"/><path class="cls-1" d="M81.85,91.72l-1.16,0c0,1.46.06,3,.19,4.46l.05.58,1.15-.1,0-.57c-.13-1.49-.18-3-.18-4.39"/><path class="cls-1" d="M113.26,7.56a24.61,24.61,0,0,1,1.06,4.78l1.2-.15a23.77,23.77,0,0,0-1.12-5Z"/><path class="cls-1" d="M113.39,4.63A31.64,31.64,0,0,0,110.92.22l-1,.62a31.7,31.7,0,0,1,2.37,4.28Z"/><path class="cls-1" d="M111.9,30l-1.06-.48c-.68,1.47-1.43,3-2.23,4.45l1,.54q1.23-2.27,2.26-4.51"/><path class="cls-1" d="M108.33,36.88l-1-.55c-.81,1.42-1.66,2.84-2.55,4.3l1,.55c.88-1.44,1.73-2.88,2.55-4.3"/><path class="cls-1" d="M102.42,46.61l1.94-3.12-1-.6c-.63,1-1.28,2.06-1.94,3.1-.23.39-.47.77-.71,1.16l1,.61.72-1.15"/><path class="cls-1" d="M100.29,50l-1-.58c-.86,1.39-1.73,2.81-2.58,4.25l1,.61c.86-1.45,1.74-2.88,2.61-4.28"/><path class="cls-1" d="M96.32,56.62l-1-.58c-.84,1.44-1.66,2.91-2.45,4.39l1,.54c.78-1.46,1.59-2.92,2.41-4.35"/><path class="cls-1" d="M92.68,63.35l-1-.5q-1.12,2.22-2.14,4.54l1.06.47q1-2.3,2.12-4.51"/><path class="cls-1" d="M89.53,70.32l-1.08-.42c-.62,1.55-1.19,3.12-1.71,4.73l1.11.34q.77-2.37,1.68-4.65"/><path class="cls-1" d="M86,77.24c-.45,1.6-.83,3.24-1.15,4.9l1.14.22c.31-1.64.7-3.26,1.14-4.84Z"/><path class="cls-1" d="M83.9,89.83l1.15.1c.08-1.68.24-3.32.47-4.94l-1.15-.17c-.23,1.64-.39,3.31-.47,5"/><path class="cls-1" d="M85,92.58l-1.16,0c0,1.46.06,3,.2,4.46l0,.57,1.15-.09,0-.58C85.05,95.48,85,94,85,92.58"/><path class="cls-1" d="M114.87,4.58A30.72,30.72,0,0,0,112.51.05l-1,.61A29.74,29.74,0,0,1,113.77,5Z"/><path class="cls-1" d="M114.65,7.49a25.25,25.25,0,0,1,.95,4.84l1.2-.17a26,26,0,0,0-1-5Z"/><path class="cls-1" d="M113.27,27.1l1.1.4a44.35,44.35,0,0,0,1.52-4.8l-1.16-.29a45.86,45.86,0,0,1-1.46,4.69"/><path class="cls-1" d="M112.29,29.58c-.64,1.5-1.33,3-2.09,4.54l1,.49q1.16-2.31,2.12-4.58Z"/><path class="cls-1" d="M109,36.48c-.76,1.46-1.57,2.92-2.39,4.4l1,.57Q108.87,39.22,110,37Z"/><path class="cls-1" d="M105.28,43.22l-1.9,3.31c-.19.34-.38.68-.58,1l1,.56c.18-.33.37-.65.56-1l1.91-3.32Z"/><path class="cls-1" d="M101.45,49.9c-.81,1.43-1.63,2.89-2.44,4.36l1,.53c.8-1.46,1.62-2.91,2.43-4.34Z"/><path class="cls-1" d="M97.72,56.64q-1.17,2.19-2.29,4.46l1,.51c.74-1.51,1.51-3,2.28-4.45Z"/><path class="cls-1" d="M95.32,64l-1-.5c-.71,1.53-1.39,3.08-2,4.65l1.08.41q.94-2.31,2-4.56"/><path class="cls-1" d="M92.36,71.07l-1.09-.38c-.58,1.56-1.11,3.16-1.6,4.77l1.11.32q.72-2.39,1.58-4.71"/><path class="cls-1" d="M87.87,83l1.14.2c.29-1.63.64-3.25,1-4.84L89,78.08c-.43,1.61-.79,3.26-1.08,4.93"/><path class="cls-1" d="M87,90.73l1.16,0c.07-1.67.22-3.33.43-5l-1.15-.16c-.21,1.66-.37,3.35-.44,5.06"/><path class="cls-1" d="M88.13,93.43H87c0,1.47.08,3,.2,4.47l0,.57,1.15-.09-.05-.58c-.12-1.47-.18-2.94-.19-4.38"/><path class="cls-1" d="M118.09,12.21a27.09,27.09,0,0,0-.89-5l-1.15.29a27.16,27.16,0,0,1,.84,4.83Z"/><path class="cls-1" d="M116.34,4.57A31.22,31.22,0,0,0,114.14,0l-1,.57A29.51,29.51,0,0,1,115.24,5Z"/><path class="cls-1" d="M118.19,15l-1.21,0a31.67,31.67,0,0,1-.43,4.93l1.18.17a31,31,0,0,0,.46-5.06"/><path class="cls-1" d="M117.2,22.74l-1.16-.3a49.77,49.77,0,0,1-1.39,4.8l1.13.34q.84-2.45,1.42-4.84"/><path class="cls-1" d="M114.83,30.16l-1.09-.42c-.58,1.51-1.23,3-1.93,4.56l1.07.46q1.07-2.32,2-4.6"/><path class="cls-1" d="M111.72,37.23l-1-.5c-.71,1.47-1.46,3-2.24,4.48l1,.52q1.17-2.26,2.24-4.5"/><path class="cls-1" d="M106.37,47.68c.63-1.2,1.26-2.39,1.87-3.57l-1-.53-1.88,3.56-.45.86,1,.52c.15-.28.29-.56.45-.84"/><path class="cls-1" d="M104.66,50.92l-1-.53c-.76,1.47-1.54,3-2.29,4.46l1,.49q1.14-2.25,2.28-4.42"/><path class="cls-1" d="M101.17,57.76l-1-.49Q99,59.51,98,61.8l1.06.47c.68-1.53,1.4-3,2.12-4.51"/><path class="cls-1" d="M98,64.72l-1.07-.45c-.65,1.53-1.28,3.08-1.87,4.65l1.08.42Q97,67,98,64.72"/><path class="cls-1" d="M95.2,71.84l-1.1-.35c-.54,1.57-1,3.16-1.48,4.77l1.1.34q.68-2.41,1.48-4.76"/><path class="cls-1" d="M90.94,83.84l1.13.2c.27-1.64.6-3.27,1-4.87l-1.13-.25c-.39,1.61-.73,3.26-1,4.92"/><path class="cls-1" d="M90.15,91.58l1.16.06c.06-1.67.19-3.32.39-4.94l-1.15-.15c-.2,1.65-.34,3.33-.4,5"/><path class="cls-1" d="M91.27,94.28l-1.16,0c0,1.47.08,3,.21,4.45l.05.57,1.15-.1,0-.57c-.13-1.48-.19-2.94-.2-4.39"/><path class="cls-1" d="M117.83,4.69A30.46,30.46,0,0,0,115.77,0l-1,.52a30.32,30.32,0,0,1,2,4.5Z"/><path class="cls-1" d="M118.2,12.43l1.2-.09a30.22,30.22,0,0,0-.79-5l-1.17.24a30.35,30.35,0,0,1,.76,4.88"/><path class="cls-1" d="M118.27,15.07a35.77,35.77,0,0,1-.42,4.92l1.18.17a36.41,36.41,0,0,0,.44-5.07Z"/><path class="cls-1" d="M116.08,27.39l1.13.31q.78-2.43,1.31-4.86l-1.16-.24q-.51,2.37-1.28,4.79"/><path class="cls-1" d="M113.45,34.53l1.07.45q1-2.35,1.82-4.67l-1.1-.4c-.54,1.53-1.15,3.07-1.79,4.62"/><path class="cls-1" d="M110.32,41.55l1.05.47c.72-1.53,1.42-3.06,2.09-4.56L112.39,37c-.66,1.5-1.36,3-2.07,4.55"/><path class="cls-1" d="M107.33,47.79c-.11.23-.22.47-.34.69l1,.51c.11-.24.22-.47.34-.7.62-1.29,1.24-2.56,1.84-3.83l-1-.49c-.6,1.26-1.22,2.54-1.84,3.82"/><path class="cls-1" d="M103.68,55.44l1,.48q1.06-2.28,2.13-4.52l-1-.5q-1.08,2.24-2.15,4.54"/><path class="cls-1" d="M100.56,62.49l1.06.45c.65-1.54,1.31-3.08,2-4.58l-1.06-.46c-.68,1.51-1.35,3-2,4.59"/><path class="cls-1" d="M97.79,69.71l1.1.35q.83-2.34,1.72-4.63L99.54,65c-.61,1.55-1.2,3.12-1.75,4.71"/><path class="cls-1" d="M95.54,77.11l1.13.29c.42-1.61.87-3.2,1.37-4.77l-1.11-.32c-.5,1.58-1,3.19-1.39,4.8"/><path class="cls-1" d="M94,84.67l1.14.2c.25-1.65.56-3.27.91-4.88l-1.14-.24c-.35,1.62-.66,3.26-.91,4.92"/><path class="cls-1" d="M93.28,92.42l1.15.07q.09-2.51.36-4.95l-1.15-.14c-.18,1.66-.31,3.33-.36,5"/><path class="cls-1" d="M94.41,95.12l-1.16,0c0,1.47.09,3,.22,4.46l0,.58,1.15-.1,0-.58c-.13-1.48-.2-2.94-.21-4.4"/><path class="cls-1" d="M84.92,35.06l.26.27a6.7,6.7,0,0,0,1.53-1.89l.48.31a6,6,0,0,0,1-1.81c0-.09,0-.18.07-.25l.49.18a6.49,6.49,0,0,0,.43-1,4.89,4.89,0,0,0,.24-1.22l.91.17a6,6,0,0,0,.17-1.95h1.08a6.74,6.74,0,0,0-.12-1.77l1.15-.14c0,.17,0,.34.08.51a9,9,0,0,0-.34-2l1.14-.25a12.73,12.73,0,0,1,.29,1.5,9.36,9.36,0,0,0-.57-2.86l1.11-.31a10.9,10.9,0,0,1,.56,2.38,10.18,10.18,0,0,0-.81-3.57l1.08-.38A12.1,12.1,0,0,1,96,24.06a11.06,11.06,0,0,0-1.06-4.21L96,19.42a11.75,11.75,0,0,1,1.16,5L96,24.5A9.39,9.39,0,0,1,96,26L95,26a8.48,8.48,0,0,1-.19,1.68l-1-.12a6.81,6.81,0,0,1-.22,1.18c-.06.23-.12.45-.2.67l-.81-.22a2.46,2.46,0,0,1-.09.39,9.25,9.25,0,0,1-.37,1c.2-.27.4-.54.57-.82l.43.3a9.6,9.6,0,0,0,1-1.71l.59.3a8.84,8.84,0,0,0,.8-1.71l.72.3a9.9,9.9,0,0,0,.58-1.66l.82.27a8.51,8.51,0,0,0,.39-1.42s0-.08,0-.13l.92.22a8.25,8.25,0,0,0,.2-.89c0-.17.05-.35.06-.53l1,.17.09-.43a8.91,8.91,0,0,0,.08-.89l1.06.13v0a8.77,8.77,0,0,0,.08-1.15l1.09.11c0-.36,0-.72,0-1.08l1.12.05c0-.31,0-.62,0-.92L105,19a7.66,7.66,0,0,0,0-.83l1.18,0v-.74h1.18v-.6h1.19v-.54h1.16v-.47l1.18,0v-.37l1.21,0v-.31l1.17,0a1.47,1.47,0,0,1,0-.21l1.24,0V15l1.25,0v-.09l1.21,0a29.94,29.94,0,0,1-.46,5.06l-1.2-.15,0,.18L114,19.83c0,.1,0,.2,0,.3L112.83,20c0,.12,0,.25-.08.38l-1.12-.21-.09.49-1.1-.21c0,.19-.07.38-.11.57l-1.07-.21c-.05.21-.09.43-.15.64l-1-.19c0,.25-.11.49-.18.73l-1-.23c-.07.29-.14.59-.23.88l-1-.25c-.08.32-.16.63-.26.95l-.94-.26c-.1.35-.2.71-.32,1.07l-.9-.28c-.11.39-.25.77-.4,1.16L102,24.7c-.15.42-.3.84-.49,1.25l-.77-.32a12.69,12.69,0,0,1-.62,1.36l-.69-.33a11.53,11.53,0,0,1-.76,1.43l-.62-.32a14.49,14.49,0,0,1-.91,1.49L96.64,29c-.15.23-.3.45-.46.67l.42.37a17.57,17.57,0,0,0,1.13-1.35l.5.41c.35-.43.68-.86,1-1.3l.59.41c.3-.42.58-.85.84-1.28l.67.42c.25-.4.49-.81.71-1.21l.73.42c.22-.38.42-.76.6-1.13l.82.41c.18-.37.36-.73.52-1.09l.85.43c.15-.32.29-.65.43-1l.91.4c.12-.3.25-.59.36-.88l.92.36c.1-.27.21-.53.29-.79l1,.36c.08-.23.17-.46.24-.69l1.06.35c.07-.2.13-.41.2-.62L112,23c0-.16.11-.32.15-.49l1.15.36.12-.44,1.16.31A44.14,44.14,0,0,1,113,27.51l-1.18-.43-.2.5-1.13-.46-.25.61-1-.46-.33.69-1-.46-.39.76-.93-.47c-.16.28-.32.57-.49.85l-.85-.48c-.19.31-.37.62-.57.92l-.79-.48c-.22.35-.45.69-.69,1l-.7-.49c-.24.35-.5.71-.76,1.06l-.66-.46q-.44.56-.9,1.11l-.58-.46c-.32.39-.66.78-1,1.16L98,31.11q-.56.6-1.17,1.2l-.43-.44c-.4.41-.82.81-1.27,1.2l-.36-.41-.67.61.45.54c.42-.38.84-.76,1.24-1.15l.52.57c.39-.38.77-.75,1.13-1.13l.59.57c.36-.38.7-.75,1-1.12l.66.6.89-1.06.74.6c.27-.34.52-.68.78-1l.82.6.67-1,.87.59c.2-.3.39-.6.57-.89l1,.61c.17-.28.34-.56.5-.84l1,.58c-.82,1.41-1.73,2.82-2.7,4.24l-1-.66-.62.82-1-.66h0c-.23.29-.46.59-.7.88l-.87-.67c-.27.31-.53.63-.81.94l-.77-.68-.94,1-.69-.65c-.35.34-.69.69-1.06,1l-.62-.63-1.15,1-.57-.61-1.28,1.07-.48-.59-1.41,1.07-.42-.56L89,37.8l-.36-.52-1.65,1-.3-.49-1.76,1-.25-.46-.58.33.38.64c.55-.35,1.12-.7,1.65-1l.42.69c.52-.36,1-.71,1.53-1.07l.49.72L90,37.59l.56.74,1.32-1.08.63.77c.4-.36.81-.71,1.2-1.07l.69.8c.37-.35.74-.7,1.08-1l.81.79,1-1,.84.78c-1.11,1.19-2.27,2.4-3.47,3.6L93.68,40l-1.06,1-.81-.86-1.16,1-.72-.85-1.27,1L88,40.49l-1.39,1-.57-.78-1.5,1-.5-.77-1.62,1L82,41.26c-.56.33-1.12.65-1.7,1l-.37-.68-1.82,1-.34-.64-1.91.92-.3-.6-2,.88-.24-.57-2.08.83-.2-.52-1.68.61-.49.18-.17-.48-1.08.35-1.16.38-.14-.44-.34.11.21.59,2.14-.86.27.73,2-.9.32.77c.66-.33,1.31-.64,2-1l.38.81,1.86-1,.44.84,1.78-1,.51.88,1.47-.91.17-.11.55.92,1-.7.56-.36.61.95.61-.45.85-.61.67.94-.84.61c-1.06.77-2.13,1.53-3.2,2.32l-.74-1-1.49,1-.66-1L75.9,46l-.58-1-1.72,1-.51-.93-1.81,1-.46-.88c-.63.3-1.26.6-1.89.92l-.41-.85-2,.89-.36-.81-2,.85-.3-.76-2.16.81-.28-.72-2.21.76-.23-.68-2.28.72-.2-.64-2.37.67-.15-.6-2.42.62L51.43,46l-.21,0,.24.77,2.28-.77.28.87,2.24-.83.32.91,2.18-.88.37,1c.69-.3,1.37-.62,2.07-.92l.42,1,2-1,.48,1q1-.51,1.92-1l.52,1c-1.49.76-3,1.53-4.44,2.33l-.58-1.12-1.89,1-.55-1.08-2,.92-.47-1c-.69.28-1.39.57-2.08.87l-.44-1L52,49l-.38-1-2.22.81-.34-.92c-.76.25-1.53.5-2.29.77l-.27-.89c-.8.23-1.59.47-2.38.72L44,47.82c-.79.2-1.58.42-2.35.64l-.23-.82c-.83.2-1.65.4-2.47.62l-.22-.87c-.86.18-1.71.37-2.56.57l-.26-1.12c1.62-.39,3.26-.75,4.91-1.08l.15.8L43.49,46l.17.72,2.49-.62.13.56,1-.28-.89.17-.13-.62q-1.32.23-2.64.48l-.2-1.14c1.64-.31,3.3-.6,4.94-.87l.09.56,2.66-.51L51,43.93l5-.75,0,.33,2.64-.41,0-.33L63.56,42l0,.18,2.63-.41-.07-.22s2.11-.35,4.94-1.06l0,.13s11.56-2.67,13.79-5.51m-4.77,5.07.46-.25-.17-.34c-.16.07-.32.15-.48.21Zm2.65-.76L82.59,39l-.54.27.21.44Zm10.56-5.5L93,33.5c-.21.17-.42.35-.65.51l.33.42ZM61.27,44.35l.24-.08L61.43,44l-.25.06ZM64,44.09l-.11-.39-.28.06.12.41ZM77.93,40.5l.42-.2-.08-.2-.44.17Zm10.94-4.78.55-.37-.08-.11-.56.35Zm2-.66.59-.44-.2-.25-.57.42ZM94.89,31c.18-.18.37-.36.55-.55l-.33-.25c-.14.19-.3.38-.45.57Zm-1.4.42c-.14.17-.29.32-.43.48l.06.07.49-.44ZM91.71,31l-.49-.2a2.44,2.44,0,0,1-.14.34l.28.24.35-.38m-43,15,.17.68,1.69-.53-1.5.34L48.92,46l-.24,0"/><polygon class="cls-1" points="2.2 98.06 8.79 98.06 8.79 117.89 18.99 117.89 18.99 122.78 2.2 122.78 2.2 98.06"/><path class="cls-1" d="M26.64,116.94c0-1.77,1.7-2.45,3.86-2.45.95,0,1.88.08,2.69.11A4.16,4.16,0,0,1,29.26,119c-1.49,0-2.62-.75-2.62-2m12.85,5.84a22.84,22.84,0,0,1-.35-4.36v-6.87c0-5.63-4.07-7.65-8.78-7.65A19.11,19.11,0,0,0,23,105.21l.11,4.32A12,12,0,0,1,29,108.15c2.3,0,4.17.68,4.21,3.19a18.83,18.83,0,0,0-3-.25c-3.4,0-9.53.68-9.53,6.31,0,4,3.26,5.8,6.9,5.8a6.32,6.32,0,0,0,5.85-3.32h.07c0,1,.11,1.91.14,2.9Z"/><path class="cls-1" d="M41.58,104.33h3.76v-4.15l6.27-1.94v6.09h4.46v4.46H51.61v6.8c0,2.23.53,3.37,2.55,3.37a11.71,11.71,0,0,0,1.94-.25l.22,4.14a30.88,30.88,0,0,1-4,.36c-5.7,0-7.08-2.52-7.08-6.91v-7.51H41.58Z"/><path class="cls-1" d="M72.11,109.43a7.45,7.45,0,0,0-2.16-.21c-3,0-4.64,2.16-4.64,5.77v7.79H58.94V104.33h5.81v3.4h.07c1.09-2.34,2.69-3.83,5.45-3.83a14.38,14.38,0,0,1,2.16.21Z"/><path class="cls-1" d="M83.88,118.74c-2.94,0-4.15-2.44-4.15-5.17s1.21-5.21,4.15-5.21S88,110.81,88,113.57s-1.2,5.17-4.14,5.17m0,4.47c6.09,0,10.73-3.55,10.73-9.64S90,103.9,83.88,103.9s-10.74,3.55-10.74,9.67,4.64,9.64,10.74,9.64"/><path class="cls-1" d="M111.68,113.36c0,2.94-1.45,5-3.86,5-2.13,0-3.9-2-3.9-4.71s1.56-4.82,3.9-4.82,3.86,2.13,3.86,4.57m-14.13,9.42h5.87v-3.29h.08c.81,2.05,3.4,3.71,6.34,3.71,5.49,0,8.43-4.53,8.43-10,0-4.46-2.8-9.32-7.9-9.32a7.55,7.55,0,0,0-6.34,2.8H104V96.22H97.55Z"/><path class="cls-1" d="M126.84,111.8c.14-2.12,1.23-3.86,3.54-3.86,2.55,0,3.54,1.74,3.54,3.86Zm12.82,3.61v-1.17c0-5.49-2.48-10.34-9.32-10.34-5.73,0-9.88,3.55-9.88,9.64s4.64,9.67,10.73,9.67A18.64,18.64,0,0,0,138,122v-4.5a11.94,11.94,0,0,1-5.63,1.42c-3.12,0-5.07-1-5.42-3.55Z"/><path class="cls-1" d="M58.47,130.48a12.42,12.42,0,0,0-5.95-1.21c-7.19,0-12.11,5.49-12.11,12.65a8.68,8.68,0,0,0,9,8.67,14.26,14.26,0,0,0,5.27-.81l-.28,2.16a14.11,14.11,0,0,1-4.82.78c-6.34,0-11.62-4.15-11.62-10.84,0-8.64,6.17-14.73,14.7-14.73a14.79,14.79,0,0,1,6.66,1.27Z"/><path class="cls-1" d="M61.8,134.23h2.34L60.31,152.3H58Zm3.51-4.82H62.65l.64-3h2.65Z"/><path class="cls-1" d="M71.89,130.19l2.55-.88-1.1,4.92h4.71l-.45,1.91H73L71,145.07a17.63,17.63,0,0,0-.53,3.54,1.93,1.93,0,0,0,2,2.2,3.73,3.73,0,0,0,1.92-.5l-.22,1.91a4.93,4.93,0,0,1-2.26.5c-2.52,0-3.94-1.42-3.94-3.37a31.61,31.61,0,0,1,.82-5.2l1.74-8H67l.5-1.91H71Z"/><path class="cls-1" d="M81.56,156.54c-1.1,2.06-2.41,3.4-4.85,3.4a4.12,4.12,0,0,1-2.16-.49l.53-1.92a2,2,0,0,0,1.45.5c1.56,0,2.76-1.42,3.44-2.83l1.52-2.87-2.55-18.1h2.34l1.84,15.55h.07l8.47-15.55h2.4Z"/></g></g></svg>