<svg xmlns="http://www.w3.org/2000/svg" width="14.704" height="14.704" viewBox="0 0 14.704 14.704">
  <g id="Group_23" data-name="Group 23" transform="translate(-1195.101 -41.019)">
    <g id="Group_16" data-name="Group 16" transform="translate(664.269 -992)">
      <path id="Path_20" data-name="Path 20" d="M298.432,330.21a.945.945,0,0,1-.932-.956V312.235a.932.932,0,0,1,.932-.931.945.945,0,0,1,.957.931v17.019A.957.957,0,0,1,298.432,330.21Z" transform="translate(100.343 1024.593) rotate(-45)" fill="#fff"/>
      <path id="Path_22" data-name="Path 22" d="M298.432,330.211a.945.945,0,0,1-.932-.956V312.235a.932.932,0,0,1,.932-.931.945.945,0,0,1,.957.931v17.019A.957.957,0,0,1,298.432,330.211Z" transform="translate(553.962 602.529) rotate(45)" fill="#fff"/>
    </g>
  </g>
</svg>
