<svg xmlns="http://www.w3.org/2000/svg" viewBox="0 0 152.53 108.06"><defs><style>.cls-1{fill:#58595b;}</style></defs><g id="Layer_2" data-name="Layer 2"><g id="Layer_1_1:1_" data-name="Layer 1 (1:1)"><path class="cls-1" d="M56.4,27.7,55,32.39h2.89Zm-3.16,9.82h-3.9L55,22.92h2.91l5.61,14.6H59.53l-.72-2.11H54Z"/><path class="cls-1" d="M67.12,26.49V28a2.82,2.82,0,0,1,2.77-1.66v3h-.08c-2,0-2.49.7-2.49,2.73v5.46H64v-11Z"/><polygon class="cls-1" points="70.86 28.92 70.86 26.49 72.25 26.49 72.25 22.92 75.54 22.92 75.54 26.49 77 26.49 77 28.92 75.54 28.92 75.54 37.52 72.25 37.52 72.25 28.92 70.86 28.92"/><path class="cls-1" d="M80.57,34.24v.1a1.08,1.08,0,0,0,1.19,1c.7,0,1.11-.35,1.11-1,0-.9-.89-.86-2.26-1.29-1.91-.6-2.84-1.63-2.84-3.29,0-2.16,1.59-3.68,4.21-3.68,2.29,0,3.74,1.3,3.87,3.39H82.91c-.12-.72-.39-1-1-1a.89.89,0,0,0-1,.9c0,.76.68.94,1.81,1.25,2.26.62,3.39,1.48,3.39,3.31,0,2.22-1.75,3.82-4.42,3.82-2.47,0-4-1.33-4.21-3.57Z"/><path class="cls-1" d="M56.35,55.55a7.23,7.23,0,0,1-5.43-2.32,7.64,7.64,0,0,1-2.07-5.43,7.24,7.24,0,0,1,2.22-5.28,7.37,7.37,0,0,1,5.32-2.15,7.48,7.48,0,0,1,7.27,5.83H59.8A3.77,3.77,0,0,0,56.41,44a3.82,3.82,0,0,0-3.89,3.82,4,4,0,0,0,3.83,4.11,3.85,3.85,0,0,0,3.36-2.09H63.6a7.33,7.33,0,0,1-7.25,5.71"/><path class="cls-1" d="M73,48.58a2.54,2.54,0,0,0-2.61-1.74,2.38,2.38,0,0,0-2.54,1.74Zm2.76,3.48a5.57,5.57,0,0,1-5.37,3.47,5.47,5.47,0,0,1-4.17-1.77,5.85,5.85,0,0,1-1.62-4.09,5.63,5.63,0,0,1,1.69-4,5.73,5.73,0,0,1,4.06-1.73c3.52,0,5.92,2.53,5.92,6.64v.34H67.94a2.3,2.3,0,0,0,2.55,1.79,2.41,2.41,0,0,0,1.68-.61Z"/><path class="cls-1" d="M77.28,55.26v-11h3.09l-.05,1.48A3.44,3.44,0,0,1,83.49,44c2.28,0,3.76,1.44,3.76,4v7.27H84v-6c0-1.54-.33-2.24-1.58-2.24s-2,.76-2,2.24v6Z"/><polygon class="cls-1" points="88.34 46.65 88.34 44.23 89.74 44.23 89.74 40.66 93.02 40.66 93.02 44.23 94.48 44.23 94.48 46.65 93.02 46.65 93.02 55.26 89.74 55.26 89.74 46.65 88.34 46.65"/><path class="cls-1" d="M98.83,44.23v1.5a2.84,2.84,0,0,1,2.78-1.67v3h-.09c-2,0-2.48.7-2.48,2.74v5.46H95.75v-11Z"/><path class="cls-1" d="M110.48,48.58a2.54,2.54,0,0,0-2.61-1.74,2.38,2.38,0,0,0-2.54,1.74Zm2.76,3.48a5.57,5.57,0,0,1-5.37,3.47,5.44,5.44,0,0,1-4.16-1.77,5.82,5.82,0,0,1-1.63-4.09,5.63,5.63,0,0,1,1.69-4,5.75,5.75,0,0,1,4.06-1.73c3.52,0,5.92,2.53,5.92,6.64v.34h-8.32A2.3,2.3,0,0,0,108,52.67a2.39,2.39,0,0,0,1.68-.61Z"/><polygon class="cls-1" points="49.51 73 49.51 58.39 54.39 58.39 57.19 67.33 60 58.39 64.87 58.39 64.87 73 61.46 73 61.46 63.34 58.44 73 55.91 73 52.89 63.34 52.89 73 49.51 73"/><path class="cls-1" d="M74.79,66.32a2.55,2.55,0,0,0-2.61-1.75,2.39,2.39,0,0,0-2.55,1.75Zm2.75,3.47a5.55,5.55,0,0,1-5.36,3.47A5.44,5.44,0,0,1,68,71.5a5.81,5.81,0,0,1-1.62-4.09,5.66,5.66,0,0,1,1.68-4,5.76,5.76,0,0,1,4.07-1.72c3.51,0,5.91,2.52,5.91,6.63v.35H69.74a2.29,2.29,0,0,0,2.54,1.79A2.44,2.44,0,0,0,74,69.79Z"/><rect class="cls-1" x="79.43" y="58.39" width="3.22" height="14.61"/><path class="cls-1" d="M90.27,70.12a2.71,2.71,0,0,0,2.86-2.71,2.75,2.75,0,0,0-2.76-2.73,2.66,2.66,0,0,0-2.67,2.77,2.61,2.61,0,0,0,2.57,2.67M87.72,73H84.58V58.39h3.27V63.2a3.66,3.66,0,0,1,3.08-1.4,5.16,5.16,0,0,1,3.68,1.52,5.75,5.75,0,0,1-.17,8.44A5,5,0,0,1,91,73.06a4.28,4.28,0,0,1-3.27-1.3Z"/><path class="cls-1" d="M103.08,70.2a2.72,2.72,0,1,0-2.61-2.71,2.66,2.66,0,0,0,2.61,2.71M99,63.4a5.82,5.82,0,0,1,10,4,5.62,5.62,0,0,1-1.66,4.15,5.73,5.73,0,0,1-4.19,1.73,5.45,5.45,0,0,1-4.17-1.77,5.76,5.76,0,0,1-1.62-4.07A5.66,5.66,0,0,1,99,63.4"/><path class="cls-1" d="M120.33,62V73h-3V71.52a3.42,3.42,0,0,1-3.16,1.68c-2.28,0-3.78-1.44-3.78-4V62h3.26v6c0,1.54.33,2.24,1.59,2.24s1.93-.76,1.93-2.24V62Z"/><path class="cls-1" d="M125.46,62v1.49a2.85,2.85,0,0,1,2.78-1.66v3h-.08c-2.06,0-2.49.7-2.49,2.73V73h-3.29V62Z"/><path class="cls-1" d="M129.44,73V62h3.08l0,1.47a3.46,3.46,0,0,1,3.17-1.68c2.28,0,3.75,1.44,3.75,4V73h-3.24V67c0-1.54-.33-2.24-1.58-2.24s-2,.76-2,2.24v6Z"/><path class="cls-1" d="M149.27,66.32a2.55,2.55,0,0,0-2.61-1.75,2.39,2.39,0,0,0-2.55,1.75ZM152,69.79a5.56,5.56,0,0,1-5.36,3.47,5.44,5.44,0,0,1-4.17-1.76,5.82,5.82,0,0,1-1.63-4.09,5.66,5.66,0,0,1,1.69-4,5.76,5.76,0,0,1,4.06-1.72c3.52,0,5.92,2.52,5.92,6.63v.35h-8.32a2.31,2.31,0,0,0,2.55,1.79,2.4,2.4,0,0,0,1.68-.62Z"/><polygon class="cls-1" points="14.22 108.06 0.04 97.39 0 91.98 22.11 83.87 22.34 84.49 0.66 92.44 0.69 97.06 14.38 107.36 46.47 101.01 46.52 101.02 74.35 104.58 70.62 94.93 45.42 84.85 45.66 84.24 71.13 94.43 75.36 105.37 46.49 101.68 14.22 108.06"/><rect class="cls-1" x="40.74" y="83.29" width="0.66" height="19.68" transform="matrix(0.84, -0.55, 0.55, 0.84, -44.44, 37.92)"/><rect class="cls-1" x="9.36" y="95.98" width="31.24" height="0.66" transform="translate(-62.32 48.58) rotate(-46.8)"/><rect class="cls-1" x="-1.43" y="90.38" width="25.46" height="0.66" transform="matrix(0.86, -0.51, 0.51, 0.86, -44.89, 18.61)"/><polygon class="cls-1" points="35.37 85.07 29.46 74.58 22.49 84.37 21.96 83.99 29.53 73.35 35.94 84.75 35.37 85.07"/><rect class="cls-1" x="30.54" y="78.48" width="12.39" height="0.66" transform="translate(-47.27 101.27) rotate(-79.98)"/><rect class="cls-1" x="25.31" y="67.01" width="14.68" height="0.66" transform="translate(-42.18 67.9) rotate(-64.57)"/><rect class="cls-1" x="33.21" y="44.74" width="0.66" height="16.29" transform="translate(-13.35 11.38) rotate(-16.11)"/><rect class="cls-1" x="35.38" y="83.21" width="7.02" height="0.66" transform="translate(-29.56 21.85) rotate(-23.01)"/><rect class="cls-1" x="28.61" y="77.82" width="0.66" height="13.45" transform="translate(-57.05 108.87) rotate(-86.9)"/><rect class="cls-1" x="5.85" y="95.62" width="24.82" height="0.66" transform="translate(-78.48 82.57) rotate(-71.35)"/><polygon class="cls-1" points="74.67 105.24 41.86 82.38 41.83 82.3 37.48 72.77 35.47 60.76 32.81 7.94 31.1 60.65 28.09 73.21 22.52 84.33 21.93 84.04 27.48 72.99 30.45 60.57 32.41 0.01 33.07 0 36.13 60.69 38.12 72.62 42.38 81.95 75.04 104.71 74.67 105.24"/><rect class="cls-1" x="54.93" y="72.93" width="0.66" height="44.03" transform="translate(-54.44 100.87) rotate(-62.89)"/></g></g></svg>