<svg xmlns="http://www.w3.org/2000/svg" viewBox="0 0 124.06 83.54"><defs><style>.cls-1{fill:#58595b;}</style></defs><g id="Layer_2" data-name="Layer 2"><g id="Layer_1_1:1_" data-name="Layer 1 (1:1)"><path class="cls-1" d="M2,78.25V71.51H0v6.81c0,3.37,1.8,5.22,5.07,5.22s5.15-1.88,5.15-5.31V71.51h-2v6.83c0,2.15-1.12,3.38-3.07,3.38S2,80.45,2,78.25"/><polygon class="cls-1" points="14.9 71.51 14.9 83.34 16.91 83.34 16.91 74.66 23.53 83.34 25.34 83.34 25.34 71.51 23.33 71.51 23.33 79.94 16.91 71.51 14.9 71.51"/><rect class="cls-1" x="30.97" y="71.51" width="2.04" height="11.84"/><polygon class="cls-1" points="39.6 71.51 37.34 71.51 42.13 83.34 44.08 83.34 48.86 71.51 46.67 71.51 43.13 81.03 39.6 71.51"/><polygon class="cls-1" points="54.69 78.25 60.61 78.25 60.61 76.51 54.69 76.51 54.69 73.25 61.42 73.25 61.42 71.51 52.67 71.51 52.67 83.34 61.5 83.34 61.5 81.61 54.69 81.61 54.69 78.25"/><path class="cls-1" d="M73.28,78.88a3.52,3.52,0,0,0,2.45-3.55,3.58,3.58,0,0,0-1-2.65,4.66,4.66,0,0,0-3.4-1.17H66V83.34h2v-4h2.73l2.68,4h2.36l-3-4.3ZM68,77.6V73.28h3.11c1.58,0,2.53.81,2.53,2.15a2.18,2.18,0,0,1-2.48,2.17Z"/><path class="cls-1" d="M85,76.54c-2-.52-3-.82-3-2,0-.76.61-1.5,2-1.5a5.79,5.79,0,0,1,3.16,1.11l1-1.51a6.94,6.94,0,0,0-4.17-1.31c-2.41,0-4,1.37-4,3.42s1.2,2.84,3.88,3.53c1.94.5,2.8.89,2.8,1.94,0,.79-.56,1.58-2.16,1.58a5.92,5.92,0,0,1-3.7-1.38l-1.18,1.41a7.63,7.63,0,0,0,4.82,1.69c2.62,0,4.25-1.35,4.25-3.53,0-1.82-1-2.75-3.72-3.45"/><rect class="cls-1" x="93.2" y="71.51" width="2.04" height="11.84"/><polygon class="cls-1" points="103.61 83.34 105.65 83.34 105.65 73.33 109.47 73.33 109.47 71.51 99.79 71.51 99.79 73.33 103.61 73.33 103.61 83.34"/><polygon class="cls-1" points="121.79 71.51 118.53 76.89 115.33 71.51 112.97 71.51 117.49 78.65 117.49 83.34 119.53 83.34 119.53 78.59 124.06 71.51 121.79 71.51"/><path class="cls-1" d="M83.38,10.7a1.56,1.56,0,0,1-.54.58c.85,0,.54-.58.54-.58"/><path class="cls-1" d="M85.84,11.47c-.12-1.17-.76-1.27-1.38-1.52s-1.72-.57-2.14-.81A3.84,3.84,0,0,0,81,8.73c-.5-.07-1.74,0-2.3-.08a4.65,4.65,0,0,0-1.64-.13,2.29,2.29,0,0,1-1.58,1.23c-.86.26-2,.53-2.76.76a6.39,6.39,0,0,1,1.11-3.43c1.31-2.2,1.67-2.93,1.1-3.51s-3.23.74-3.23.74a4.49,4.49,0,0,0,.09-.63c.76-.45,3.64-2.05,4.81-1.39,1.36.76-.31,2.87-.46,3.06a26.57,26.57,0,0,0-2.38,4.1l.78-.21s1.72-2.77,2.31-3.5,2-2.84.88-3.77-2.89-.57-5.92,1.39c0-1-.17-2.52-1.56-3C67.88-.57,60.15,0,51.36,7.06a53.12,53.12,0,0,0-6.71,5.81c-3.11,3.23-6,6.58-5.08,7.08s3.65-2.4,4-2.71c0,0,2.77.17,6.23-2.79a6,6,0,0,0,4.53.5s-1,2.58,2,2.37c0,0-.26,1.25.78,1,0,0-6.09,3.56-6,3.7a26.11,26.11,0,0,0,4.59-1.93,8.27,8.27,0,0,1,2.13-1A17.12,17.12,0,0,0,64.62,17c3.54-1.93,4.67-4.43,4.83-6.23,0,0-.9.82-1.12.79s.14-.95.23-1.55.81-2.91.14-2.63-2.75,2.35-3.51,1c-.56-1,1-2.82,1-2.82S61.38,8.21,60.5,6.83c-.78-1.21.54-2.16.54-2.16A61.55,61.55,0,0,0,50.35,10.4c-5.41,3.66-8.66,8.15-9.72,8.33S49.12,7.51,59.41,3.4C65,1.18,68.7.89,70.21,1.59c.88.41.77,1.53.77,1.8,0,0-.78,7.36.52,9.2,0,0,1.11-.62,2-1,0,0-.44,0-.22-.4.12-.22.47-.34,1-.5a9,9,0,0,0,2.51-.77c.62-.46.57-.64.88-.75a10,10,0,0,0,2,.15,4.76,4.76,0,0,1,1.69,0,21.65,21.65,0,0,0,2.6,1c.83.15.92.21,1.19.69a2.77,2.77,0,0,1,.33,1.16l0,0a4.5,4.5,0,0,0-1.74-.25c.31,0,.62.16.16.27s-1.81.54-1.81.54a3,3,0,0,1,1.19-.81s-1.63,0-1.63,0a2.11,2.11,0,0,0,.62-1.17,2.09,2.09,0,0,0,.43-.11c.45-.15-.05-.27-1-.3a12.89,12.89,0,0,1-1.73-.19l-.24.43a1.8,1.8,0,0,1,.87-.13.67.67,0,0,0,.6.66.93.93,0,0,0,.49-.07,1.13,1.13,0,0,1-1.32.71,1.34,1.34,0,0,1-.82-.65,4.39,4.39,0,0,1-1.13,1.48c-.56.29-3.4,1.59-4.57,3s-1.63,1.93-2.53,2.17-1,.27-1.12.39A11.26,11.26,0,0,1,66,21.45c-1,.52-1.39.5-1.55.34s.07-.71-.11-.7a3.67,3.67,0,0,0-1.29.43,7.69,7.69,0,0,1-2.39.85c-.71.06-1.39-.15-1.44-1.19,0,0,0,0-.53.16s-3.37,1.5-4.41,1.51c-.56,0,.47-1.29.47-1.29s-2.73,1.62-3.32,1.9-2.27,1-1.6-.74A45,45,0,0,1,40.07,27c-1.89.58-2.34.33-2.32.79,0,.22.21.3.49.32A9,9,0,0,0,40.06,28a37.09,37.09,0,0,0,5.36-1.23c2.7-.87,3.51-1.8,5.37-1.28,2.38.66,3.57-.32,3.57-.32s.36.64,1.82.62a5.17,5.17,0,0,0,3.78.62,5.43,5.43,0,0,0,2.41.48A9.37,9.37,0,0,1,62.53,29c-.08,1.19,0,1.53.67.94A22.16,22.16,0,0,1,64,32.53c0,.51,0,.83.31.86a1.9,1.9,0,0,0,.46,0,1.22,1.22,0,0,0,.84.65s0,.2-1,.6c-.52.2-1,.68-.81.92,0,0,.43,0,.89,0A1.17,1.17,0,0,1,66,35.36a.61.61,0,0,1,.35.69.67.67,0,0,1-.13.27,3.53,3.53,0,0,0-.19.3c-.13.21-.27.49-.22.59s.45.67-.54.79c0,0,0,.2.36.18s1.06-.5,1.1-.75a3.64,3.64,0,0,0,.6-1c.23-.59.26-.68.33-.59a1.55,1.55,0,0,1,.14,1.24c-.16.38-.3.46-.17.63a1.83,1.83,0,0,0,.21.16c.08.06.09.2-.15.44-.42.42.72-.08.88-.47,0,0,.36-.41.21-2,0,0,0-.17.18,0a1.14,1.14,0,0,1,.52.75c0,.29-.13.55.07.65s.21.4.13.59-.51.25-.41.28a.94.94,0,0,0,1-.9A2.63,2.63,0,0,0,69,34.54c-1.08-.66-1.43-1-1.6-4.95A14.47,14.47,0,0,1,68,25.52h0c.36-1.32.8-2.05.82-1.9s-.31,1.26-.34,1.76a36.5,36.5,0,0,0,4.13-2.47,9.74,9.74,0,0,0,1.46-1.48,5.3,5.3,0,0,0,1.13-2.89l1.21-2.38s.49.8.89.31,1.25-1.85,1.38-1.87.2.62.49.45.4-.85,1.15-1.21a18.86,18.86,0,0,1,2-.74s2.93-.73,3-.51a2.27,2.27,0,0,1,.11.73,3,3,0,0,0,.33-1.85M67.78,34a1.34,1.34,0,0,0,.48.53,7.09,7.09,0,0,1,1.15.76c.11.11.22.28.16.32s-.21,0-.53-.31-.51-.13-.53.06.06.7,0,1-.23.4-.22,0-.2-1.29-.58-1.26a.71.71,0,0,0-.54.49c-.09.18-.24.37-.19.21a1.76,1.76,0,0,0-.17-.84c-.21-.45-.28-.5-.51-.53s-.27-.24.15-.42A1.48,1.48,0,0,1,67.78,34"/><path class="cls-1" d="M50.79,26.13a4.45,4.45,0,0,0-3.1.51c-1.15.52-6.64,2.36-9.78,2.16,0,0,.47.72,2.39,1,0,0-.16,1.07,1.73.66a73.26,73.26,0,0,0,10.1-4.26,2,2,0,0,1-1.34-.09"/><path class="cls-1" d="M55.68,26.38a2.45,2.45,0,0,1-1.7-.52l-6.72,3.47s-3.08,1.42-2.51,1.78c0,0,1,.55,3.11-.28s8.2-4.2,8.2-4.2-.36-.25-.38-.25"/><path class="cls-1" d="M58.54,27A3.26,3.26,0,0,1,57,26.74s-3.63,2.3-4.31,2.68-1.77.81-.58,1,2.47.06,4.51-1.69A22.05,22.05,0,0,0,58.54,27"/><path class="cls-1" d="M70.07,25.26c-.72.38-1.61.78-1.61.78a13.73,13.73,0,0,0-.24,3.61c.11,3,.43,3.86,1.42,4.43a3.06,3.06,0,0,1,1.65,2.43c0,.39-.05.49.07.63s.12.22,0,.48-.57.33-.4.36a.8.8,0,0,0,.89-.5,1.89,1.89,0,0,0,.06-2s.52-.09.72.9c.13.62-.06.86.44,1,0,0,.07.22-.21.54s.09.18.28.09a1.19,1.19,0,0,0,.58-1.16,3.77,3.77,0,0,0-.57-1.49.93.93,0,0,1,.57.45c.21.36.18.55.68.53a.69.69,0,0,1,.24.51c0,.35-.42.6-.28.57s1.1-.38.37-1.57a1.38,1.38,0,0,0-.67-.86,6.66,6.66,0,0,0-2.51-1.32,3.9,3.9,0,0,1-.69-1,2,2,0,0,0,.1-.29,14.65,14.65,0,0,1,1.24-8.4s-1.38.81-2.1,1.19M71.38,34a4.6,4.6,0,0,1,2.28,1.19c0,.13-.59-.15-.76-.22s-.41-.09-.22.17a3.11,3.11,0,0,1,.43,1c0,.12-.13,0-.13,0A2.28,2.28,0,0,0,71.92,35c-.3-.12-.39,0-.41.16s.09.62-.14,0a3.05,3.05,0,0,0-1-1.17c-.17-.11-.09-.23-.09-.23a.44.44,0,0,1,.35-.08,1.51,1.51,0,0,1,.71.35"/><path class="cls-1" d="M56.86,37l1.53.62A1.63,1.63,0,0,0,59.08,39a1.44,1.44,0,0,1-.55.7c-.09.07-.16.09-.14.11s.08,0,.13,0A2.56,2.56,0,0,0,60.06,37a2,2,0,0,0-.69-1.38,15.47,15.47,0,0,0,3.35.16c.89-.18,0-.22,0-.22-1.85,0-3.92-.72-5-.38a2.22,2.22,0,0,0-1.5,2.06,2.35,2.35,0,0,0,.87,2.25c.07.05.15.12.16.11s-.06-.11-.08-.15A3,3,0,0,1,56.86,37"/><path class="cls-1" d="M82.41,38.87a12.89,12.89,0,0,1-3-.2l-.22.14a7.72,7.72,0,0,0,2.65.45c.29.05-.06.17-.06.17-1.54,1.27-4.11.88-7.88.88a47,47,0,0,0-9,1.29c-.52.09-1-.37-1.32-.56a6.34,6.34,0,0,0-.87-.38,71,71,0,0,1,11.7-1.53c2.86-.2,5.28.2,5.58-2a2.42,2.42,0,0,0-.3-1.61,3.33,3.33,0,0,0-1.51-1.3.74.74,0,0,0-.36,0,16.68,16.68,0,0,1-3.32.67c-.29,0-.13.12-.13.12a8.9,8.9,0,0,0,3.31-.41.48.48,0,0,1,.29,0A2.13,2.13,0,0,1,79.28,36c.62,1.69-.71,2.08-1.84,2.14s-5.9.56-7.71.66-6.59.75-8.32,1c-1.33.21-3,.32-3,.32-.46,0,.29.22,2.11.5a5.76,5.76,0,0,1,3,1.45,2.82,2.82,0,0,0,1.57.15c.74-.07,2.34-.52,3.35-.7A50.45,50.45,0,0,1,78.56,41c2.61.08,3.53-.67,4.41-1.76.42-.52-.56-.35-.56-.35"/><path class="cls-1" d="M83.64,10.65a1.64,1.64,0,0,1-.55.58c.86,0,.55-.58.55-.58"/><path class="cls-1" d="M83.64,10.65a1.64,1.64,0,0,1-.55.58c.86,0,.55-.58.55-.58"/><polygon class="cls-1" points="0.03 47.85 0.03 65.21 11.73 65.21 13.16 61.76 3.85 61.76 3.85 47.85 0.03 47.85"/><path class="cls-1" d="M25.85,57.94l-2.31-5.62-2.3,5.62Zm-4-10.09h3.52l7.44,17.36h-4l-1.59-3.89H19.87l-1.58,3.89h-3.9Z"/><polygon class="cls-1" points="43.71 51.37 38.26 51.37 38.26 47.85 52.98 47.85 52.98 51.37 47.53 51.37 47.53 65.21 43.71 65.21 43.71 51.37"/><path class="cls-1" d="M63.74,56.29a3.18,3.18,0,0,0,2.17-.67,2.27,2.27,0,0,0,.76-1.79v0a2.21,2.21,0,0,0-.8-1.86,3.49,3.49,0,0,0-2.2-.62h-3.8v5Zm-7.69-8.44H64a6.87,6.87,0,0,1,5.06,1.76,5.39,5.39,0,0,1,1.49,4v.05a5.5,5.5,0,0,1-1,3.44A6,6,0,0,1,66.81,59l4.24,6.2H66.59l-3.71-5.55h-3v5.55H56.05Z"/><path class="cls-1" d="M82,62a5.27,5.27,0,0,0,2.11-.43,4.7,4.7,0,0,0,1.65-1.16,5.51,5.51,0,0,0,1.06-1.72,5.59,5.59,0,0,0,.39-2.09v-.06a5.68,5.68,0,0,0-.39-2.1,5.29,5.29,0,0,0-7-2.93,4.8,4.8,0,0,0-1.63,1.16,5.66,5.66,0,0,0-1.46,3.83v0a5.73,5.73,0,0,0,.39,2.11A5.12,5.12,0,0,0,82,62m0,3.52a9.44,9.44,0,0,1-3.69-.71,9.18,9.18,0,0,1-2.92-1.91,8.41,8.41,0,0,1-1.9-2.82,8.86,8.86,0,0,1-.69-3.48v-.06a8.62,8.62,0,0,1,.7-3.48,8.92,8.92,0,0,1,4.84-4.79,9.61,9.61,0,0,1,3.71-.7,9.44,9.44,0,0,1,3.69.7,9.18,9.18,0,0,1,2.92,1.91A8.62,8.62,0,0,1,90.47,53a9,9,0,0,1,.68,3.49v0a8.59,8.59,0,0,1-.7,3.48,8.84,8.84,0,0,1-4.84,4.79,9.58,9.58,0,0,1-3.71.71"/><path class="cls-1" d="M101.87,61.86a3.72,3.72,0,0,0,2-.45,1.58,1.58,0,0,0,.72-1.43v0a1.65,1.65,0,0,0-.67-1.38,3.58,3.58,0,0,0-2.15-.51H97.33v3.82Zm-1-7a3.89,3.89,0,0,0,2-.44A1.47,1.47,0,0,0,103.6,53V53a1.53,1.53,0,0,0-.64-1.32,3.15,3.15,0,0,0-1.86-.46H97.33v3.67Zm-7.24-7h8a6.14,6.14,0,0,1,4.52,1.54,4,4,0,0,1,1.19,3v0a4,4,0,0,1-.67,2.34,4,4,0,0,1-.72.81,4.65,4.65,0,0,1-.87.6,5.73,5.73,0,0,1,2.37,1.55,4,4,0,0,1,.86,2.71v.05a4.4,4.4,0,0,1-.46,2.08A3.91,3.91,0,0,1,106.57,64a6.18,6.18,0,0,1-2,.89,11,11,0,0,1-2.66.3H93.61Z"/><polygon class="cls-1" points="110.81 47.85 123.87 47.85 123.87 51.25 114.58 51.25 114.58 54.77 121.37 54.77 121.37 58.17 114.58 58.17 114.58 61.82 124 61.82 124 65.21 110.81 65.21 110.81 47.85"/></g></g></svg>