<svg xmlns="http://www.w3.org/2000/svg" width="210.23" height="20.504" viewBox="0 0 210.23 20.504">
  <g id="Group_35" data-name="Group 35" transform="translate(-1423.72 -1014)">
    <path id="Path_1" data-name="Path 1" d="M271.718,270.965a1.814,1.814,0,0,1-1.755-1.78,1.868,1.868,0,0,1,1.237-1.692,6.172,6.172,0,0,0,3.9-2.758l.04-.068.056-.056a1.756,1.756,0,0,1,1.314-.594,1.9,1.9,0,0,1,1.78,1.907v.1l-.028.091C277.331,269.131,273.26,270.965,271.718,270.965Zm-4.2,0a4.419,4.419,0,0,1-1.7-.356,10.645,10.645,0,0,1-6.681-9.833,10.532,10.532,0,0,1,6.826-9.814,4.435,4.435,0,0,1,1.527-.348,1.783,1.783,0,0,1,.557,3.467,7.013,7.013,0,0,0-5.351,6.7,6.929,6.929,0,0,0,5.237,6.708c.856.061,1.311,1.024,1.311,1.726A1.731,1.731,0,0,1,267.514,270.965Zm8.994-13.4a1.756,1.756,0,0,1-1.314-.594l-.056-.057-.04-.068a6.112,6.112,0,0,0-3.835-2.739,1.884,1.884,0,0,1-1.3-1.711,1.814,1.814,0,0,1,1.755-1.78c1.542,0,5.613,1.834,6.543,4.856l.028.09v.1A1.9,1.9,0,0,1,276.508,257.563Z" transform="translate(1164.585 763.437)" fill="#fffbf7"/>
    <path id="Path_2" data-name="Path 2" d="M309.782,261.057a10.309,10.309,0,0,1,6.441-9.559,4.556,4.556,0,0,1,1.684-.349,1.712,1.712,0,0,1,1.728,1.729,1.739,1.739,0,0,1-1.223,1.722,6.472,6.472,0,0,0-5.1,6.457,6.765,6.765,0,0,0,5.075,6.469,1.666,1.666,0,0,1,1.186,1.445,1.219,1.219,0,0,1,.033.316,2.007,2.007,0,0,1-.142.732l-.023.064-.037.057a1.771,1.771,0,0,1-1.526.851,4.33,4.33,0,0,1-1.529-.323A10.309,10.309,0,0,1,309.782,261.057Zm10.523,8.23a1.764,1.764,0,0,1,1.2-1.749,6.639,6.639,0,0,0,5.139-6.48,6.747,6.747,0,0,0-5.122-6.468,1.788,1.788,0,0,1-1.221-1.574v0a1.751,1.751,0,0,1,1.728-1.889,4.892,4.892,0,0,1,1.738.376,10.309,10.309,0,0,1-.121,19.137,4.362,4.362,0,0,1-1.592.354A1.731,1.731,0,0,1,320.305,269.287Z" transform="translate(1135.454 763.143)" fill="#fffbf7"/>
    <path id="Path_3" data-name="Path 3" d="M380.473,271.067a1.732,1.732,0,0,1-1.7-1.754V252.368a1.732,1.732,0,0,1,1.7-1.755,1.756,1.756,0,0,1,1.754,1.755v16.944A1.756,1.756,0,0,1,380.473,271.067Zm-14.116,0a1.731,1.731,0,0,1-1.7-1.754V252.368a1.731,1.731,0,0,1,1.7-1.755,1.756,1.756,0,0,1,1.754,1.755v16.944A1.757,1.757,0,0,1,366.357,271.067Zm14.2-.016a1.823,1.823,0,0,1-1.337-.592l-9.982-11.875a1.837,1.837,0,0,1-.4-1.145,1.634,1.634,0,0,1,.594-1.309,1.731,1.731,0,0,1,1.135-.394,1.626,1.626,0,0,1,1.353.668l9.94,11.8a1.682,1.682,0,0,1,.4,1.12,1.825,1.825,0,0,1-.593,1.337A1.776,1.776,0,0,1,380.552,271.051Z" transform="translate(1103.893 763.437)" fill="#fffbf7"/>
    <path id="Path_4" data-name="Path 4" d="M420.343,271.094c-3.089,0-6.01-2.351-6.01-4.837a1.77,1.77,0,0,1,1.73-1.983,1.65,1.65,0,0,1,1.679,1.474,2.81,2.81,0,0,0,2.6,1.991,2.737,2.737,0,0,0,2.73-2.73c0-.966-.651-1.547-1.406-2.22l-.3-.269a1.722,1.722,0,0,1-.763-1.246,1.821,1.821,0,0,1,1.853-1.868,1.8,1.8,0,0,1,.983.319l.294.2a6.032,6.032,0,0,1-3.392,11.167Zm-1.681-9.962a2.039,2.039,0,0,1-1.181-.3,5.464,5.464,0,0,1-2.714-4.84,5.3,5.3,0,0,1,5.5-5.194c3.878,0,5.144,2.858,5.144,3.843a1.722,1.722,0,0,1-1.831,1.805,2.085,2.085,0,0,1-1.552-1.118,1.94,1.94,0,0,0-1.786-1.1,1.819,1.819,0,0,0-1.787,1.711,2.02,2.02,0,0,0,1.017,1.954,1.758,1.758,0,0,1,.843,1.511,1.734,1.734,0,0,1-1.624,1.728h-.028Z" transform="translate(1075.318 763.332)" fill="#fffbf7"/>
    <path id="Path_5" data-name="Path 5" d="M447.105,261.058a10.308,10.308,0,0,1,6.441-9.558,4.578,4.578,0,0,1,1.684-.35,1.713,1.713,0,0,1,1.729,1.73,1.738,1.738,0,0,1-1.223,1.721,6.471,6.471,0,0,0-5.1,6.457,6.767,6.767,0,0,0,5.075,6.469,1.666,1.666,0,0,1,1.186,1.444,1.223,1.223,0,0,1,.033.316,2.007,2.007,0,0,1-.142.732l-.024.063-.037.057a1.772,1.772,0,0,1-1.526.852,4.323,4.323,0,0,1-1.53-.324A10.306,10.306,0,0,1,447.105,261.058Zm10.523,8.23a1.764,1.764,0,0,1,1.2-1.749,6.64,6.64,0,0,0,5.14-6.48,6.748,6.748,0,0,0-5.122-6.468,1.786,1.786,0,0,1-1.221-1.574v0a1.751,1.751,0,0,1,1.728-1.889,4.905,4.905,0,0,1,1.737.376,10.31,10.31,0,0,1-.12,19.138,4.373,4.373,0,0,1-1.592.353A1.732,1.732,0,0,1,457.628,269.287Z" transform="translate(1056.469 763.143)" fill="#fffbf7"/>
    <path id="Path_6" data-name="Path 6" d="M504.2,270.931a1.757,1.757,0,0,1-1.755-1.755V252.309a1.768,1.768,0,0,1,3.535,0v16.868A1.749,1.749,0,0,1,504.2,270.931Zm4.485-.2a1.757,1.757,0,0,1-1.755-1.755c0-1.729,1.926-1.729,2.749-1.729h2.8c2,0,2.417.94,2.417,1.729,0,1.755-1.854,1.755-2.646,1.755Z" transform="translate(1024.64 763.47)" fill="#fffbf7"/>
    <path id="Path_7" data-name="Path 7" d="M540.076,270.922a1.77,1.77,0,0,1-1.755-1.78V252.25a1.768,1.768,0,0,1,3.535,0v16.893A1.782,1.782,0,0,1,540.076,270.922Z" transform="translate(1004.003 763.505)" fill="#fffbf7"/>
    <path id="Path_8" data-name="Path 8" d="M555.619,270.922a1.77,1.77,0,0,1-1.755-1.78V252.25a1.768,1.768,0,0,1,3.535,0v16.893A1.782,1.782,0,0,1,555.619,270.922Zm4.382-.229c-1.681,0-1.933-1.1-1.933-1.755a1.711,1.711,0,0,1,1.857-1.754h1.427c3.9,0,6.73-2.692,6.73-6.4,0-3.813-2.767-6.476-6.73-6.476h-1.427a1.711,1.711,0,0,1-1.857-1.754,1.734,1.734,0,0,1,1.857-1.805l.652.016c.658.015,1.306.03,1.953.089a9.9,9.9,0,0,1,.106,19.733C561.857,270.658,561,270.693,560,270.693Z" transform="translate(995.063 763.505)" fill="#fffbf7"/>
    <path id="Path_9" data-name="Path 9" d="M614.132,270.9a1.755,1.755,0,0,1-1.608-1.061c-.373-.864-1.04-2.339-1.83-4.061h-4.456a1.742,1.742,0,1,1,0-3.483h2.826c-.339-.733-.684-1.474-1.023-2.2-1.246-2.678-2.52-5.368-3.187-7.074-.046-.141-.068-.2-.083-.24a1.18,1.18,0,0,1-.09-.5,1.782,1.782,0,0,1,1.78-1.78,1.723,1.723,0,0,1,1.567.977c1.884,4.051,3.567,7.759,5.2,11.364.845,1.861,1.678,3.695,2.519,5.534a1.746,1.746,0,0,1,.16.773A1.729,1.729,0,0,1,614.132,270.9Zm-14.753,0a1.729,1.729,0,0,1-1.781-1.755,1.762,1.762,0,0,1,.17-.793c1.871-4.091,2.261-4.954,3.553-7.818l1.394-3.071a1.783,1.783,0,0,1,3.377.8,1.468,1.468,0,0,1-.058.384l-.04.131c-.73,1.824-1.635,3.732-2.748,6.1-.866,1.842-1.684,3.583-2.264,4.972A1.752,1.752,0,0,1,599.379,270.9Z" transform="translate(969.908 763.505)" fill="#fffbf7"/>
    <path id="Path_10" data-name="Path 10" d="M643.2,271.266a1.77,1.77,0,0,1-1.755-1.78V256.95a1.768,1.768,0,0,1,3.535,0v12.536A1.782,1.782,0,0,1,643.2,271.266ZM637.954,254.7a1.808,1.808,0,0,1-1.781-1.831,1.783,1.783,0,0,1,1.781-1.78H648.12a1.8,1.8,0,0,1,1.805,1.78,1.82,1.82,0,0,1-1.805,1.831Z" transform="translate(947.721 763.16)" fill="#fffbf7"/>
    <path id="Path_11" data-name="Path 11" d="M675.833,270.9a1.757,1.757,0,0,1-1.755-1.755V252.275a1.78,1.78,0,0,1,3.56,0v16.868A1.762,1.762,0,0,1,675.833,270.9Zm4.484-.2a1.757,1.757,0,0,1-1.755-1.755c0-1.729,1.892-1.729,2.8-1.729h3.821c.636,0,2.571,0,2.571,1.729,0,1.755-1.892,1.755-2.8,1.755Zm0-8.281a1.757,1.757,0,0,1-1.755-1.754c0-1.754,1.908-1.754,2.825-1.754h3.975c2.007,0,2.163,1.343,2.163,1.754,0,1.754-1.907,1.754-2.825,1.754Zm0-8.178a1.781,1.781,0,0,1-1.755-1.755,1.757,1.757,0,0,1,1.755-1.755h5.656a1.769,1.769,0,0,1,1.78,1.755,1.792,1.792,0,0,1-1.78,1.755Z" transform="translate(925.919 763.505)" fill="#fffbf7"/>
    <path id="Path_12" data-name="Path 12" d="M713.907,270.922a1.77,1.77,0,0,1-1.755-1.78V252.25a1.768,1.768,0,0,1,3.535,0v16.893A1.782,1.782,0,0,1,713.907,270.922Zm4.382-.229c-1.681,0-1.933-1.1-1.933-1.755a1.711,1.711,0,0,1,1.856-1.754h1.427c3.9,0,6.73-2.692,6.73-6.4,0-3.813-2.767-6.476-6.73-6.476h-1.427a1.711,1.711,0,0,1-1.856-1.754,1.734,1.734,0,0,1,1.856-1.805l.652.016c.659.015,1.306.03,1.953.089a9.9,9.9,0,0,1,.106,19.733C720.145,270.658,719.285,270.693,718.289,270.693Z" transform="translate(904.019 763.505)" fill="#fffbf7"/>
  </g>
</svg>
