<svg xmlns="http://www.w3.org/2000/svg" viewBox="0 0 377.02 92.73"><defs><style>.cls-1{fill:#333;}</style></defs><g id="Layer_2" data-name="Layer 2"><g id="Main_1:1_" data-name="Main (1:1)"><path class="cls-1" d="M87.93,90.88H78.55V34.75C78.55,26,71.88,19,63.69,19c-8.36,0-14.91,6.93-14.91,15.79V90.88H39.2V34.75c0-9-6.4-15.79-14.9-15.79S9.38,25.89,9.38,34.75V90.88H0V34.75C0,24,9.09,12.88,24.29,12.88a24.86,24.86,0,0,1,19.7,9,24.88,24.88,0,0,1,19.65-9c15.21,0,24.29,11.14,24.29,21.87V90.88Z"/><path class="cls-1" d="M120.81,92.73c-17.15,0-27.42-11.65-27.43-22.9s9.21-22.92,24.62-23h20.82V37.64c0-9.85-9.31-16.47-18-16.47H103.52V14.72h17.29c17.16,0,27.41,11.65,27.41,22.92V69.8c0,11.27-10.25,22.93-27.41,22.93Zm18-39.39H118c-7.19,0-15.22,6.81-15.23,16.47,0,10.39,9.36,16.82,18,16.82,8.85,0,18-6.29,18-16.83V53.34Z"/><path class="cls-1" d="M306.22,92.73c-17.15,0-27.42-11.65-27.43-22.9s9.21-22.92,24.62-23h20.82V37.64c0-10.4-9.35-16.84-18-16.84H288.93V14.72h17.29c17.16,0,27.42,11.65,27.42,22.92v9.24H377V53H333.64V69.8c0,11.27-10.26,22.93-27.42,22.93Zm18-39.76H303.42c-7.17,0-15.22,7.25-15.23,16.84,0,10.39,9.36,16.82,18,16.82s18-6.43,18-16.83V53Z"/><path class="cls-1" d="M210,90.88H200.6V35.76c0-9.42-7.91-16.8-18-16.8-9.94,0-18,7.53-18,16.8V90.88h-9.4V35.76c0-11.25,10.26-22.88,27.42-22.88S210,24.51,210,35.76V90.88Z"/><path class="cls-1" d="M238.46,92.73c-12.34,0-19.71-8.51-19.71-16.74V0h9.44V14.68h13.75v6.17H228.19V76c0,7,5.17,10.64,10.27,10.64a10,10,0,0,0,1.88-.17l1.56-.27v6.32l-1.2.11c-.84.07-1.55.11-2.24.11Z"/><path class="cls-1" d="M248.72,90.87V14.69h9.39v5.42c3.82-2.78,9.69-5.43,18.16-5.43h10.32v6.18H276.26c-8.73,0-18.16,6.41-18.16,16.76l.06,53.24Z"/></g></g></svg>