<svg xmlns="http://www.w3.org/2000/svg" viewBox="0 0 435.31 325.79"><defs><style>.cls-1{fill:#58595b;}</style></defs><g id="Layer_2" data-name="Layer 2"><g id="Layer_1_1:1_" data-name="Layer 1 (1:1)"><path class="cls-1" d="M11.76,43.45a2,2,0,1,1-2.87.07,2,2,0,0,1,2.87-.07"/><path class="cls-1" d="M3.54,52.07a2,2,0,1,1-2.87.07,2,2,0,0,1,2.87-.07"/><path class="cls-1" d="M19.61,35.21a2,2,0,0,1,.07,2.88,2,2,0,1,1-.07-2.88"/><path class="cls-1" d="M27.47,27a2,2,0,1,1-2.88.07A2,2,0,0,1,27.47,27"/><path class="cls-1" d="M35.32,18.74a2,2,0,0,1,.07,2.88,2,2,0,1,1-.07-2.88"/><path class="cls-1" d="M43.17,10.51a2,2,0,1,1-2.87.07,2,2,0,0,1,2.87-.07"/><path class="cls-1" d="M3.43,67.64a2,2,0,1,1-2.87.07,2,2,0,0,1,2.87-.07"/><path class="cls-1" d="M66.82,1.17A2,2,0,1,1,64,1.24a2,2,0,0,1,2.87-.07"/><path class="cls-1" d="M4.05,84.07a2,2,0,1,1-2.87.07,2,2,0,0,1,2.87-.07"/><path class="cls-1" d="M12.25,75.46a2.44,2.44,0,1,1-3.44.09,2.44,2.44,0,0,1,3.44-.09"/><path class="cls-1" d="M20.73,66.57a3.25,3.25,0,1,1-4.59.11,3.24,3.24,0,0,1,4.59-.11"/><path class="cls-1" d="M28.66,58.26a3.25,3.25,0,1,1-4.6.11,3.25,3.25,0,0,1,4.6-.11"/><path class="cls-1" d="M36.58,50a3.25,3.25,0,1,1-4.59.11A3.24,3.24,0,0,1,36.58,50"/><path class="cls-1" d="M44.5,41.64a3.25,3.25,0,1,1-4.59.11,3.24,3.24,0,0,1,4.59-.11"/><path class="cls-1" d="M52.43,33.33a3.25,3.25,0,1,1-4.6.11,3.26,3.26,0,0,1,4.6-.11"/><path class="cls-1" d="M60.35,25a3.25,3.25,0,1,1-4.59.11A3.25,3.25,0,0,1,60.35,25"/><path class="cls-1" d="M68.27,16.71a3.25,3.25,0,1,1-4.59.11,3.25,3.25,0,0,1,4.59-.11"/><path class="cls-1" d="M86.05,128.84a3.25,3.25,0,1,1-4.6.11,3.27,3.27,0,0,1,4.6-.11"/><path class="cls-1" d="M94,120.54a3.25,3.25,0,1,1-4.59.1,3.24,3.24,0,0,1,4.59-.1"/><path class="cls-1" d="M101.89,112.23a3.25,3.25,0,1,1-4.59.11,3.24,3.24,0,0,1,4.59-.11"/><path class="cls-1" d="M109.82,103.92a3.25,3.25,0,1,1-4.6.11,3.25,3.25,0,0,1,4.6-.11"/><path class="cls-1" d="M117.74,95.61a3.25,3.25,0,1,1-4.59.11,3.24,3.24,0,0,1,4.59-.11"/><path class="cls-1" d="M125.66,87.3a3.25,3.25,0,1,1-4.59.11,3.24,3.24,0,0,1,4.59-.11"/><path class="cls-1" d="M133.58,79a3.25,3.25,0,1,1-4.59.11,3.24,3.24,0,0,1,4.59-.11"/><path class="cls-1" d="M75.64,9a2.44,2.44,0,1,1-3.45.08A2.44,2.44,0,0,1,75.64,9"/><path class="cls-1" d="M83.28,1a2,2,0,1,1-2.87.07A2,2,0,0,1,83.28,1"/><path class="cls-1" d="M4.26,100.11a2,2,0,1,1-2.87.07,2,2,0,0,1,2.87-.07"/><path class="cls-1" d="M12.45,91.52A2.44,2.44,0,1,1,9,91.6a2.42,2.42,0,0,1,3.44-.08"/><path class="cls-1" d="M20.64,99.33a2.43,2.43,0,1,1-3.44.08,2.43,2.43,0,0,1,3.44-.08"/><path class="cls-1" d="M28.64,107a2.44,2.44,0,1,1-3.44.08,2.42,2.42,0,0,1,3.44-.08"/><path class="cls-1" d="M36.82,114.75a2.44,2.44,0,1,1-3.45.09,2.45,2.45,0,0,1,3.45-.09"/><path class="cls-1" d="M45.22,122.77a2.43,2.43,0,1,1-3.44.08,2.42,2.42,0,0,1,3.44-.08"/><path class="cls-1" d="M53,130.21a2.43,2.43,0,1,1-3.44.08,2.42,2.42,0,0,1,3.44-.08"/><path class="cls-1" d="M61,137.8a2.44,2.44,0,1,1-3.44.08A2.44,2.44,0,0,1,61,137.8"/><path class="cls-1" d="M91.55,8.56a2.44,2.44,0,1,1-3.44.08,2.45,2.45,0,0,1,3.44-.08"/><path class="cls-1" d="M99.74,16.37a2.44,2.44,0,1,1-3.44.08,2.44,2.44,0,0,1,3.44-.08"/><path class="cls-1" d="M107.74,24a2.44,2.44,0,1,1-3.44.08,2.44,2.44,0,0,1,3.44-.08"/><path class="cls-1" d="M115.92,31.8a2.44,2.44,0,1,1-3.45.08,2.44,2.44,0,0,1,3.45-.08"/><path class="cls-1" d="M124.32,39.81a2.44,2.44,0,1,1-3.44.08,2.44,2.44,0,0,1,3.44-.08"/><path class="cls-1" d="M132.13,47.25a2.44,2.44,0,1,1-3.45.08,2.44,2.44,0,0,1,3.45-.08"/><path class="cls-1" d="M140.09,54.85a2.43,2.43,0,1,1-3.45.08,2.42,2.42,0,0,1,3.45-.08"/><path class="cls-1" d="M20.92,82.64a3.25,3.25,0,1,1-4.59.1,3.24,3.24,0,0,1,4.59-.1"/><path class="cls-1" d="M29.11,90.44a3.25,3.25,0,1,1-4.59.11,3.25,3.25,0,0,1,4.59-.11"/><path class="cls-1" d="M37.11,98.07a3.25,3.25,0,1,1-4.59.11,3.25,3.25,0,0,1,4.59-.11"/><path class="cls-1" d="M45.29,105.87a3.25,3.25,0,1,1-4.59.11,3.24,3.24,0,0,1,4.59-.11"/><path class="cls-1" d="M53.69,113.88a3.25,3.25,0,1,1-4.59.11,3.25,3.25,0,0,1,4.59-.11"/><path class="cls-1" d="M61.5,121.32a3.25,3.25,0,1,1-4.6.11,3.26,3.26,0,0,1,4.6-.11"/><path class="cls-1" d="M69.46,128.92a3.25,3.25,0,1,1-4.59.11,3.24,3.24,0,0,1,4.59-.11"/><path class="cls-1" d="M84.2,16.27a3.25,3.25,0,1,1-4.59.11,3.24,3.24,0,0,1,4.59-.11"/><path class="cls-1" d="M92.39,24.08a3.25,3.25,0,1,1-4.59.11,3.24,3.24,0,0,1,4.59-.11"/><path class="cls-1" d="M100.4,31.71a3.25,3.25,0,1,1-4.6.11,3.25,3.25,0,0,1,4.6-.11"/><path class="cls-1" d="M108.57,39.51a3.25,3.25,0,1,1-4.59.11,3.24,3.24,0,0,1,4.59-.11"/><path class="cls-1" d="M117,47.52a3.25,3.25,0,1,1-4.59.11,3.24,3.24,0,0,1,4.59-.11"/><path class="cls-1" d="M124.78,55a3.25,3.25,0,1,1-4.6.11,3.26,3.26,0,0,1,4.6-.11"/><path class="cls-1" d="M132.74,62.55a3.25,3.25,0,1,1-4.59.11,3.25,3.25,0,0,1,4.59-.11"/><path class="cls-1" d="M76.57,24.27a3.65,3.65,0,1,1-5.16.13,3.66,3.66,0,0,1,5.16-.13"/><path class="cls-1" d="M84.76,32.08a3.65,3.65,0,1,1-5.16.12,3.66,3.66,0,0,1,5.16-.12"/><path class="cls-1" d="M92.77,39.71a3.66,3.66,0,1,1-5.17.13,3.66,3.66,0,0,1,5.17-.13"/><path class="cls-1" d="M100.94,47.51a3.65,3.65,0,1,1-5.17.12,3.65,3.65,0,0,1,5.17-.12"/><path class="cls-1" d="M109.34,55.52a3.65,3.65,0,1,1-5.16.12,3.66,3.66,0,0,1,5.16-.12"/><path class="cls-1" d="M117.15,63a3.66,3.66,0,1,1-5.17.13,3.66,3.66,0,0,1,5.17-.13"/><path class="cls-1" d="M125.11,70.56a3.65,3.65,0,1,1-5.17.12,3.64,3.64,0,0,1,5.17-.12"/><path class="cls-1" d="M29.11,74.05a3.65,3.65,0,1,1-5.17.12,3.64,3.64,0,0,1,5.17-.12"/><path class="cls-1" d="M37,65.75a3.65,3.65,0,1,1-5.16.12A3.66,3.66,0,0,1,37,65.75"/><path class="cls-1" d="M44.93,57.45a3.66,3.66,0,1,1-5.16.13,3.66,3.66,0,0,1,5.16-.13"/><path class="cls-1" d="M52.84,49.16a3.65,3.65,0,1,1-5.16.12,3.66,3.66,0,0,1,5.16-.12"/><path class="cls-1" d="M60.75,40.86a3.65,3.65,0,1,1-5.16.13,3.66,3.66,0,0,1,5.16-.13"/><path class="cls-1" d="M68.66,32.57a3.65,3.65,0,1,1-5.16.12,3.66,3.66,0,0,1,5.16-.12"/><path class="cls-1" d="M85.56,112a3.65,3.65,0,1,1-5.17.13,3.65,3.65,0,0,1,5.17-.13"/><path class="cls-1" d="M93.47,103.74a3.65,3.65,0,1,1-5.17.12,3.65,3.65,0,0,1,5.17-.12"/><path class="cls-1" d="M101.38,95.44a3.65,3.65,0,1,1-5.17.13,3.65,3.65,0,0,1,5.17-.13"/><path class="cls-1" d="M109.29,87.15a3.65,3.65,0,1,1-5.17.12,3.64,3.64,0,0,1,5.17-.12"/><path class="cls-1" d="M117.2,78.85A3.65,3.65,0,1,1,112,79a3.65,3.65,0,0,1,5.17-.12"/><path class="cls-1" d="M37.3,81.85a3.66,3.66,0,1,1-5.17.13,3.65,3.65,0,0,1,5.17-.13"/><path class="cls-1" d="M45.3,89.49a3.65,3.65,0,1,1-5.16.12,3.65,3.65,0,0,1,5.16-.12"/><path class="cls-1" d="M53.48,97.28a3.65,3.65,0,1,1-5.17.12,3.65,3.65,0,0,1,5.17-.12"/><path class="cls-1" d="M61.88,105.29a3.65,3.65,0,1,1-5.16.13,3.66,3.66,0,0,1,5.16-.13"/><path class="cls-1" d="M69.69,112.73a3.66,3.66,0,1,1-5.17.13,3.66,3.66,0,0,1,5.17-.13"/><path class="cls-1" d="M77.65,120.33a3.65,3.65,0,1,1-5.17.12,3.65,3.65,0,0,1,5.17-.12"/><path class="cls-1" d="M99.18.56a2,2,0,1,1-2.87.07A2,2,0,0,1,99.18.56"/><path class="cls-1" d="M12.45,107.92a2,2,0,1,1-2.87.07,2,2,0,0,1,2.87-.07"/><path class="cls-1" d="M45.53,73.22a4.12,4.12,0,1,1-5.82.14,4.12,4.12,0,0,1,5.82-.14"/><path class="cls-1" d="M53.44,64.93a4.12,4.12,0,1,1-5.82.14,4.11,4.11,0,0,1,5.82-.14"/><path class="cls-1" d="M61.35,56.63a4.12,4.12,0,1,1-5.82.14,4.12,4.12,0,0,1,5.82-.14"/><path class="cls-1" d="M69.26,48.34a4.12,4.12,0,1,1-5.82.13,4.11,4.11,0,0,1,5.82-.13"/><path class="cls-1" d="M77.17,40a4.12,4.12,0,1,1-5.82.14A4.12,4.12,0,0,1,77.17,40"/><path class="cls-1" d="M107.37,8.37a2,2,0,1,1-2.87.07,2,2,0,0,1,2.87-.07"/><path class="cls-1" d="M20.45,115.55a2,2,0,1,1-2.87.07,2,2,0,0,1,2.87-.07"/><path class="cls-1" d="M53.53,80.85a4.12,4.12,0,1,1-5.82.14,4.12,4.12,0,0,1,5.82-.14"/><path class="cls-1" d="M61.44,72.56a4.12,4.12,0,1,1-5.82.14,4.11,4.11,0,0,1,5.82-.14"/><path class="cls-1" d="M69.36,64.26a4.12,4.12,0,1,1-5.83.14,4.13,4.13,0,0,1,5.83-.14"/><path class="cls-1" d="M77.27,56a4.12,4.12,0,1,1-5.83.14A4.12,4.12,0,0,1,77.27,56"/><path class="cls-1" d="M85.18,47.67a4.12,4.12,0,1,1-5.83.14,4.13,4.13,0,0,1,5.83-.14"/><path class="cls-1" d="M115.37,16a2,2,0,1,1-2.87.07,2,2,0,0,1,2.87-.07"/><path class="cls-1" d="M28.63,123.34a2,2,0,0,1,.07,2.88,2,2,0,1,1-.07-2.88"/><path class="cls-1" d="M61.71,88.65a4.12,4.12,0,1,1-5.82.14,4.12,4.12,0,0,1,5.82-.14"/><path class="cls-1" d="M69.62,80.35a4.12,4.12,0,1,1-5.82.14,4.12,4.12,0,0,1,5.82-.14"/><path class="cls-1" d="M77.53,72.06a4.12,4.12,0,1,1-5.82.14,4.11,4.11,0,0,1,5.82-.14"/><path class="cls-1" d="M85.44,63.76a4.12,4.12,0,1,1-5.82.14,4.12,4.12,0,0,1,5.82-.14"/><path class="cls-1" d="M93.35,55.47a4.12,4.12,0,1,1-5.82.14,4.11,4.11,0,0,1,5.82-.14"/><path class="cls-1" d="M123.55,23.8a2,2,0,1,1-2.87.07,2,2,0,0,1,2.87-.07"/><path class="cls-1" d="M37,131.36a2,2,0,1,1-2.87.06,2,2,0,0,1,2.87-.06"/><path class="cls-1" d="M70.11,96.66a4.12,4.12,0,1,1-5.82.14,4.12,4.12,0,0,1,5.82-.14"/><path class="cls-1" d="M78,88.37a4.12,4.12,0,1,1-5.82.13A4.11,4.11,0,0,1,78,88.37"/><path class="cls-1" d="M85.93,80.07a4.12,4.12,0,1,1-5.82.14,4.12,4.12,0,0,1,5.82-.14"/><path class="cls-1" d="M93.84,71.78a4.12,4.12,0,1,1-5.82.13,4.11,4.11,0,0,1,5.82-.13"/><path class="cls-1" d="M101.75,63.48a4.12,4.12,0,1,1-5.82.14,4.11,4.11,0,0,1,5.82-.14"/><path class="cls-1" d="M132,31.81a2,2,0,1,1-2.87.07,2,2,0,0,1,2.87-.07"/><path class="cls-1" d="M44.83,138.8a2,2,0,1,1-2.87.07,2,2,0,0,1,2.87-.07"/><path class="cls-1" d="M77.92,104.1a4.12,4.12,0,1,1-5.83.14,4.12,4.12,0,0,1,5.83-.14"/><path class="cls-1" d="M85.83,95.81A4.12,4.12,0,1,1,80,96a4.11,4.11,0,0,1,5.83-.14"/><path class="cls-1" d="M93.74,87.51a4.12,4.12,0,1,1-5.83.14,4.12,4.12,0,0,1,5.83-.14"/><path class="cls-1" d="M101.65,79.22a4.12,4.12,0,1,1-5.83.13,4.11,4.11,0,0,1,5.83-.13"/><path class="cls-1" d="M109.56,70.92a4.12,4.12,0,1,1-5.83.14,4.12,4.12,0,0,1,5.83-.14"/><path class="cls-1" d="M139.76,39.25a2,2,0,1,1-2.88.07,2,2,0,0,1,2.88-.07"/><path class="cls-1" d="M69.36,146.34a2,2,0,0,1,.07,2.88,2,2,0,1,1-.07-2.88"/><path class="cls-1" d="M77.56,137.74a2.44,2.44,0,1,1-3.44.08,2.45,2.45,0,0,1,3.44-.08"/><path class="cls-1" d="M141,71.27a2.44,2.44,0,1,1-3.45.08,2.43,2.43,0,0,1,3.45-.08"/><path class="cls-1" d="M148.59,63.25a2,2,0,0,1,.07,2.88,2,2,0,1,1-.07-2.88"/><path class="cls-1" d="M85.06,145.48a2,2,0,1,1-2.87.07,2,2,0,0,1,2.87-.07"/><path class="cls-1" d="M140.81,87a2.44,2.44,0,1,1-3.45.08,2.44,2.44,0,0,1,3.45-.08"/><path class="cls-1" d="M132.88,95.33a2.44,2.44,0,1,1-3.44.08,2.42,2.42,0,0,1,3.44-.08"/><path class="cls-1" d="M125,103.64a2.44,2.44,0,1,1-3.45.08,2.44,2.44,0,0,1,3.45-.08"/><path class="cls-1" d="M117,112a2.44,2.44,0,1,1-3.45.08A2.43,2.43,0,0,1,117,112"/><path class="cls-1" d="M109.11,120.26a2.44,2.44,0,1,1-3.44.08,2.43,2.43,0,0,1,3.44-.08"/><path class="cls-1" d="M101.19,128.57a2.43,2.43,0,1,1-3.45.08,2.43,2.43,0,0,1,3.45-.08"/><path class="cls-1" d="M93.27,136.88a2.44,2.44,0,1,1-3.45.08,2.43,2.43,0,0,1,3.45-.08"/><path class="cls-1" d="M59.18,9.18a2.44,2.44,0,1,1-3.45.09,2.44,2.44,0,0,1,3.45-.09"/><path class="cls-1" d="M51.25,17.49a2.44,2.44,0,1,1-3.44.08,2.44,2.44,0,0,1,3.44-.08"/><path class="cls-1" d="M43.33,25.8a2.44,2.44,0,1,1-3.45.08,2.44,2.44,0,0,1,3.45-.08"/><path class="cls-1" d="M35.41,34.11a2.44,2.44,0,1,1-3.45.08,2.43,2.43,0,0,1,3.45-.08"/><path class="cls-1" d="M27.48,42.42A2.44,2.44,0,1,1,24,42.5a2.42,2.42,0,0,1,3.44-.08"/><path class="cls-1" d="M19.56,50.73a2.44,2.44,0,1,1-3.45.08,2.43,2.43,0,0,1,3.45-.08"/><path class="cls-1" d="M11.64,59a2.44,2.44,0,1,1-3.45.08A2.43,2.43,0,0,1,11.64,59"/><path class="cls-1" d="M148.45,79a2,2,0,1,1-2.87.06,2,2,0,0,1,2.87-.06"/><path class="cls-1" d="M101.38,144.63a2,2,0,1,1-2.87.07,2,2,0,0,1,2.87-.07"/><path class="cls-1" d="M109.22,136.41a2,2,0,1,1-2.88.07,2,2,0,0,1,2.88-.07"/><path class="cls-1" d="M117.05,128.2a2,2,0,1,1-2.87.06,2,2,0,0,1,2.87-.06"/><path class="cls-1" d="M124.89,120a2,2,0,1,1-2.87.07,2,2,0,0,1,2.87-.07"/><path class="cls-1" d="M132.72,111.76a2,2,0,1,1-2.87.07,2,2,0,0,1,2.87-.07"/><path class="cls-1" d="M140.56,103.54a2,2,0,1,1-2.87.07,2,2,0,0,1,2.87-.07"/><path class="cls-1" d="M51.17,2.12a2,2,0,1,1-2.87.07,2,2,0,0,1,2.87-.07"/><path class="cls-1" d="M148.56,95.16a2,2,0,1,1-2.88.07,2,2,0,0,1,2.88-.07"/><path class="cls-1" d="M250.39,2.72a1,1,0,0,0,.27-.71.93.93,0,0,0-.31-.7,1,1,0,0,0-.68-.28,1,1,0,0,0-.73.31,1,1,0,0,0-.27.72,1,1,0,0,0,.31.69,1,1,0,0,0,1.41,0"/><path class="cls-1" d="M258.58,10.53a1,1,0,0,0,0-1.41,1,1,0,0,0-.68-.28,1,1,0,0,0-.69,1.72,1,1,0,0,0,1.41,0"/><path class="cls-1" d="M250,31.85a2.23,2.23,0,0,0-1.61.68,2.26,2.26,0,0,0-.61,1.58,2.19,2.19,0,0,0,.69,1.55,2.26,2.26,0,0,0,3.13-.07,2.22,2.22,0,0,0-.07-3.13,2.2,2.2,0,0,0-1.53-.61"/><path class="cls-1" d="M259,26.74a1.41,1.41,0,0,0,0-2,1.42,1.42,0,0,0-1-.39,1.4,1.4,0,0,0-1,2.42,1.43,1.43,0,0,0,2,0"/><path class="cls-1" d="M251,19.1a1.4,1.4,0,0,0-.05-2,1.38,1.38,0,0,0-1-.39,1.41,1.41,0,0,0-1,.44,1.37,1.37,0,0,0-.39,1,1.41,1.41,0,0,0,2.42.93"/><path class="cls-1" d="M235.45,20.15a2.21,2.21,0,0,0,.61-1.58,2.19,2.19,0,0,0-.69-1.55,2.16,2.16,0,0,0-1.52-.61,2.2,2.2,0,0,0-2.22,2.27,2.25,2.25,0,0,0,.69,1.55,2.27,2.27,0,0,0,3.13-.08"/><path class="cls-1" d="M258.21,39.64a2.21,2.21,0,0,0-1.52,3.82,2.27,2.27,0,0,0,3.13-.07,2.21,2.21,0,0,0,.61-1.58,2.24,2.24,0,0,0-2.22-2.17"/><path class="cls-1" d="M226.85,11.72a1.39,1.39,0,0,0,0-2,1.42,1.42,0,0,0-1-.39,1.4,1.4,0,0,0-1,2.42,1.42,1.42,0,0,0,2,0"/><path class="cls-1" d="M234.48,3.14a1,1,0,0,0,0-1.42,1,1,0,0,0-.69-.27,1,1,0,0,0-.72.31,1,1,0,0,0-.28.71,1,1,0,0,0,1.72.67"/><path class="cls-1" d="M242.77,11.3a1.41,1.41,0,0,0-.05-2,1.38,1.38,0,0,0-1-.39,1.4,1.4,0,0,0-1,2.42,1.43,1.43,0,0,0,2,0"/><path class="cls-1" d="M242,24.22A2.21,2.21,0,0,0,240.51,28a2.26,2.26,0,0,0,3.13-.07,2.21,2.21,0,0,0-.08-3.13,2.16,2.16,0,0,0-1.53-.61"/><path class="cls-1" d="M274.53,40.17a1.4,1.4,0,0,0-1,2.42,1.42,1.42,0,0,0,2-.05,1.41,1.41,0,0,0-1-2.37"/><path class="cls-1" d="M283.35,50a1.4,1.4,0,1,0-2,.05,1.43,1.43,0,0,0,2-.05"/><path class="cls-1" d="M283.16,34a1,1,0,0,0,.27-.71.93.93,0,0,0-.31-.7,1,1,0,0,0-.68-.28,1,1,0,0,0-.69,1.72,1,1,0,0,0,1.41,0"/><path class="cls-1" d="M284,66.44a2.22,2.22,0,0,0-.08-3.14,2.2,2.2,0,0,0-1.52-.61,2.17,2.17,0,0,0-1.61.69,2.21,2.21,0,0,0,.08,3.13,2.27,2.27,0,0,0,3.13-.07"/><path class="cls-1" d="M276.37,75a2.62,2.62,0,1,0-3.71.09,2.7,2.7,0,0,0,3.71-.09"/><path class="cls-1" d="M268.46,83.31a2.61,2.61,0,0,0,.72-1.88,2.55,2.55,0,0,0-.81-1.83,2.59,2.59,0,0,0-1.81-.72,2.56,2.56,0,0,0-1.89.81,2.6,2.6,0,0,0,.09,3.7,2.68,2.68,0,0,0,3.7-.08"/><path class="cls-1" d="M218,3.32a1,1,0,0,0,.28-.71,1,1,0,0,0-.31-.7,1,1,0,0,0-.69-.27,1,1,0,0,0-.72.31,1,1,0,0,0,0,1.41,1,1,0,0,0,1.41,0"/><path class="cls-1" d="M266.58,18.16a1,1,0,0,0,0-1.41,1,1,0,0,0-.69-.28,1,1,0,0,0-.72.31,1,1,0,0,0,0,1.41,1,1,0,0,0,1.41,0"/><path class="cls-1" d="M274.42,55.1a2.21,2.21,0,0,0-1.53,3.82,2.27,2.27,0,0,0,3.13-.08,2.21,2.21,0,0,0-.07-3.13,2.18,2.18,0,0,0-1.53-.61"/><path class="cls-1" d="M260.55,91.6a2.65,2.65,0,0,0,.73-1.87A2.62,2.62,0,0,0,256.76,88a2.63,2.63,0,0,0,.08,3.71,2.68,2.68,0,0,0,3.71-.09"/><path class="cls-1" d="M274.76,26a1,1,0,0,0,0-1.41,1,1,0,0,0-.69-.28,1,1,0,0,0-.68,1.72,1,1,0,0,0,1.41,0"/><path class="cls-1" d="M267.14,34.53a1.4,1.4,0,0,0-.05-2,1.38,1.38,0,0,0-1-.39,1.4,1.4,0,0,0-1,2.42,1.43,1.43,0,0,0,2,0"/><path class="cls-1" d="M266.62,47.65a2.21,2.21,0,0,0-1.53,3.82,2.27,2.27,0,0,0,3.13-.07,2.21,2.21,0,0,0-.08-3.13,2.17,2.17,0,0,0-1.52-.62"/><path class="cls-1" d="M170.78,53.46a1.4,1.4,0,0,0-.05-2,1.39,1.39,0,0,0-1-.39,1.36,1.36,0,0,0-1,.43,1.41,1.41,0,0,0,0,2,1.44,1.44,0,0,0,2,0"/><path class="cls-1" d="M163,45.61a1,1,0,0,0,.27-.71,1,1,0,0,0-1-1,1,1,0,0,0-.68,1.72,1,1,0,0,0,1.41,0"/><path class="cls-1" d="M172,70.45a2.22,2.22,0,1,0-3.13.07,2.26,2.26,0,0,0,3.13-.07"/><path class="cls-1" d="M170.82,37.37a1,1,0,0,0,0-1.41,1,1,0,0,0-.69-.27,1,1,0,0,0-.72.31,1,1,0,0,0,0,1.41,1,1,0,0,0,1.41,0"/><path class="cls-1" d="M178.7,45.15a1.41,1.41,0,0,0-1-2.37,1.4,1.4,0,0,0-1,2.42,1.43,1.43,0,0,0,2-.05"/><path class="cls-1" d="M179.9,62.14a2.17,2.17,0,0,0,.61-1.58,2.14,2.14,0,0,0-.68-1.55,2.2,2.2,0,0,0-3.13.07,2.22,2.22,0,0,0,.07,3.13,2.26,2.26,0,0,0,3.13-.07"/><path class="cls-1" d="M155.25,86.22a1,1,0,0,0,.28-.71,1,1,0,0,0-.31-.7,1,1,0,0,0-.69-.27,1,1,0,0,0-.72.31,1,1,0,1,0,1.44,1.37"/><path class="cls-1" d="M154.75,54.23a1,1,0,0,0,0-1.41,1,1,0,0,0-.69-.28,1,1,0,0,0-.72.31,1,1,0,0,0-.27.72.93.93,0,0,0,.31.69,1,1,0,0,0,1.41,0"/><path class="cls-1" d="M154.74,100.58a1,1,0,0,0-.68,1.72,1,1,0,0,0,1.41,0,1,1,0,0,0,.27-.72,1,1,0,0,0-.31-.69,1,1,0,0,0-.69-.28"/><path class="cls-1" d="M162.86,61.77a1.41,1.41,0,1,0-2,0,1.45,1.45,0,0,0,2,0"/><path class="cls-1" d="M178.67,29.14a1,1,0,0,0,.28-.71,1,1,0,0,0-.31-.7,1,1,0,1,0-1.38,1.44,1,1,0,0,0,1.41,0"/><path class="cls-1" d="M154.64,69.8a1,1,0,0,0,.27-.71,1,1,0,0,0-.3-.7,1,1,0,0,0-.69-.28,1,1,0,0,0-.72.31,1,1,0,0,0,0,1.41,1,1,0,0,0,1.41,0"/><path class="cls-1" d="M210.39,11.91a1.37,1.37,0,0,0,.39-1A1.4,1.4,0,1,0,208.41,12a1.42,1.42,0,0,0,2-.05"/><path class="cls-1" d="M202.47,20.22a1.39,1.39,0,0,0-.05-2,1.38,1.38,0,0,0-1-.39,1.4,1.4,0,0,0-1,2.42,1.42,1.42,0,0,0,2-.05"/><path class="cls-1" d="M202.37,4.28a1,1,0,1,0-1.44-1.38,1,1,0,0,0-.27.72,1,1,0,0,0,.3.69,1,1,0,0,0,1.41,0"/><path class="cls-1" d="M219.52,20.59a2.21,2.21,0,0,0,.61-1.58,2.21,2.21,0,0,0-3.82-1.47,2.21,2.21,0,0,0,.08,3.13,2.27,2.27,0,0,0,3.13-.08"/><path class="cls-1" d="M203.67,37.21a2.22,2.22,0,0,0-.07-3.13,2.2,2.2,0,0,0-1.53-.61,2.16,2.16,0,0,0-1.6.69,2.21,2.21,0,0,0,.07,3.13,2.26,2.26,0,0,0,3.13-.08"/><path class="cls-1" d="M211.6,28.9a2.26,2.26,0,0,0,.61-1.58A2.22,2.22,0,0,0,210,25.16a2.2,2.2,0,0,0-2.21,2.27,2.22,2.22,0,0,0,.68,1.55,2.27,2.27,0,0,0,3.14-.08"/><path class="cls-1" d="M194.38,12.67a1,1,0,0,0,0-1.42,1,1,0,0,0-.68-.27,1,1,0,0,0-.72.31,1,1,0,0,0-.28.71,1,1,0,0,0,1.72.67"/><path class="cls-1" d="M186.52,20.9a1,1,0,0,0,0-1.41,1,1,0,0,0-.69-.27,1,1,0,0,0-.72.31,1,1,0,0,0-.27.71,1,1,0,0,0,.3.7,1,1,0,0,0,1.41,0"/><path class="cls-1" d="M186.62,36.84a1.39,1.39,0,0,0,0-2,1.42,1.42,0,0,0-1-.39,1.4,1.4,0,0,0-1,2.42,1.42,1.42,0,0,0,2,0"/><path class="cls-1" d="M187.83,53.83a2.21,2.21,0,0,0-.08-3.13,2.17,2.17,0,0,0-1.53-.62,2.21,2.21,0,0,0-1.52,3.82,2.26,2.26,0,0,0,3.13-.07"/><path class="cls-1" d="M195.75,45.52a2.22,2.22,0,0,0-.07-3.13,2.2,2.2,0,0,0-1.53-.61,2.21,2.21,0,0,0-1.53,3.82,2.27,2.27,0,0,0,3.13-.08"/><path class="cls-1" d="M194.55,28.53a1.4,1.4,0,0,0-.05-2,1.39,1.39,0,0,0-1-.39,1.37,1.37,0,0,0-1,.44,1.39,1.39,0,0,0-.39,1,1.41,1.41,0,0,0,.43,1,1.43,1.43,0,0,0,2,0"/><path class="cls-1" d="M184.58,70.29a2.67,2.67,0,0,0,3.7-.09,2.62,2.62,0,0,0-1.89-4.43,2.58,2.58,0,0,0-1.9.82,2.61,2.61,0,0,0,.09,3.7"/><path class="cls-1" d="M216.17,53.55a3.17,3.17,0,0,0,4.37-.1,3.09,3.09,0,0,0-.11-4.37,3.1,3.1,0,0,0-2.13-.85,3,3,0,0,0-2.23,1,3.09,3.09,0,0,0,.1,4.36"/><path class="cls-1" d="M208.26,61.85a3.18,3.18,0,0,0,4.37-.11,3.09,3.09,0,0,0-2.24-5.21,3.09,3.09,0,0,0-2.13,5.32"/><path class="cls-1" d="M226.21,39.94a3.09,3.09,0,0,0-2.13,5.32,3.18,3.18,0,0,0,4.37-.11,3.09,3.09,0,0,0-2.24-5.21"/><path class="cls-1" d="M200.35,70.14a3.17,3.17,0,0,0,4.37-.1,3.09,3.09,0,1,0-4.37.1"/><path class="cls-1" d="M234.22,47.57a3.08,3.08,0,0,0-2.13,5.32,3.16,3.16,0,0,0,4.36-.11,3.08,3.08,0,0,0-2.23-5.21"/><path class="cls-1" d="M213,93.76a3.09,3.09,0,0,0,.85-2.2,3.09,3.09,0,0,0-5.32-2.06,3.1,3.1,0,0,0,.1,4.37,3.18,3.18,0,0,0,4.37-.11"/><path class="cls-1" d="M237.1,100.92a3.09,3.09,0,1,0-4.47-4.26,3.15,3.15,0,0,0-.85,2.2,3,3,0,0,0,1,2.16,3.16,3.16,0,0,0,4.36-.1"/><path class="cls-1" d="M192.44,78.44a3.17,3.17,0,0,0,4.37-.11,3,3,0,0,0,.85-2.2,3.09,3.09,0,1,0-5.22,2.31"/><path class="cls-1" d="M229.3,93.48a3.09,3.09,0,1,0-4.36.1,3.16,3.16,0,0,0,4.36-.1"/><path class="cls-1" d="M204.81,86a3,3,0,0,0,.85-2.2,3.07,3.07,0,0,0-3.08-3,3.05,3.05,0,0,0-2.24,1,3.09,3.09,0,0,0,.11,4.36,3.15,3.15,0,0,0,4.36-.11"/><path class="cls-1" d="M242.39,55.36a3.09,3.09,0,0,0-3.08,3.16,3.08,3.08,0,0,0,.95,2.16,3.17,3.17,0,0,0,4.37-.1,3.1,3.1,0,0,0-2.24-5.22"/><path class="cls-1" d="M221.39,101.77a3.09,3.09,0,0,0-2.23-5.21,3.08,3.08,0,0,0-2.13,5.32,3.16,3.16,0,0,0,4.36-.11"/><path class="cls-1" d="M236.72,68.87a3.09,3.09,0,0,0-.11-4.36,3.09,3.09,0,0,0-5.21,2.31,3.1,3.1,0,0,0,.95,2.16,3.17,3.17,0,0,0,4.37-.11"/><path class="cls-1" d="M252.64,99.9a2.62,2.62,0,0,0-.09-3.71,2.59,2.59,0,0,0-1.81-.72,2.55,2.55,0,0,0-1.89.81,2.61,2.61,0,0,0-.73,1.87,2.67,2.67,0,0,0,.81,1.84,2.7,2.7,0,0,0,3.71-.09"/><path class="cls-1" d="M226.31,55.86a3,3,0,0,0-2.23,1,3.08,3.08,0,0,0,.1,4.36,3.16,3.16,0,0,0,4.36-.1,3.09,3.09,0,0,0-2.23-5.22"/><path class="cls-1" d="M291,41.41a1,1,0,0,0-.72-1.69,1,1,0,0,0-.72.31,1,1,0,0,0,0,1.41,1,1,0,0,0,1.41,0"/><path class="cls-1" d="M291.31,57.58a1.4,1.4,0,0,0-1-2.37,1.4,1.4,0,0,0-1,.43,1.42,1.42,0,0,0,.05,2,1.44,1.44,0,0,0,2-.05"/><path class="cls-1" d="M208.36,77.77a3.16,3.16,0,0,0,4.36-.1,3.09,3.09,0,0,0-.1-4.36,3.08,3.08,0,1,0-4.26,4.46"/><path class="cls-1" d="M253,68.59a3.09,3.09,0,1,0-4.36.11,3.17,3.17,0,0,0,4.36-.11"/><path class="cls-1" d="M237.21,85.18a3.09,3.09,0,0,0-4.47-4.26,3.09,3.09,0,0,0,.11,4.37,3.17,3.17,0,0,0,4.36-.11"/><path class="cls-1" d="M245.12,76.89a3.09,3.09,0,1,0-4.36.1,3.16,3.16,0,0,0,4.36-.1"/><path class="cls-1" d="M220.9,85.47a3.1,3.1,0,0,0-.11-4.37,3.09,3.09,0,0,0-4.26,4.47,3.17,3.17,0,0,0,4.37-.1"/><path class="cls-1" d="M228.81,77.17A3.1,3.1,0,0,0,226.57,72a3.09,3.09,0,0,0-2.13,5.32,3.17,3.17,0,0,0,4.37-.1"/><path class="cls-1" d="M215.31,67.32a3.07,3.07,0,0,0,1,2.16,3.16,3.16,0,0,0,4.36-.11,3,3,0,0,0,.85-2.2,3.09,3.09,0,0,0-6.17.15"/><path class="cls-1" d="M196.56,93.94a2.62,2.62,0,1,0-3.7.09,2.69,2.69,0,0,0,3.7-.09"/><path class="cls-1" d="M188.56,86.31a2.62,2.62,0,0,0-.09-3.71,2.62,2.62,0,0,0-3.7.09,2.62,2.62,0,0,0,.09,3.71,2.68,2.68,0,0,0,3.7-.09"/><path class="cls-1" d="M204.74,101.74a2.62,2.62,0,0,0-.09-3.71,2.59,2.59,0,0,0-1.81-.72,2.56,2.56,0,0,0-1.89.81,2.63,2.63,0,0,0,.08,3.71,2.7,2.7,0,0,0,3.71-.09"/><path class="cls-1" d="M175.85,76.75a2.62,2.62,0,0,0,4.52,1.75,2.62,2.62,0,1,0-4.52-1.75"/><path class="cls-1" d="M245,92.62a3,3,0,0,0,.85-2.2,3.08,3.08,0,1,0-5.21,2.31,3.17,3.17,0,0,0,4.36-.11"/><path class="cls-1" d="M221,117.19a2.62,2.62,0,0,0-1.9-4.43,2.62,2.62,0,0,0-1.81,4.52,2.69,2.69,0,0,0,3.71-.09"/><path class="cls-1" d="M244.73,108.19a2.6,2.6,0,0,0,.72-1.87,2.55,2.55,0,0,0-.81-1.83,2.6,2.6,0,0,0-1.81-.73,2.62,2.62,0,0,0-1.81,4.52,2.68,2.68,0,0,0,3.71-.09"/><path class="cls-1" d="M213.14,109.75a2.62,2.62,0,0,0-.09-3.71,2.62,2.62,0,0,0-3.7.09,2.62,2.62,0,0,0,.09,3.71,2.69,2.69,0,0,0,3.7-.09"/><path class="cls-1" d="M236.82,116.49a2.62,2.62,0,0,0-.09-3.71,2.62,2.62,0,0,0-3.7.09,2.63,2.63,0,0,0,.08,3.71,2.7,2.7,0,0,0,3.71-.09"/><path class="cls-1" d="M229.19,109.21A3,3,0,0,0,230,107a3.08,3.08,0,0,0-5.32-2.05,3.06,3.06,0,0,0-.84,2.2,3,3,0,0,0,1,2.16,3.16,3.16,0,0,0,4.36-.11"/><path class="cls-1" d="M192.49,62a2.69,2.69,0,0,0,3.7-.09,2.63,2.63,0,0,0-.08-3.71,2.67,2.67,0,0,0-1.81-.72A2.62,2.62,0,0,0,192.49,62"/><path class="cls-1" d="M163.47,78.2a1.42,1.42,0,0,0-.05-2,1.38,1.38,0,0,0-1-.39,1.41,1.41,0,0,0-1,.44,1.39,1.39,0,0,0-.39,1,1.42,1.42,0,0,0,.44,1,1.43,1.43,0,0,0,2,0"/><path class="cls-1" d="M250.3,47.53a2.56,2.56,0,0,0-1.89.82,2.6,2.6,0,0,0,.09,3.7,2.67,2.67,0,0,0,3.7-.09,2.59,2.59,0,0,0,.72-1.87,2.55,2.55,0,0,0-.81-1.83,2.6,2.6,0,0,0-1.81-.73"/><path class="cls-1" d="M268.41,67.42a2.63,2.63,0,0,0-.09-3.71,2.62,2.62,0,1,0-3.62,3.79,2.69,2.69,0,0,0,3.71-.08"/><path class="cls-1" d="M258.71,55.54a2.58,2.58,0,0,0-1.9.82,2.61,2.61,0,0,0,.09,3.7,2.67,2.67,0,0,0,3.7-.09,2.64,2.64,0,0,0,.73-1.87,2.65,2.65,0,0,0-2.62-2.56"/><path class="cls-1" d="M260.83,76a3.08,3.08,0,0,0-4.46-4.26,3.09,3.09,0,0,0,.1,4.37,3.17,3.17,0,0,0,4.36-.11"/><path class="cls-1" d="M252.92,84.33a3.09,3.09,0,1,0-4.36.1,3.16,3.16,0,0,0,4.36-.1"/><path class="cls-1" d="M234.13,32.11a2.57,2.57,0,0,0-1.9.81,2.61,2.61,0,0,0,.09,3.7,2.68,2.68,0,0,0,3.7-.08,2.62,2.62,0,0,0-.09-3.71,2.58,2.58,0,0,0-1.8-.72"/><path class="cls-1" d="M242.13,39.74a2.62,2.62,0,0,0-1.81,4.52,2.7,2.7,0,0,0,3.71-.09,2.63,2.63,0,0,0-.09-3.71,2.59,2.59,0,0,0-1.81-.72"/><path class="cls-1" d="M208.31,45.41a2.69,2.69,0,0,0,3.7-.09,2.62,2.62,0,1,0-3.7.09"/><path class="cls-1" d="M216.22,37.11a2.68,2.68,0,0,0,3.7-.09,2.62,2.62,0,0,0-3.79-3.62,2.62,2.62,0,0,0,.09,3.71"/><path class="cls-1" d="M200.4,53.7a2.67,2.67,0,0,0,3.7-.09,2.63,2.63,0,0,0-1.89-4.43,2.58,2.58,0,0,0-1.9.82,2.61,2.61,0,0,0,.09,3.7"/><path class="cls-1" d="M225.94,24.3a2.57,2.57,0,0,0-1.9.81,2.62,2.62,0,0,0,.09,3.71,2.69,2.69,0,0,0,3.7-.09,2.62,2.62,0,0,0-.09-3.71,2.57,2.57,0,0,0-1.8-.72"/><path class="cls-1" d="M267.38,95.74a2.22,2.22,0,0,0-1.53,3.82,2.27,2.27,0,0,0,3.14-.07,2.22,2.22,0,0,0-.08-3.13,2.19,2.19,0,0,0-1.53-.62"/><path class="cls-1" d="M259.46,104.05a2.21,2.21,0,0,0-1.53,3.82,2.26,2.26,0,0,0,3.13-.07,2.22,2.22,0,0,0-.07-3.13,2.21,2.21,0,0,0-1.53-.62"/><path class="cls-1" d="M267.54,128.67a1,1,0,0,0-.73.31,1,1,0,0,0,0,1.4,1,1,0,0,0,1.41,0,1,1,0,0,0,.27-.71,1,1,0,0,0-1-1"/><path class="cls-1" d="M195.32,139.27a1,1,0,0,0-1,1,1,1,0,0,0,2,0,1,1,0,0,0-.31-.7,1,1,0,0,0-.69-.27"/><path class="cls-1" d="M195.42,123.13a1.4,1.4,0,0,0-1,2.42,1.44,1.44,0,0,0,2,0,1.42,1.42,0,0,0-.05-2,1.38,1.38,0,0,0-1-.38"/><path class="cls-1" d="M204.94,117.76a2.21,2.21,0,0,0,.61-1.58,2.22,2.22,0,0,0-2.22-2.16,2.22,2.22,0,0,0-2.21,2.27,2.19,2.19,0,0,0,.69,1.55,2.26,2.26,0,0,0,3.13-.08"/><path class="cls-1" d="M196.54,109.75a2.22,2.22,0,0,0-3.21-3.06,2.18,2.18,0,0,0-.61,1.59,2.22,2.22,0,0,0,.68,1.55,2.28,2.28,0,0,0,3.14-.08"/><path class="cls-1" d="M267.24,112.31a1.4,1.4,0,0,0-1,.43,1.42,1.42,0,0,0,0,2,1.43,1.43,0,0,0,2,0,1.4,1.4,0,0,0-1-2.37"/><path class="cls-1" d="M188,117.49a1.41,1.41,0,0,0-1-2.38,1.41,1.41,0,0,0-1,2.42,1.44,1.44,0,0,0,2,0"/><path class="cls-1" d="M275.37,120.45a1,1,0,0,0-.72.31,1,1,0,0,0,0,1.41,1,1,0,0,0,1.41,0,1,1,0,0,0-.72-1.69"/><path class="cls-1" d="M188.36,102a2.19,2.19,0,0,0,.61-1.59,2.22,2.22,0,0,0-.68-1.55,2.24,2.24,0,0,0-1.53-.61,2.22,2.22,0,0,0-2.22,2.27,2.23,2.23,0,0,0,.69,1.55,2.27,2.27,0,0,0,3.13-.07"/><path class="cls-1" d="M283.21,112.23a1,1,0,0,0-.72.31,1,1,0,0,0-.28.71,1,1,0,0,0,.31.7,1,1,0,0,0,1.41,0,1,1,0,0,0,.28-.71,1,1,0,0,0-.32-.7,1,1,0,0,0-.68-.28"/><path class="cls-1" d="M275.16,104a1.41,1.41,0,0,0-1,2.42,1.44,1.44,0,0,0,2,0,1.4,1.4,0,0,0-.05-2,1.39,1.39,0,0,0-1-.39"/><path class="cls-1" d="M187.51,131.83a1,1,0,0,0-.72.31,1,1,0,0,0,0,1.41,1,1,0,0,0,1.41,0,1,1,0,0,0,.27-.71,1,1,0,0,0-.31-.7,1,1,0,0,0-.69-.27"/><path class="cls-1" d="M275.3,87.44a2.19,2.19,0,0,0-1.6.68,2.22,2.22,0,0,0,.08,3.14,2.27,2.27,0,0,0,3.13-.08,2.21,2.21,0,0,0-.08-3.13,2.16,2.16,0,0,0-1.53-.61"/><path class="cls-1" d="M219.1,129.05a2.22,2.22,0,0,0-1.53,3.82,2.26,2.26,0,0,0,3.13-.07,2.2,2.2,0,0,0-.07-3.13,2.19,2.19,0,0,0-1.53-.62"/><path class="cls-1" d="M219.84,146.82a1,1,0,0,0-.72.31,1,1,0,0,0-.27.71,1,1,0,0,0,.3.7,1,1,0,0,0,1.42,0,1,1,0,0,0,0-1.41,1,1,0,0,0-.69-.27"/><path class="cls-1" d="M243.47,137.24a1.4,1.4,0,0,0-1,.43,1.42,1.42,0,0,0,.05,2,1.44,1.44,0,0,0,2,0,1.4,1.4,0,0,0-1-2.37"/><path class="cls-1" d="M235.69,129a2.22,2.22,0,0,0-1.53,3.82,2.27,2.27,0,0,0,3.13-.07,2.23,2.23,0,0,0-.07-3.14,2.24,2.24,0,0,0-1.53-.61"/><path class="cls-1" d="M227.77,138.1a1.41,1.41,0,0,0-1,.44,1.37,1.37,0,0,0-.39,1,1.42,1.42,0,0,0,.44,1,1.43,1.43,0,0,0,2-.05,1.4,1.4,0,0,0,0-2,1.42,1.42,0,0,0-1-.39"/><path class="cls-1" d="M228.91,124.78a2.63,2.63,0,0,0-1.9-4.43,2.56,2.56,0,0,0-1.89.82,2.62,2.62,0,0,0,.08,3.7,2.68,2.68,0,0,0,3.71-.09"/><path class="cls-1" d="M243.61,120.67a2.22,2.22,0,0,0-1.53,3.82,2.27,2.27,0,0,0,3.13-.07,2.21,2.21,0,0,0-1.6-3.75"/><path class="cls-1" d="M283.09,95.69a1.37,1.37,0,0,0-1,.44,1.4,1.4,0,0,0,.05,2,1.43,1.43,0,0,0,2,0,1.4,1.4,0,0,0-.05-2,1.38,1.38,0,0,0-1-.39"/><path class="cls-1" d="M251.86,145.1a1,1,0,0,0-.68,1.72,1,1,0,0,0,1.41,0,1,1,0,0,0,.27-.71,1,1,0,0,0-1-1"/><path class="cls-1" d="M203.23,130.57a1.4,1.4,0,0,0-1,.43,1.42,1.42,0,0,0,0,2,1.44,1.44,0,0,0,2-.05,1.39,1.39,0,0,0,0-2,1.38,1.38,0,0,0-1-.39"/><path class="cls-1" d="M259.7,136.89a.94.94,0,0,0-.72.31,1,1,0,0,0,0,1.4,1,1,0,0,0,1.41,0,1,1,0,0,0,0-1.41,1,1,0,0,0-.69-.27"/><path class="cls-1" d="M211.19,138.16a1.41,1.41,0,0,0-1,2.42,1.43,1.43,0,0,0,2-.05,1.4,1.4,0,0,0-.05-2,1.39,1.39,0,0,0-1-.39"/><path class="cls-1" d="M251.54,112.36a2.21,2.21,0,0,0-1.53,3.82,2.26,2.26,0,0,0,3.13-.07,2.22,2.22,0,0,0-.08-3.14,2.2,2.2,0,0,0-1.52-.61"/><path class="cls-1" d="M259.32,120.62a1.4,1.4,0,0,0-1,.43,1.42,1.42,0,0,0,.05,2,1.43,1.43,0,0,0,2-.05,1.4,1.4,0,0,0-1-2.37"/><path class="cls-1" d="M252.41,131.3a1.4,1.4,0,0,0,0-2,1.34,1.34,0,0,0-1-.39,1.4,1.4,0,0,0-1,2.42,1.44,1.44,0,0,0,2,0"/><path class="cls-1" d="M212.74,125.2a2.22,2.22,0,0,0-.07-3.13,2.24,2.24,0,0,0-1.53-.61,2.21,2.21,0,0,0-1.53,3.82,2.26,2.26,0,0,0,3.13-.08"/><path class="cls-1" d="M235.55,146a1,1,0,0,0-1,1,1,1,0,0,0,.31.7,1,1,0,0,0,1.41,0,1,1,0,0,0,.27-.71.93.93,0,0,0-.31-.7,1,1,0,0,0-.68-.28"/><path class="cls-1" d="M291.15,71.63a1.33,1.33,0,0,0-1,.44,1.39,1.39,0,0,0,0,2,1.43,1.43,0,0,0,2,0,1.41,1.41,0,0,0-1-2.37"/><path class="cls-1" d="M170.84,99.69a1.39,1.39,0,0,0-1,.43,1.42,1.42,0,0,0,0,2,1.45,1.45,0,0,0,2,0,1.4,1.4,0,0,0-1-2.37"/><path class="cls-1" d="M291,104a1,1,0,0,0-.68,1.72,1,1,0,0,0,1.41,0,1,1,0,0,0,0-1.41A1,1,0,0,0,291,104"/><path class="cls-1" d="M170.94,116a1,1,0,0,0-.72.31,1,1,0,0,0,0,1.41,1,1,0,0,0,1.41,0,1,1,0,0,0-.72-1.69"/><path class="cls-1" d="M291,87.38a1.4,1.4,0,0,0-1,2.42,1.42,1.42,0,0,0,2,0,1.39,1.39,0,0,0,.39-1,1.4,1.4,0,0,0-1.4-1.37"/><path class="cls-1" d="M180.36,94.32a2.22,2.22,0,0,0-1.61-3.74,2.16,2.16,0,0,0-1.6.69,2.21,2.21,0,0,0,.08,3.13,2.26,2.26,0,0,0,3.13-.08"/><path class="cls-1" d="M299,95.63a1,1,0,0,0-.72.31,1,1,0,0,0,0,1.41,1,1,0,1,0,1.38-1.44,1,1,0,0,0-.69-.28"/><path class="cls-1" d="M299.07,63.73a1,1,0,0,0-.68,1.72,1,1,0,0,0,1.4,0,1,1,0,0,0,0-1.41,1,1,0,0,0-.69-.27"/><path class="cls-1" d="M299.65,81.16a1,1,0,0,0,0-1.41,1,1,0,0,0-.69-.27,1,1,0,0,0-.72.31,1,1,0,1,0,1.44,1.37"/><path class="cls-1" d="M162.93,108.39a1,1,0,0,0-.72.31,1,1,0,0,0,0,1.41,1,1,0,0,0,1.42,0,1,1,0,0,0-.73-1.68"/><path class="cls-1" d="M162.65,91.88a1.39,1.39,0,0,0-1,.43,1.42,1.42,0,0,0,.05,2,1.43,1.43,0,0,0,2,0,1.4,1.4,0,0,0,0-2,1.39,1.39,0,0,0-1-.39"/><path class="cls-1" d="M172.17,86.52a2.22,2.22,0,0,0-1.61-3.75,2.16,2.16,0,0,0-1.6.69,2.21,2.21,0,0,0,.08,3.13,2.27,2.27,0,0,0,3.13-.07"/><path class="cls-1" d="M178.85,107.32a1.4,1.4,0,0,0-1,.43,1.42,1.42,0,0,0,0,2,1.43,1.43,0,0,0,2,0,1.4,1.4,0,0,0,0-2,1.42,1.42,0,0,0-1-.39"/><path class="cls-1" d="M283.23,79.13a2.2,2.2,0,0,0-1.61.68A2.26,2.26,0,0,0,281,81.4,2.23,2.23,0,0,0,281.7,83a2.27,2.27,0,0,0,3.13-.08,2.21,2.21,0,0,0-1.6-3.74"/><path class="cls-1" d="M179.11,123.82a1,1,0,0,0-.72.31,1,1,0,0,0-.27.71,1,1,0,0,0,.3.69,1,1,0,0,0,1.41,0,1,1,0,0,0,0-1.41,1,1,0,0,0-.69-.27"/><path class="cls-1" d="M117.59,156.33c-1.35-1.36-1.35-3.13-1.35-4.55V114.49c0-2.26.07-3,.66-4.23a5,5,0,0,1,8.4,0c.59,1.18.66,2,.66,4.23v34.58H142.8c2,0,2.85.07,3.78.55a4.46,4.46,0,0,1,0,7.51c-.93.48-1.73.55-3.78.55H122.14c-1.42,0-3.19,0-4.55-1.35"/><path class="cls-1" d="M157.47,156.33c-1.36-1.36-1.36-3.13-1.36-4.55V114.14c0-1.42,0-3.19,1.36-4.54s3.12-1.36,4.54-1.36h21.18c2.05,0,2.85.07,3.79.56a4.47,4.47,0,0,1,0,7.5c-.94.48-1.74.55-3.79.55H165.83v11.6h14c2,0,2.84.07,3.78.55a4.45,4.45,0,0,1,0,7.5c-.94.49-1.73.56-3.78.56h-14v12h17.36c2.05,0,2.85.07,3.79.55a4.48,4.48,0,0,1,0,7.51c-.94.48-1.74.55-3.79.55H162c-1.42,0-3.19,0-4.54-1.35"/><path class="cls-1" d="M194.32,115.5c-.66-2-.83-2.85-.66-4,.35-2.5,3-3.58,4.61-3.58a4,4,0,0,1,2.85,1.12c.84.83,1.18,1.56,1.84,3.54l9.2,28.22,9.2-28.22c.66-2,1-2.71,1.84-3.54a4,4,0,0,1,2.85-1.12c1.67,0,4.27,1.08,4.62,3.58.17,1.11,0,2-.66,4l-12.64,37.7a8.22,8.22,0,0,1-1.94,3.58,5.16,5.16,0,0,1-6.57,0,8.32,8.32,0,0,1-1.94-3.58Z"/><path class="cls-1" d="M239.12,156.33c-1.36-1.36-1.36-3.13-1.36-4.55V114.14c0-1.42,0-3.19,1.36-4.54s3.12-1.36,4.55-1.36h21.18c2,0,2.84.07,3.78.56a4.45,4.45,0,0,1,0,7.5c-.94.48-1.74.55-3.78.55H247.49v11.6h14c2.05,0,2.85.07,3.79.55a4.45,4.45,0,0,1,0,7.5c-.94.49-1.74.56-3.79.56h-14v12h17.36c2,0,2.84.07,3.78.55a4.46,4.46,0,0,1,0,7.51c-.94.48-1.74.55-3.78.55H243.67c-1.43,0-3.2,0-4.55-1.35"/><path class="cls-1" d="M281,156.33c-1.35-1.36-1.35-3.13-1.35-4.55V114.49c0-2.26.07-3,.65-4.23a5,5,0,0,1,8.41,0c.59,1.18.66,2,.66,4.23v34.58h16.84c2.05,0,2.84.07,3.78.55a4.46,4.46,0,0,1,0,7.51c-.94.48-1.73.55-3.78.55H285.59c-1.42,0-3.2,0-4.55-1.35"/><path class="cls-1" d="M139.85,205.58a9.26,9.26,0,0,1,2.39-3.44,4.71,4.71,0,0,1,2.78-.83,4.63,4.63,0,0,1,3.37,1.31,4.75,4.75,0,0,1,1.28,3.69,12.7,12.7,0,0,1-4.23,8.54c-3.09,3-6.77,4.44-12.67,4.44a17.66,17.66,0,0,1-13.16-5.21c-4.9-4.89-5.07-10.48-5.07-19.93s.17-15,5.07-19.92A17.66,17.66,0,0,1,132.77,169c5.9,0,9.58,1.42,12.67,4.44a12.7,12.7,0,0,1,4.23,8.54,4.72,4.72,0,0,1-1.28,3.68A4.6,4.6,0,0,1,145,187a4.71,4.71,0,0,1-2.78-.83,9.26,9.26,0,0,1-2.39-3.44c-1.56-3.47-3.89-5.1-7.29-5.1a7.55,7.55,0,0,0-5.87,2.64c-2,2.36-2.43,5.07-2.43,13.88s.38,11.53,2.43,13.89a7.55,7.55,0,0,0,5.87,2.64c3.4,0,5.73-1.63,7.29-5.1"/><path class="cls-1" d="M168.78,212.62c0,2.26-.06,3.06-.65,4.24a5,5,0,0,1-8.41,0c-.59-1.18-.66-2-.66-4.24V175.34c0-1.43,0-3.2,1.36-4.55s3.12-1.35,4.55-1.35h13.5c10.1,0,16.08,6.84,16.08,15.1a13.66,13.66,0,0,1-9,13.05L193,210.47c1.11,1.95,1.5,2.74,1.57,3.89a4.52,4.52,0,0,1-2.4,4,5.16,5.16,0,0,1-2.57.76c-2.6,0-3.61-1.77-4.86-4l-9.17-16h-6.77ZM178,191.06c4.24,0,7-2.63,7-6.49s-2.71-6.52-7-6.52h-9.17v13Z"/><path class="cls-1" d="M207.17,214.08c-4.9-4.89-5.07-10.48-5.07-19.93s.17-15,5.07-19.92c3.33-3.37,7.53-5.21,13.26-5.21s9.93,1.84,13.26,5.21c4.9,4.89,5.07,10.48,5.07,19.92s-.17,15-5.07,19.93c-3.33,3.37-7.53,5.21-13.26,5.21s-9.93-1.84-13.26-5.21m7.05-33.81c-1.84,2.08-2.4,4.44-2.4,13.88s.56,11.77,2.4,13.86a8.57,8.57,0,0,0,12.43,0c1.83-2.09,2.39-4.41,2.39-13.86s-.56-11.8-2.39-13.88a8.64,8.64,0,0,0-12.43,0"/><path class="cls-1" d="M259.33,197.83c-4.23-.62-7.29-1.9-9.58-4.13s-3.54-5.55-3.54-9.68c0-8.79,6.52-15,17.22-15a24.64,24.64,0,0,1,11.18,2.39c2.32,1.08,3.95,2.78,3.95,4.83a4.93,4.93,0,0,1-1.11,3,3.68,3.68,0,0,1-2.88,1.31,8.57,8.57,0,0,1-3.61-1.11,15.61,15.61,0,0,0-7.81-1.94c-5.1,0-7.6,2.81-7.6,6a4.86,4.86,0,0,0,1.42,3.78,8,8,0,0,0,4.58,1.91l5.8.84c4.51.66,7.4,1.87,9.48,3.85,2.64,2.47,3.82,6,3.82,10.45,0,9.55-8,15-18.37,15-5.38,0-8.5-.73-12.29-2.54-3.16-1.49-4.93-2.88-4.93-5.65a4.75,4.75,0,0,1,1.32-3.16,3.61,3.61,0,0,1,2.71-1.08,8.17,8.17,0,0,1,3.92,1.32c3.44,1.81,5.7,2.57,9.38,2.57,5.69,0,8.78-2.29,8.78-6.22a5.63,5.63,0,0,0-1.49-4.13c-.87-.83-2.12-1.35-4.45-1.7Z"/><path class="cls-1" d="M300.14,197.83c-4.23-.62-7.29-1.9-9.58-4.13S287,188.15,287,184c0-8.79,6.52-15,17.22-15a24.64,24.64,0,0,1,11.18,2.39c2.32,1.08,4,2.78,4,4.83a4.94,4.94,0,0,1-1.12,3,3.68,3.68,0,0,1-2.88,1.31,8.57,8.57,0,0,1-3.61-1.11,15.61,15.61,0,0,0-7.81-1.94c-5.1,0-7.6,2.81-7.6,6a4.86,4.86,0,0,0,1.42,3.78,8,8,0,0,0,4.58,1.91l5.8.84c4.51.66,7.4,1.87,9.48,3.85,2.64,2.47,3.82,6,3.82,10.45,0,9.55-8,15-18.37,15-5.38,0-8.5-.73-12.29-2.54-3.16-1.49-4.93-2.88-4.93-5.65a4.75,4.75,0,0,1,1.32-3.16,3.61,3.61,0,0,1,2.71-1.08,8.17,8.17,0,0,1,3.92,1.32c3.44,1.81,5.7,2.57,9.38,2.57,5.69,0,8.78-2.29,8.78-6.22a5.63,5.63,0,0,0-1.49-4.13c-.87-.83-2.12-1.35-4.45-1.7Z"/><path class="cls-1" d="M340.22,212.62c0,2.26-.07,3.06-.66,4.24a5,5,0,0,1-8.4,0c-.59-1.18-.66-2-.66-4.24V175.68c0-2.25.07-3.05.66-4.23a5,5,0,0,1,8.4,0c.59,1.18.66,2,.66,4.23Z"/><path class="cls-1" d="M389.64,213.11c0,2-.21,3.44-1.32,4.55a5,5,0,0,1-3.65,1.49c-2.22,0-3.61-1.39-5.66-4.44l-17.6-26v23.88c0,2.26-.07,3.06-.66,4.24a5,5,0,0,1-8.4,0c-.59-1.18-.66-2-.66-4.24V175.2c0-2,.24-3.44,1.32-4.55a5,5,0,0,1,3.64-1.49c2.26,0,3.62,1.39,5.7,4.44l17.56,26V175.68c0-2.25.08-3.05.67-4.23a5,5,0,0,1,8.4,0c.59,1.18.66,2,.66,4.23Z"/><path class="cls-1" d="M411.53,208a8.08,8.08,0,0,0,6.21,2.64,8.31,8.31,0,0,0,6.15-2.5c1.77-1.84,2.22-3.92,2.22-7.33h-3.47c-2.05,0-2.81-.1-3.79-.59a4.06,4.06,0,0,1-2-3.71,4.16,4.16,0,0,1,2-3.75c1-.49,1.74-.56,3.79-.56h6.77c1.42,0,3.19,0,4.55,1.36s1.35,3.12,1.35,4.55v.52c0,7-.9,11.63-4.58,15.31a16.82,16.82,0,0,1-13,5.31c-5.73,0-9.93-1.84-13.26-5.21-4.89-4.89-5.07-10.48-5.07-19.93s.18-15,5.07-19.92A17.66,17.66,0,0,1,417.64,169c5.9,0,9.58,1.42,12.67,4.44a12.72,12.72,0,0,1,4.24,8.54,4.73,4.73,0,0,1-1.29,3.68,4.6,4.6,0,0,1-3.37,1.32,4.72,4.72,0,0,1-2.77-.83,9.25,9.25,0,0,1-2.4-3.44c-1.56-3.47-3.89-5.1-7.29-5.1a7.58,7.58,0,0,0-5.87,2.64c-2.05,2.36-2.43,5.07-2.43,13.88,0,9.45.56,11.81,2.4,13.89"/><path class="cls-1" d="M126,273.82c0,2.26-.07,3.06-.66,4.24a5,5,0,0,1-8.4,0c-.59-1.18-.66-2-.66-4.24V236.53c0-1.42,0-3.19,1.35-4.54s3.13-1.36,4.55-1.36h13.51c10.1,0,16.07,6.84,16.07,15.1a13.65,13.65,0,0,1-9,13.06l7.4,12.88c1.11,1.94,1.49,2.74,1.56,3.89a4.48,4.48,0,0,1-2.39,4,5.1,5.1,0,0,1-2.57.77c-2.61,0-3.61-1.77-4.86-4l-9.17-16H126Zm9.17-21.56c4.23,0,6.94-2.64,6.94-6.49s-2.71-6.53-6.94-6.53H126v13Z"/><path class="cls-1" d="M163,278.71c-1.35-1.35-1.35-3.12-1.35-4.54V236.53c0-1.42,0-3.19,1.35-4.54s3.13-1.36,4.55-1.36h21.18c2.05,0,2.85.07,3.78.56a4.45,4.45,0,0,1,0,7.5c-.93.48-1.73.55-3.78.55H171.39v11.6h14c2.05,0,2.84.07,3.78.55a4.45,4.45,0,0,1,0,7.5c-.94.49-1.73.56-3.78.56h-14v12h17.36c2.05,0,2.85.07,3.78.55a4.46,4.46,0,0,1,0,7.51c-.93.48-1.73.55-3.78.55H167.57c-1.42,0-3.19,0-4.55-1.36"/><path class="cls-1" d="M221.37,267.29l-8.06-15.86v22.39c0,2.26-.07,3.06-.66,4.23a5,5,0,0,1-8.4,0c-.59-1.17-.66-2-.66-4.23V236.36c0-2.12.28-3.51,1.46-4.69a4.41,4.41,0,0,1,3.26-1.32,4.73,4.73,0,0,1,2.88.8,8.11,8.11,0,0,1,2.47,3L226,257.68l12.36-23.54a8.09,8.09,0,0,1,2.46-3,4.78,4.78,0,0,1,2.89-.8,4.43,4.43,0,0,1,3.26,1.32c1.18,1.18,1.46,2.57,1.46,4.69v37.46c0,2.26-.07,3.06-.66,4.23a5,5,0,0,1-8.41,0c-.58-1.17-.66-2-.66-4.23V251.43l-8.05,15.86c-1.21,2.4-2.36,3.41-4.65,3.41s-3.44-1-4.65-3.41"/><path class="cls-1" d="M263.29,275.28c-4.89-4.9-5.07-10.49-5.07-19.93s.18-15,5.07-19.93c3.34-3.37,7.54-5.21,13.26-5.21s9.94,1.84,13.27,5.21c4.89,4.9,5.07,10.49,5.07,19.93s-.18,15-5.07,19.93c-3.33,3.37-7.54,5.21-13.27,5.21s-9.92-1.84-13.26-5.21m7-33.82c-1.84,2.09-2.4,4.45-2.4,13.89s.56,11.77,2.4,13.85a8.55,8.55,0,0,0,12.43,0c1.84-2.08,2.4-4.41,2.4-13.85s-.56-11.8-2.4-13.89a8.64,8.64,0,0,0-12.43,0"/><path class="cls-1" d="M300.32,237.89c-.66-2-.83-2.85-.66-4,.35-2.5,2.95-3.58,4.62-3.58a4,4,0,0,1,2.85,1.11c.83.84,1.17,1.57,1.83,3.55l9.21,28.22,9.2-28.22c.66-2,1-2.71,1.84-3.55a3.94,3.94,0,0,1,2.84-1.11c1.67,0,4.27,1.08,4.62,3.58.18,1.11,0,2-.66,4l-12.64,37.7a8.22,8.22,0,0,1-1.94,3.58,5.15,5.15,0,0,1-6.56,0,8.21,8.21,0,0,1-1.95-3.58Z"/><path class="cls-1" d="M377.13,272.64c.94,2.5,1.5,4.34-.24,6.21a4.73,4.73,0,0,1-3.47,1.5,4.15,4.15,0,0,1-2.68-.9c-.83-.7-1.21-1.43-2-3.65l-1.64-4.48h-19.3l-1.63,4.48c-.83,2.22-1.21,2.95-2.05,3.65a4.14,4.14,0,0,1-2.67.9,4.75,4.75,0,0,1-3.48-1.5c-1.73-1.87-1.18-3.71-.24-6.21L352,234.8a7.4,7.4,0,0,1,2-3.27,5.69,5.69,0,0,1,6.94,0,7.22,7.22,0,0,1,2,3.27Zm-26.35-9.44H364l-6.63-17.95Z"/><path class="cls-1" d="M386.59,278.71c-1.35-1.35-1.35-3.12-1.35-4.54V236.88c0-2.26.07-3,.66-4.24a5,5,0,0,1,8.4,0c.59,1.19.66,2,.66,4.24v34.58H411.8c2.05,0,2.85.07,3.78.55a4.46,4.46,0,0,1,0,7.51c-.93.48-1.73.55-3.78.55H391.14c-1.42,0-3.19,0-4.55-1.36"/><path class="cls-1" d="M116.44,299a1.21,1.21,0,0,1,.29-.95,1.18,1.18,0,0,1,1-.3h8.94c4.79,0,8.38,2.93,8.38,8s-3.59,8-8.38,8h-8.08v10.47a1.68,1.68,0,0,1-.23,1.07.93.93,0,0,1-.82.39.91.91,0,0,1-.82-.39,1.62,1.62,0,0,1-.23-1.07Zm9.94,12.88c3.83,0,6.52-2,6.52-6.13s-2.69-6.12-6.52-6.12h-7.84v12.25Z"/><path class="cls-1" d="M150.73,312.76h-7.59v11.49a1.68,1.68,0,0,1-.23,1.07.93.93,0,0,1-.82.39.91.91,0,0,1-.82-.39,1.61,1.61,0,0,1-.24-1.07V299a1.08,1.08,0,0,1,1.25-1.25h9.33c4.52,0,7.95,2.62,7.95,7.45,0,4.18-2.49,6.83-6.4,7.49l6.3,11a1.91,1.91,0,0,1,.34,1,.94.94,0,0,1-.51.84,1.26,1.26,0,0,1-.53.15c-.6,0-.9-.48-1.13-.89Zm.6-1.87c3.59,0,6.12-1.76,6.12-5.62s-2.53-5.61-6.12-5.61h-8.19v11.23Z"/><path class="cls-1" d="M174.68,325.79a9.38,9.38,0,0,1-6.75-2.65c-2.57-2.58-2.77-4.72-2.77-11.47s.2-8.89,2.77-11.47a9.92,9.92,0,0,1,13.5,0c2.57,2.58,2.77,4.72,2.77,11.47s-.2,8.89-2.77,11.47a9.38,9.38,0,0,1-6.75,2.65m7.41-14.12c0-5.85-.15-8.11-2.14-10.1a7.53,7.53,0,0,0-10.54,0c-2,2-2.14,4.25-2.14,10.1s.15,8.11,2.14,10.1a7.53,7.53,0,0,0,10.54,0c2-2,2.14-4.25,2.14-10.1"/><path class="cls-1" d="M199.08,299.09a1.61,1.61,0,0,1,.24-1.07.91.91,0,0,1,.82-.39.93.93,0,0,1,.82.39,1.68,1.68,0,0,1,.23,1.07v18.27c0,5.08-3.24,8.43-8.27,8.43a8.48,8.48,0,0,1-5.27-1.64,1.25,1.25,0,0,1-.62-1,1,1,0,0,1,.23-.68.89.89,0,0,1,.73-.35c.31,0,.54.13,1.15.58a5.77,5.77,0,0,0,3.78,1.21c4,0,6.16-2.5,6.16-7Z"/><path class="cls-1" d="M210.62,325.56a1.07,1.07,0,0,1-1.25-1.25V299a1.07,1.07,0,0,1,1.25-1.25H225a1.56,1.56,0,0,1,1,.2.89.89,0,0,1,.37.74.87.87,0,0,1-.37.74,1.56,1.56,0,0,1-1,.2H211.48v11h11.37a1.61,1.61,0,0,1,1,.19.86.86,0,0,1,.37.74.84.84,0,0,1-.37.74,1.53,1.53,0,0,1-1,.2H211.48v11.19H225a1.64,1.64,0,0,1,1,.2.89.89,0,0,1,.37.74.87.87,0,0,1-.37.74,1.56,1.56,0,0,1-1,.2Z"/><path class="cls-1" d="M234.36,300.2a9.38,9.38,0,0,1,6.75-2.65,9.07,9.07,0,0,1,7.62,3.63,7.7,7.7,0,0,1,1.58,3.76,1,1,0,0,1-.27.76,1,1,0,0,1-.68.28.88.88,0,0,1-.69-.28,2.41,2.41,0,0,1-.5-1,7.09,7.09,0,0,0-7.06-5.29,7.19,7.19,0,0,0-5.27,2.15c-2,2-2.14,4.25-2.14,10.1s.15,8.12,2.14,10.1a7.19,7.19,0,0,0,5.27,2.15,7.09,7.09,0,0,0,7.06-5.29,2.41,2.41,0,0,1,.5-1,.88.88,0,0,1,.69-.28,1,1,0,0,1,.68.28,1,1,0,0,1,.27.76,7.67,7.67,0,0,1-1.58,3.76,9.07,9.07,0,0,1-7.62,3.63,9.38,9.38,0,0,1-6.75-2.65c-2.58-2.58-2.77-4.72-2.77-11.47s.19-8.89,2.77-11.47"/><path class="cls-1" d="M262.15,299.66h-7.08a1.53,1.53,0,0,1-1-.2.87.87,0,0,1-.37-.74.89.89,0,0,1,.37-.74,1.53,1.53,0,0,1,1-.2h16.31a1.51,1.51,0,0,1,1,.2.87.87,0,0,1,.38.74.86.86,0,0,1-.38.74,1.51,1.51,0,0,1-1,.2h-7.12v24.59a1.68,1.68,0,0,1-.23,1.07.93.93,0,0,1-.82.39.91.91,0,0,1-.82-.39,1.61,1.61,0,0,1-.24-1.07Z"/></g></g></svg>