<svg xmlns="http://www.w3.org/2000/svg" width="679.627" height="66.283" viewBox="0 0 679.627 66.283">
  <g id="Group_31" data-name="Group 31" transform="translate(-864.72 -457)">
    <path id="Path_1" data-name="Path 1" d="M299.812,316.4a5.863,5.863,0,0,1-5.672-5.756,6.04,6.04,0,0,1,4-5.471,19.953,19.953,0,0,0,12.6-8.915l.13-.221.181-.181a5.676,5.676,0,0,1,4.249-1.92,6.128,6.128,0,0,1,5.754,6.165v.309l-.089.293C317.957,310.474,304.8,316.4,299.812,316.4Zm-13.589,0a14.283,14.283,0,0,1-5.491-1.149,34.413,34.413,0,0,1-21.6-31.788c0-17.134,11.886-27.8,22.067-31.727a14.338,14.338,0,0,1,4.937-1.126,5.765,5.765,0,0,1,1.8,11.209c-8.442,2.211-17.3,9.877-17.3,21.644a22.4,22.4,0,0,0,16.929,21.687c2.767.2,4.238,3.311,4.238,5.579A5.6,5.6,0,0,1,286.223,316.4ZM315.3,273.078a5.676,5.676,0,0,1-4.249-1.92l-.181-.183-.13-.22a19.758,19.758,0,0,0-12.4-8.855,6.092,6.092,0,0,1-4.2-5.532,5.863,5.863,0,0,1,5.672-5.754c4.985,0,18.145,5.929,21.151,15.7l.089.293v.308A6.128,6.128,0,0,1,315.3,273.078Z" transform="translate(605.585 206.549)" fill="#fff"/>
    <path id="Path_2" data-name="Path 2" d="M309.782,283.236a33.327,33.327,0,0,1,20.823-30.9,14.729,14.729,0,0,1,5.443-1.128,5.533,5.533,0,0,1,5.587,5.588,5.621,5.621,0,0,1-3.953,5.566c-9.652,1.917-16.475,10.667-16.475,20.874,0,11.038,8.254,18.874,16.407,20.913a5.386,5.386,0,0,1,3.833,4.671,3.942,3.942,0,0,1,.106,1.02,6.487,6.487,0,0,1-.46,2.366l-.076.207-.12.183a5.724,5.724,0,0,1-4.934,2.752,14,14,0,0,1-4.943-1.045C321.219,310.446,309.782,300,309.782,283.236Zm34.019,26.6a5.7,5.7,0,0,1,3.895-5.656,21.461,21.461,0,0,0,16.615-20.949,21.811,21.811,0,0,0-16.559-20.909,5.78,5.78,0,0,1-3.948-5.088v-.008c0-3.093,1.919-6.106,5.587-6.106a15.812,15.812,0,0,1,5.618,1.217c9.579,4.017,20.727,14.507,20.727,30.895,0,16.418-11.375,26.944-21.117,30.969a14.1,14.1,0,0,1-5.146,1.144A5.6,5.6,0,0,1,343.8,309.84Z" transform="translate(624.494 206.74)" fill="#fff"/>
    <path id="Path_3" data-name="Path 3" d="M415.8,316.734a5.6,5.6,0,0,1-5.508-5.672V256.286a5.6,5.6,0,0,1,5.508-5.672,5.677,5.677,0,0,1,5.669,5.672v54.776A5.678,5.678,0,0,1,415.8,316.734Zm-45.635,0a5.6,5.6,0,0,1-5.507-5.672V256.286a5.6,5.6,0,0,1,5.507-5.672,5.678,5.678,0,0,1,5.671,5.672v54.776A5.679,5.679,0,0,1,370.16,316.734Zm45.892-.052a5.892,5.892,0,0,1-4.322-1.913l-32.27-38.391a5.938,5.938,0,0,1-1.3-3.7,5.282,5.282,0,0,1,1.92-4.233,5.6,5.6,0,0,1,3.669-1.273,5.257,5.257,0,0,1,4.374,2.16l32.134,38.142a5.439,5.439,0,0,1,1.3,3.622,5.9,5.9,0,0,1-1.919,4.323A5.739,5.739,0,0,1,416.052,316.682Z" transform="translate(644.98 206.549)" fill="#fff"/>
    <path id="Path_4" data-name="Path 4" d="M433.763,316.418c-9.987,0-19.43-7.6-19.43-15.637,0-3.834,2.249-6.412,5.592-6.412,2.839,0,5.427,2.27,5.427,4.765,0,2.364,4.154,6.437,8.41,6.437a8.847,8.847,0,0,0,8.825-8.827c0-3.122-2.105-5-4.544-7.176l-.967-.87c-1.671-1.4-2.31-2.435-2.468-4.027a5.888,5.888,0,0,1,5.991-6.039,5.824,5.824,0,0,1,3.178,1.031l.952.651c5.991,4.193,9.288,10,9.288,16.346A20.033,20.033,0,0,1,433.763,316.418Zm-5.434-32.207a6.592,6.592,0,0,1-3.819-.978,17.663,17.663,0,0,1-8.773-15.648c0-9.416,7.81-16.791,17.78-16.791,12.536,0,16.63,9.24,16.63,12.425a5.566,5.566,0,0,1-5.921,5.835c-2.641-.227-3.9-2.026-5.018-3.615-1.34-1.9-2.493-3.55-5.772-3.55a5.879,5.879,0,0,0-5.776,5.53c0,3.043.981,4.933,3.286,6.317a5.682,5.682,0,0,1,2.726,4.885,5.605,5.605,0,0,1-5.25,5.586l-.047,0Z" transform="translate(663.528 206.617)" fill="#fff"/>
    <path id="Path_5" data-name="Path 5" d="M447.1,283.237a33.325,33.325,0,0,1,20.821-30.9,14.8,14.8,0,0,1,5.442-1.132,5.537,5.537,0,0,1,5.588,5.592A5.62,5.62,0,0,1,475,262.362c-9.65,1.915-16.473,10.666-16.473,20.875,0,11.034,8.252,18.871,16.407,20.913a5.387,5.387,0,0,1,3.833,4.668,3.954,3.954,0,0,1,.106,1.023,6.489,6.489,0,0,1-.46,2.366l-.077.2-.12.183a5.729,5.729,0,0,1-4.933,2.755,13.975,13.975,0,0,1-4.945-1.048C458.542,310.449,447.1,300,447.1,283.237Zm34.018,26.6a5.7,5.7,0,0,1,3.895-5.655,21.465,21.465,0,0,0,16.616-20.949,21.815,21.815,0,0,0-16.56-20.91,5.774,5.774,0,0,1-3.947-5.088v-.007c0-3.093,1.919-6.107,5.586-6.107a15.858,15.858,0,0,1,5.617,1.215c9.581,4.017,20.729,14.507,20.729,30.9,0,16.417-11.375,26.944-21.117,30.971a14.138,14.138,0,0,1-5.147,1.143A5.6,5.6,0,0,1,481.123,309.842Z" transform="translate(675.764 206.74)" fill="#fff"/>
    <path id="Path_6" data-name="Path 6" d="M508.115,316.427a5.68,5.68,0,0,1-5.673-5.672V256.226a5.715,5.715,0,0,1,11.429,0v54.529A5.653,5.653,0,0,1,508.115,316.427Zm14.5-.659a5.68,5.68,0,0,1-5.673-5.672c0-5.59,6.227-5.59,8.886-5.59h9.059c6.458,0,7.814,3.039,7.814,5.59,0,5.672-5.994,5.672-8.554,5.672Z" transform="translate(696.424 206.527)" fill="#fff"/>
    <path id="Path_7" data-name="Path 7" d="M543.994,316.53a5.72,5.72,0,0,1-5.673-5.753v-54.61a5.714,5.714,0,0,1,11.428,0v54.61A5.76,5.76,0,0,1,543.994,316.53Z" transform="translate(709.82 206.505)" fill="#fff"/>
    <path id="Path_8" data-name="Path 8" d="M559.537,316.53a5.722,5.722,0,0,1-5.673-5.753v-54.61a5.714,5.714,0,0,1,11.428,0v54.61A5.76,5.76,0,0,1,559.537,316.53Zm14.165-.74c-5.434,0-6.249-3.556-6.249-5.672,0-3.392,2.413-5.671,6-5.671h4.613c12.606,0,21.757-8.7,21.757-20.688,0-12.326-8.946-20.934-21.757-20.934h-4.613c-3.589,0-6-2.28-6-5.672,0-3.49,2.413-5.835,6-5.835l2.109.051c2.126.048,4.221.1,6.312.288,17.067,1.468,29.461,14.935,29.461,32.021,0,16.8-12.246,30.164-29.119,31.772C579.7,315.678,576.921,315.79,573.7,315.79Z" transform="translate(715.623 206.505)" fill="#fff"/>
    <path id="Path_9" data-name="Path 9" d="M651.047,316.449a5.674,5.674,0,0,1-5.2-3.429c-1.206-2.792-3.363-7.56-5.917-13.128H625.528a5.631,5.631,0,1,1,0-11.26h9.137c-1.1-2.371-2.211-4.766-3.307-7.121-4.029-8.659-8.145-17.355-10.3-22.868-.148-.456-.218-.641-.268-.777a3.815,3.815,0,0,1-.29-1.618,5.761,5.761,0,0,1,5.756-5.753,5.57,5.57,0,0,1,5.067,3.159c6.091,13.1,11.531,25.082,16.823,36.736,2.733,6.017,5.423,11.944,8.143,17.889a5.645,5.645,0,0,1,.518,2.5A5.589,5.589,0,0,1,651.047,316.449Zm-47.692,0a5.59,5.59,0,0,1-5.757-5.672,5.7,5.7,0,0,1,.549-2.563c6.048-13.224,7.31-16.016,11.485-25.273l4.507-9.927a5.765,5.765,0,0,1,10.918,2.572,4.749,4.749,0,0,1-.187,1.242l-.128.424c-2.359,5.9-5.286,12.064-8.884,19.724-2.8,5.955-5.444,11.582-7.32,16.072A5.663,5.663,0,0,1,603.355,316.449Z" transform="translate(731.951 206.505)" fill="#fff"/>
    <path id="Path_10" data-name="Path 10" d="M658.9,316.306a5.721,5.721,0,0,1-5.673-5.753V270.026a5.714,5.714,0,0,1,11.427,0v40.528A5.76,5.76,0,0,1,658.9,316.306Zm-16.968-53.54a5.846,5.846,0,0,1-5.759-5.918,5.764,5.764,0,0,1,5.759-5.754H674.8a5.8,5.8,0,0,1,5.835,5.754,5.884,5.884,0,0,1-5.835,5.918Z" transform="translate(746.353 206.729)" fill="#fff"/>
    <path id="Path_11" data-name="Path 11" d="M679.752,316.449a5.68,5.68,0,0,1-5.674-5.672V256.248a5.755,5.755,0,0,1,11.51,0v54.529A5.7,5.7,0,0,1,679.752,316.449Zm14.5-.659a5.68,5.68,0,0,1-5.675-5.672c0-5.59,6.116-5.59,9.051-5.59h12.353c2.056,0,8.312,0,8.312,5.59,0,5.672-6.116,5.672-9.052,5.672Zm0-26.772a5.679,5.679,0,0,1-5.675-5.669c0-5.672,6.168-5.672,9.132-5.672h12.851c6.488,0,6.992,4.341,6.992,5.672,0,5.669-6.167,5.669-9.133,5.669Zm0-26.438a5.759,5.759,0,0,1-5.675-5.672,5.679,5.679,0,0,1,5.675-5.672h18.286a5.72,5.72,0,0,1,5.756,5.672,5.792,5.792,0,0,1-5.756,5.672Z" transform="translate(760.505 206.505)" fill="#fff"/>
    <path id="Path_12" data-name="Path 12" d="M717.827,316.53a5.721,5.721,0,0,1-5.675-5.753v-54.61a5.715,5.715,0,0,1,11.429,0v54.61A5.76,5.76,0,0,1,717.827,316.53Zm14.165-.74c-5.434,0-6.249-3.556-6.249-5.672,0-3.392,2.411-5.671,6-5.671h4.612c12.607,0,21.757-8.7,21.757-20.688,0-12.326-8.946-20.934-21.757-20.934h-4.612c-3.59,0-6-2.28-6-5.672,0-3.49,2.411-5.835,6-5.835l2.108.051c2.13.048,4.222.1,6.312.288,17.068,1.468,29.463,14.935,29.463,32.021,0,16.8-12.248,30.164-29.121,31.772C737.993,315.678,735.21,315.79,731.991,315.79Z" transform="translate(774.72 206.505)" fill="#fff"/>
  </g>
</svg>
