<svg xmlns="http://www.w3.org/2000/svg" viewBox="0 0 743.04 120.94"><defs><style>.cls-1{fill:#58595b;}</style></defs><g id="Layer_2" data-name="Layer 2"><g id="Text_1:1_" data-name="Text (1:1)"><polygon class="cls-1" points="709.09 1.56 698.4 20.62 672 20.62 642.24 77.26 71.52 76.78 81.36 54.7 60 76.78 46.56 77.02 45.84 53.74 32.88 77.02 14.64 76.78 56.03 0.94 43.2 0.94 0 77.02 0.14 77.02 0 77.26 51.6 120.94 674.4 120.94 705.6 61.9 730.08 61.9 743.04 39.34 709.09 1.56"/><polygon class="cls-1" points="92.66 9.24 75.61 0.94 76.32 25.42 92.66 9.24"/><polygon class="cls-1" points="584.4 17.74 589.59 9.01 581.28 1.18 572.16 17.74 584.4 17.74"/><path class="cls-1" d="M362.4,14.62l-3.12,5.52h3.12a5.7,5.7,0,0,0,5.28-2.64c1.7-2.73-.67-2.8-1.92-2.88Z"/><polygon class="cls-1" points="263.01 8.63 254.4 1.18 254.16 1.18 257.28 18.46 263.01 8.63"/><polygon class="cls-1" points="154.08 34.78 155.52 26.38 149.76 34.78 154.08 34.78"/><path class="cls-1" d="M614.4,20.62l5.82-12.24-2.7-7.2L590.88,53.26h-25.2L575.76,35.5H564L553.68,53.26H529.44L556.32,1.18,550.8,11.5c.07,0,2.55-10.94-20.48-11.5,4.59.89,8.47,2.49,9.68,5.26,2,4.51.44,11.4,0,13.92H514.8c.49-1.71,1-7.36-2.64-7.44-6.62.08-14.55,7.82-17.52,14.4-1.31,3.44-4.75,14.7,2.64,14.64,1.46.06.86.53,5.28-2.16,2.3-1.45,2.74-3.64,4.08-5.28l-7.44.24,4.56-9.36h34.08l-15.6,29H510l3.84-6.72c-5.57,5.67-15.81,9.63-25,9.6-8.3,0-12.85-2.24-14.88-3.36-4.07-2-8.11-11.22-.72-25.2C478,18.47,482,12.27,486,8l-4.51-6.47L453.36,53.26h-21.6L455.9,8.86,453.08,1.7,445.2,16.3H427l-2.64,5.28H442.8l-5.52,9.36h-17l-2.88,5.76h17.28L424.8,53.26H380.64L400.07,16.6c-.1-2.14-1.21-11.89-13.19-14l-.38.06c5.42,3,7.4,7.73,6.38,15.06a16.37,16.37,0,0,1-7.68,12.48c-3.58,2.25-8.18,2.9-11.28,3.84l2.4,19.2H356.16l-1.92-18.48H351.6L342,53.26H319l24.46-46L340.8,1.18h-.24l-7.92,14.88H310.8l-2.64,5.28h21.6L321.84,36h-21.6l-9.6,17.28H270L294.17,8,292.8,1.18h-.48L264.24,53.26H238.56l-4.32-16.32L225.6,53.26H205.44l24-44.56-2.39-7.15L199.44,53.26H177.6l23.59-43-23-8.76-5.67,51.78H152.88l.72-7.2h-9.84l-5.52,7.2H118.32l31.59-44.8L134.64.94h-1.06L108.72,60.46h506.4l22.32-39.84Z"/></g></g></svg>