<svg xmlns="http://www.w3.org/2000/svg" viewBox="0 0 396.81 365.46"><defs><style>.cls-1{fill:#58595b;}</style></defs><g id="Layer_2" data-name="Layer 2"><g id="Layer_1_1:1_" data-name="Layer 1 (1:1)"><path class="cls-1" d="M117.57,282.92v5a28.81,28.81,0,0,1-12.81,2.72,21.24,21.24,0,0,1-10-2.14,16.44,16.44,0,0,1-6.51-5.87,15,15,0,0,1,3.09-19.74,20,20,0,0,1,13.52-4.71,34.86,34.86,0,0,1,12.33,2.6v4.88a26.29,26.29,0,0,0-12.08-3.17,14.85,14.85,0,0,0-10,3.43A11.29,11.29,0,0,0,95,283.1a14.9,14.9,0,0,0,10,3.35,24.64,24.64,0,0,0,12.51-3.53"/><polygon class="cls-1" points="130.03 258.57 135.07 258.57 135.07 290.26 130.03 290.26 130.03 258.57 130.03 258.57"/><polygon class="cls-1" points="146.07 258.53 175.49 258.53 175.49 262.57 163.21 262.57 163.21 290.28 158.15 290.28 158.15 262.57 146.07 262.57 146.07 258.53 146.07 258.53"/><polygon class="cls-1" points="207.64 258.57 213.76 258.57 200.74 273.5 200.74 290.26 195.58 290.26 195.58 273.5 182.57 258.57 188.66 258.57 198.08 269.5 207.64 258.57 207.64 258.57"/><path class="cls-1" d="M261.67,258.12a20.2,20.2,0,0,1,13.6,4.65,14.73,14.73,0,0,1,5.42,11.66A14.51,14.51,0,0,1,275.21,286q-5.49,4.59-13.81,4.59A19.53,19.53,0,0,1,248.13,286a14.61,14.61,0,0,1-5.3-11.52,14.89,14.89,0,0,1,5.34-11.75q5.33-4.65,13.5-4.65m.2,4.31a14.56,14.56,0,0,0-9.94,3.4,11,11,0,0,0-3.89,8.69,10.83,10.83,0,0,0,3.91,8.53,15.66,15.66,0,0,0,19.6-.07,11,11,0,0,0,3.95-8.64,10.82,10.82,0,0,0-3.95-8.48,14.19,14.19,0,0,0-9.68-3.43"/><polygon class="cls-1" points="293.14 258.57 311.92 258.57 311.92 262.61 298.17 262.61 298.17 271.47 311.92 271.47 311.92 275.5 298.17 275.5 298.17 290.26 293.14 290.26 293.14 258.57 293.14 258.57"/><polygon class="cls-1" points="40.31 317.88 25.23 335.3 10.11 317.88 0 317.88 0 364.84 11.66 364.84 11.66 335.54 24.34 350.26 26.1 350.26 38.79 335.54 38.79 364.84 50.49 364.84 50.49 317.88 40.31 317.88 40.31 317.88"/><path class="cls-1" d="M100.86,317.28q12,0,19.44,7.24a22.84,22.84,0,0,1,7.41,16.87,22.58,22.58,0,0,1-7.52,16.9q-7.55,7.15-19.33,7.17-11.94,0-19.44-7.14a22.59,22.59,0,0,1-7.49-16.93,22.83,22.83,0,0,1,7.44-16.89q7.45-7.22,19.49-7.22m0,38.43a14.75,14.75,0,0,0,10.72-3.95,15.27,15.27,0,0,0,0-20.76c-2.71-2.63-6.29-3.93-10.72-3.93s-8,1.3-10.77,3.93a15.22,15.22,0,0,0,0,20.76c2.72,2.63,6.3,3.95,10.77,3.95"/><polygon class="cls-1" points="198.83 317.89 198.83 364.86 188.95 364.86 163.04 334.77 163.04 364.86 151.34 364.86 151.34 317.89 162.06 317.89 187.13 346.6 187.13 317.89 198.83 317.89 198.83 317.89"/><path class="cls-1" d="M251.94,317.89l20.86,47H260.22l-3.87-9.27h-21l-3.51,9.27h-12.4l19-47Zm1,29.48-7.63-18.25-6.89,18.25Z"/><path class="cls-1" d="M325.16,320.92v9.18q-9.35-4.22-14.9-4.21a10.23,10.23,0,0,0-5,1.06,3.16,3.16,0,0,0-1.86,2.8,3.44,3.44,0,0,0,1.33,2.55c.91.82,3.09,1.87,6.57,3.13a70.83,70.83,0,0,1,8.33,3.57,16.49,16.49,0,0,1,5.41,4.65,12.21,12.21,0,0,1,2.26,7.56,12.49,12.49,0,0,1-5,10.38c-3.3,2.58-7.67,3.87-13.06,3.87a34.61,34.61,0,0,1-16.94-4.54V350.8a45.07,45.07,0,0,0,8.34,4.61,20.42,20.42,0,0,0,7.7,1.43c4.59,0,6.88-1.43,6.88-4.31a3.81,3.81,0,0,0-1.38-2.8c-.91-.88-3.13-1.94-6.64-3.2a68.34,68.34,0,0,1-8.34-3.49,15.89,15.89,0,0,1-5.31-4.6,12.5,12.5,0,0,1-2.23-7.67,11.7,11.7,0,0,1,4.88-9.77q4.86-3.71,13-3.71a40,40,0,0,1,15.9,3.63"/><polygon class="cls-1" points="385.12 317.88 385.12 336.74 361.72 336.74 361.72 317.88 350.02 317.88 350.02 364.86 361.72 364.86 361.72 345.85 385.12 345.85 385.12 364.86 396.81 364.86 396.81 317.88 385.12 317.88 385.12 317.88"/><path class="cls-1" d="M196.69,100.44S203.39-2.36,307.61,0V197H86V0c104.22-2.4,110.92,100.4,110.92,100.4Z"/></g></g></svg>