<svg xmlns="http://www.w3.org/2000/svg" viewBox="0 0 283.47 52.55"><defs><style>.cls-1{fill:#58595b;}</style></defs><g id="Layer_2" data-name="Layer 2"><g id="Layer_1_1:1_" data-name="Layer 1 (1:1)"><path class="cls-1" d="M66.87,22.06c4.59,0,6,4.19,6,6.5H60.47A6.27,6.27,0,0,1,66.87,22.06Zm13.18,19.4a34.84,34.84,0,0,1-4,1.12,25.13,25.13,0,0,1-4.93.5c-5.43,0-9.68-1.81-10.37-6.11H83.88A27.06,27.06,0,0,0,84.35,32c0-9.78-4.86-18.75-17.27-18.75C55,13.29,48.6,22.74,48.6,33.34c0,12.21,8.54,19.2,20.46,19.2a34.91,34.91,0,0,0,7.09-.65,28.62,28.62,0,0,0,5.77-1.81Z"/><path class="cls-1" d="M246.67,22.06c4.59,0,6,4.19,6,6.5H240.28A6.27,6.27,0,0,1,246.67,22.06Zm13.19,19.4a34.84,34.84,0,0,1-4,1.12,25.13,25.13,0,0,1-4.93.5c-5.43,0-9.68-1.81-10.37-6.11h23.16a27.06,27.06,0,0,0,.47-4.93c0-9.78-4.86-18.75-17.27-18.75-12.06,0-18.48,9.45-18.48,20.05,0,12.21,8.54,19.2,20.46,19.2a35,35,0,0,0,7.09-.65,28.33,28.33,0,0,0,5.76-1.81Z"/><path class="cls-1" d="M90,.84V51.73h12.56V.84Z"/><path class="cls-1" d="M127.81,43.22c-4.08,0-6.76-4-6.76-10.27,0-5,1.8-10.27,6.8-10.27,4.83,0,6.55,5.49,6.55,10.22C134.4,39.16,131.79,43.22,127.81,43.22Zm-.17,9.32c9.8,0,19.72-6.18,19.72-20,0-8.21-4.86-19.23-19.1-19.23-14.67,0-20,10.68-20,19.86C108.25,44.72,116.24,52.54,127.64,52.54Z"/><path class="cls-1" d="M152.82,14.18V51.73h12.56V14.18Z"/><path class="cls-1" d="M152.82.85V10.6h12.56V.85Z"/><path class="cls-1" d="M175.33,4V14.17H170.5v9.31h4.83V38.86c0,8.47,3.87,13.64,12.7,13.64a37.87,37.87,0,0,0,5.25-.42,26.25,26.25,0,0,0,3.62-.74s-.09-9.81-.09-9.84a27,27,0,0,1-4.29.62,4.84,4.84,0,0,1-3.58-1.23,5.62,5.62,0,0,1-1.32-4.13V23.48h8.12V14.17h-8.12V2.57Z"/><path class="cls-1" d="M204.39,4V14.17h-4.83v9.31h4.83V38.86c0,8.47,3.86,13.64,12.7,13.64a37.85,37.85,0,0,0,5.24-.42,26.48,26.48,0,0,0,3.63-.74s-.09-9.81-.09-9.84a27,27,0,0,1-4.29.62A4.88,4.88,0,0,1,218,40.89a5.67,5.67,0,0,1-1.31-4.13V23.48h8.12V14.17h-8.12V2.57Z"/><path class="cls-1" d="M269.57,45.6a6.95,6.95,0,1,1,6.95,6.95A6.95,6.95,0,0,1,269.57,45.6Z"/><path class="cls-1" d="M0,51.79H14.21c1,0,2.13,0,3-.07C36.7,50.71,44.8,39.2,44.8,25.91,44.8,9.3,33.6,0,14.27,0,9.31,0,4.9.17,0,.58ZM18.17,41.65c-.52,0-1.31.06-1.81.06h-4V10.43c1.37-.12,3.12-.2,4.29-.2,7.3,0,15.08,4.73,15.08,15.68C31.75,37.32,24.44,41.13,18.17,41.65Z"/></g></g></svg>