<svg xmlns="http://www.w3.org/2000/svg" viewBox="0 0 1026.2 563.2"><defs><style>.cls-1{fill:#58595b;}</style></defs><g id="Layer_2" data-name="Layer 2"><g id="svg4470_1:1_" data-name="svg4470 (1:1)"><g id="layer1"><g id="g4555"><polygon id="polygon4474" class="cls-1" points="639.2 115.6 639.2 331.9 457 217.8 457 0 639.2 115.6"/><polygon id="polygon4476" class="cls-1" points="650.5 115.6 650.5 331.9 832.7 217.8 832.7 0 650.5 115.6"/><polygon id="polygon4478" class="cls-1" points="1026.2 115.6 1026.2 331.9 844 217.8 844 0 1026.2 115.6"/><path id="path4480" class="cls-1" d="M281.4,558H266c-2.7,0-4.6-2.1-4.6-5.2V385.1c0-3.1,1.7-4.1,4.6-5.2l15.4-5.2c2.4-.8,4.6,2.1,4.6,5.2V552.8c0,3.1-1.8,5.2-4.6,5.2Z"/><path id="path4482" class="cls-1" d="M403.8,396.3c-20.3,0-37.2,1.8-53.8,7.2V552.8c0,3.4-2.2,5.2-4.4,5.2H330c-2.5,0-4.6-1.8-4.6-5.2v-144c0-15.2,2.8-19.7,13.2-25.2,13.5-6.9,41.2-11.4,56-11.4h7.7c1.5,0,4.3.7,4.3,5.2v14.8c0,2.4-.6,4.1-2.8,4.1Z"/><path id="path4484" class="cls-1" d="M709.4,558.3a179.75,179.75,0,0,1-40,4.8c-26.5,0-81.3-1-81.3-57,0-46.3,22.8-48.7,53.2-54.2l69.3-10.8V424.9c0-11.1-.6-20-11.4-24.5-5.9-2.8-14.5-4.2-28-4.2-23.7,0-55.1,6.6-67.7,10a12.5,12.5,0,0,1-1.9.3,3.22,3.22,0,0,1-3.1-2.8s-2.3-12.4-2.8-15.3c-.4-2.1.7-4.1,3.1-5.1,9.9-4,47.1-10.7,75.1-10.7,21.8,0,36,3.4,44.9,9,15.7,9.3,16.3,25.6,16.3,41.8v99.1c.1,24.4-4.5,30-25.7,35.8Zm1.2-95.3-67.4,10.7c-14.8,3.1-29.9,3.8-29.9,31.1,0,34.6,36.1,37,56.4,37,13.5,0,28-2.1,40.9-6.9Z"/><path id="path4486" class="cls-1" d="M907.9,550.8a4.37,4.37,0,0,1-2.9,4.5c-7.7,3.8-53,7.9-71.2,7.9-57.5,0-72.6-30.4-72.6-95,0-64.9,15.1-95.3,72.6-95.3,18.2,0,59.1,6.3,66.9,10.1.9.6,3.3,1.4,2.9,4.5-.2,1.4-2.3,13.5-2.3,13.5-.6,2.8-1.5,4.8-5.6,3.7-6.5-2-44.4-9.3-60.7-9.3-36.9,0-48.6,17.6-48.6,72.6,0,55.3,11.7,72.9,48.6,72.9,16.3,0,57.6-4.5,65-6.5,2.8-.8,5-.3,5.6,3.7,0-.1,2.3,10.6,2.3,12.7Z"/><path id="path4488" class="cls-1" d="M224.9,430.2c0-36.9-16.3-57.3-52.9-57.3H153.2c-18.6,0-32.1,3.8-40.8,12.1-8.7-8.2-22.2-12.1-40.8-12.1H52.9C16.3,372.9,0,393.3,0,430.2V552.9c0,3.1,1.9,5.2,4.6,5.2H20c2.8,0,4.6-2.1,4.6-5.2V430.8c.6-20.9,8.2-35.8,28.9-35.8H71c21.5,0,29.2,7.9,29.2,30.7V552.9c0,3.1,1.9,5.2,4.6,5.2h15.4c2.8,0,4.6-2.1,4.6-5.2V425.7c0-22.8,7.7-30.8,28.9-30.7h17.5c20.7,0,28.3,15,28.9,35.8V552.9c0,3.1,1.9,5.2,4.6,5.2h15.4c2.8,0,4.6-2.1,4.6-5.2Z"/><path id="path4490" class="cls-1" d="M485.7,558c-3.1,0-5.5-2.1-6.4-5.5l-50-169.6c-1-3.6.9-6.2,2.7-6.2h18.5c3.1,0,4,2.1,4.6,4.5L501.2,538h1.3l46.1-156.8c.6-2.4,1.5-4.5,4.6-4.5h18.5c1.8,0,3.8,2.8,2.7,6.2l-50,169.6c-.9,3.4-3.3,5.5-6.4,5.5Z"/><path id="path4492" class="cls-1" d="M445.6,0C408.1,36.7,304.9,58.9,270.9,151.5c-27.5,75-11.8,183-11.8,183s158.2-61.3,186.5-116.7Z"/></g></g></g></g></svg>