<svg xmlns="http://www.w3.org/2000/svg" viewBox="0 0 623.62 180.81"><defs><style>.cls-1{fill:#58595b;}.cls-2{fill:#fff;}</style></defs><g id="Layer_2" data-name="Layer 2"><g id="图层_2_1:1_" data-name="图层 2 (1:1)"><path class="cls-1" d="M242.13,88.29v44.12c0,18.13-7.45,26.57-23.43,26.57-18.51,0-22.4-14.45-22.4-26.57V88.29h-5.4v44.12c0,20.81,9.35,31.36,27.8,31.36,19.13,0,28.83-10.55,28.83-31.36V88.29h-5.4Z"/><path class="cls-1" d="M282.48,107.45c-8.29,0-15.47,4.45-18.52,11.2v-10h-4.79V162H264V133.21c0-13.05,7.23-21.48,18.42-21.48,14.44,0,14.44,12.57,14.44,16.69V162h4.78V129.13c0-5.92,0-21.68-19.12-21.68"/><polygon class="cls-1" points="313.45 108.68 313.45 162.04 318.24 162.04 318.24 108.68 317.79 108.68 313.45 108.68"/><polygon class="cls-1" points="313.45 92.36 313.45 99.55 318.24 99.55 318.24 92.36 317.79 92.36 313.45 92.36"/><path class="cls-1" d="M365.73,108.68l-17.55,47.41-18.76-47.41H324L345.44,162h5.42L371,108.68h-5.27Z"/><path class="cls-1" d="M397.07,107.45a21.48,21.48,0,0,0-15.7,6.32c-5.16,5.23-8,13.43-7.92,22.51-.11,8.38,2.47,15.69,7.29,20.57a22.34,22.34,0,0,0,16.33,6.41c12.82,0,21-6.87,23.09-19.36l.1-.53h-4.79l-.06.38c-1.82,9.54-8.68,15.23-18.34,15.23a16.9,16.9,0,0,1-12.56-5c-4-4.06-6.27-10.42-6.27-17.5v-.11h42.33l0-.44c0-.67,0-1.34,0-2,0-8.17-2.42-15.18-6.92-19.89-4.14-4.34-9.74-6.55-16.64-6.55m0,4.28c11.86,0,18.31,10.14,18.68,20.32H378.31c1-10.18,7.65-20.32,18.76-20.32"/><path class="cls-1" d="M434,119.27V108.68h-4.79v53.37H434V132.9c.42-8,2.13-11,5.8-14.78a17.42,17.42,0,0,1,14.1-5l.51.07V108.4l-.43,0c-8.75-.38-17.14,4.33-20,10.89"/><path class="cls-1" d="M479.6,132.46l-1.62-.34c-8-1.69-15.45-3.28-15.45-10.74,0-7.11,7.56-9.65,14.64-9.65,5.57,0,14.94,1.67,15.06,12.92v.45H497v-.45c0-11.09-7.05-17.2-19.84-17.2-4.55,0-19.43,1-19.43,13.93,0,11.61,10.65,13.77,18.42,15.34l1.38.28c8.34,1.68,16.22,3.27,16.22,11.32,0,9.63-11.32,10.66-16.18,10.66-9.69,0-16.32-5.84-16.89-14.87l0-.43h-4.77v.46c.3,11.79,8.61,19.12,21.68,19.12,4.92,0,21-1.08,21-14.94,0-11.41-8.58-13.93-18.94-15.86"/><polygon class="cls-1" points="508.35 108.68 508.35 162.04 513.14 162.04 513.14 108.68 512.68 108.68 508.35 108.68"/><path class="cls-1" d="M533.75,108.68V92.35H529v16.33h-9.69V113H529v36.17l0,.91c0,4.1,1,7.09,3.08,9.1,3.18,3.08,8.41,3.16,12.62,2.9l.43,0v-4.26h-.47c-4.33.12-7.18-.14-8.89-1.8-1.34-1.3-2-3.47-2-6.83V113h13.31c5.25,12.46,20.23,48.06,20.33,48.33-2.35,6.68-3.78,10.55-5.24,12-2.47,2.49-4.95,3.24-10.59,3.24h-.46v4.27h.46c5.84,0,9.59-.17,12.52-2.43,2.26-1.76,3.95-5.5,6.27-11L593,108.68h-5.37s-16.89,45-17.66,47.06c-.83-2.06-19.17-47.06-19.17-47.06Z"/><polygon class="cls-1" points="508.35 92.36 508.35 99.55 513.14 99.55 513.14 92.36 512.68 92.36 508.35 92.36"/><path class="cls-1" d="M312,76.29c-21.21-.44-39-16.72-38.49-39.22C274.08,19.36,288.3-.74,314.2,0c18,.34,38.26,13.88,37.71,38.79s-21.65,38-39.89,37.48m.76-71.67c-16.17,0-27.45,11.9-27.45,31.9,0,23.93,14.23,34.74,27.67,34.74,16.17,0,26.9-12.44,26.9-32.12.21-21.08-10.73-34.52-27.12-34.52"/><path class="cls-1" d="M623.62,2V1h-21.2V2c4.2.28,5.36,1.1,5.36,7.06V35h-38V9.1c0-6,1.16-6.78,5.35-7.06V1H553.91V2c4.19.28,5.36,1.1,5.36,7.06V67.18c0,6-1.17,6.8-5.36,7.07v1H575.1v-1c-4.19-.27-5.35-1.11-5.35-7.07V39.45h38V67.18c0,6-1.16,6.8-5.36,7.07v1h21.2v-1c-4.19-.27-5.35-1.11-5.35-7.07V9.1c0-6,1.16-6.78,5.35-7.06"/><path class="cls-1" d="M357.53,1V2.05c4.08.21,5.24.66,5.24,5V67.17c0,6-1.16,6.81-5.36,7.08v1h16v-1c-4.2-.27-5.36-1.11-5.36-7.08v-54c0,1,41.37,51.33,50.3,62.17h1.71V7c0-4.29,1.16-4.74,5.24-4.95V1H409.58V2.05c4.09.21,5.25.66,5.25,5V54.21L371.67,1Z"/><path class="cls-1" d="M461.78,1H460.3c-3.76,8.93-21.14,50.08-27.2,64.3-1.05,2.43-2.74,6.37-4,7.74a3.69,3.69,0,0,1-2.81,1.22v1h14.12v-1c-1.12,0-3.54,0-3.72-2.11a6.46,6.46,0,0,1,.4-2.19c.45-1.33,3.29-8.53,6.89-16.73h28.3c2.79,6.92,5.33,12.83,6.51,15.45a12.33,12.33,0,0,1,1.05,3.47c0,2.06-1.81,2.11-3.86,2.11v1h19.75v-1c-2.43-.16-3.2-.77-5-4.79ZM445.85,48.52c4.81-11.8,12.24-30.59,12.24-30.59s6.66,16.82,12.35,30.59Z"/><path class="cls-1" d="M187.06,1V2.05c2.29.12,3.63.34,4.4,1.23l.58,1.1v0l.21,1.19L192.31,7V67.17c0,6-1.16,6.81-5.36,7.08v1h15.84v-1c-4.19-.27-5.35-1.11-5.35-7.08V15.64c0-1-.22-2.84-.22-2.84l1,2.84L223.87,75h1.56l26.21-61.13.76-2.52a14.87,14.87,0,0,0-.22,2.3v53.5c0,6-1.15,6.81-5.34,7.08v1H268v-1c-4.19-.27-5.36-1.11-5.36-7.08V7c0-4.29,1.17-4.74,5.25-4.95V1h-16.5L227.71,57.05,203.67,1Z"/><path class="cls-1" d="M499.46,70.3c5,3,12.38,6.14,20.21,6.11h.44c11.6-.16,23.82-8.74,23.82-22.27,0-14.64-10.27-18-20.65-23.39C512.79,25.61,508.42,23,508.42,16.1c0-4.69,2.84-11.57,12.13-11.57a16.61,16.61,0,0,1,7.8,1.93c7.52,4.17,7.89,10.08,8.86,13.82h1.1l-.64-16.54A48.08,48.08,0,0,0,526.43.45a34.2,34.2,0,0,0-4.35-.3c-10.38,0-22.62,6.23-22.62,19.34,0,9,5.35,14.54,15.95,19.78s18.47,7.43,18.47,17.92c0,5.36-3.06,14.64-14.86,14.64a17.39,17.39,0,0,1-11.43-4.11c-7-6.61-6.84-11.85-7.37-13.81h-1.09l.33,16.39"/><path class="cls-1" d="M20.08,57.87a99.82,99.82,0,0,0,14.4,50.86,83.53,83.53,0,0,0,41.35,34.65,83.21,83.21,0,0,0,41.42-34.65,99.42,99.42,0,0,0,14.39-50.86V.68H20.08Z"/><path class="cls-1" d="M138.32,84.75l-.54,1.84c-.65,2.21-1.38,4.34-2.14,6.4l-4.81-4.33-.59,1.74a101.14,101.14,0,0,1-9.92,21.19C109.84,128.36,95,140.6,77.62,147l-1.79.64L74.1,147c-17.4-6.38-32.19-18.6-42.67-35.37A97.86,97.86,0,0,1,21.5,90.4l-.59-1.74-1.39,1.22L16.12,93c-.75-2-1.49-4.16-2.15-6.37l-.54-1.83L12,86,0,96.89l.22.72a138.81,138.81,0,0,0,11,24.87l.7,1.31,5-4.47.55,1c12.45,19.89,30.07,34.43,51,42.07l7.36,2.71,7.46-2.71c20.9-7.64,38.48-22.18,50.93-42l.58-1,4.93,4.46.74-1.31a135.63,135.63,0,0,0,11-24.87l.22-.72Z"/><path class="cls-2" d="M122.28,25.81a5,5,0,0,1-.52,2.22L121,29.14l-1.33.82-.07-.55a4.41,4.41,0,0,1,.55-2.22,4.94,4.94,0,0,1,2.1-2.05l.08.67"/><path class="cls-2" d="M113.21,40.93h0a4.78,4.78,0,0,1,2.83.51,4.4,4.4,0,0,1-2.55,1.37,5.2,5.2,0,0,1-2.93-.5,5,5,0,0,1,2.65-1.38"/><path class="cls-2" d="M108.42,42.43l0-.22a4.68,4.68,0,0,1,.72-2.55h0a4.65,4.65,0,0,1,2.16-1.78l0,.27a4.65,4.65,0,0,1-.71,2.48,4.14,4.14,0,0,1-2.19,1.8"/><path class="cls-2" d="M112.11,37.25a5.18,5.18,0,0,1,1.4-1.53l.28,1.33-.25,1.47a4.25,4.25,0,0,1-1.18,1.73l-.6.21,0-.12a5.79,5.79,0,0,0,.38-3.09"/><path class="cls-2" d="M114.2,34.88a5.28,5.28,0,0,1,1-1.84,4.8,4.8,0,0,1,.69,2.36l0,.38a4,4,0,0,1-.7,2l-.59.36,0-.11a5.71,5.71,0,0,0-.36-3.11"/><path class="cls-2" d="M115.68,32.05a6.36,6.36,0,0,1,.48-2,4.72,4.72,0,0,1,1.33,2.5l0,.64-.27,1.41-.47.51L116.7,35a6.81,6.81,0,0,0-1-3"/><path class="cls-2" d="M116.38,29l-.11-.95.19-1.07A4.74,4.74,0,0,1,118.33,29a4.85,4.85,0,0,1,.33,1.75l0,.28-.38.62-.12-.09A6.27,6.27,0,0,0,116.38,29"/><path class="cls-2" d="M116.44,25.88a4.64,4.64,0,0,1-.45-2.07,5.15,5.15,0,0,1,2.33,1.64,4.35,4.35,0,0,1,.76,1.91l-.2.69-.14-.05a5.9,5.9,0,0,0-2.3-2.12"/><path class="cls-2" d="M118.62,24.35l-.18,0a6.12,6.12,0,0,0-2.63-1.55,5.05,5.05,0,0,1-.89-1.85,4.56,4.56,0,0,1,2.55,1,4.25,4.25,0,0,1,1.19,1.73l0,.65"/><path class="cls-2" d="M117.4,20.86a5.51,5.51,0,0,0-3-.9,5.69,5.69,0,0,1-1.36-1.66,5,5,0,0,1,2.84.47,4.64,4.64,0,0,1,1.48,1.39l.13.69h-.11"/><path class="cls-2" d="M115.48,40.25,114,40a5.32,5.32,0,0,1,2.06-1.82,5.12,5.12,0,0,1,3-.18,4.66,4.66,0,0,1-2.22,1.91l-1.31.31"/><path class="cls-2" d="M118.16,37l-1.55.13a5,5,0,0,1,1.68-2.27h0a5,5,0,0,1,2.85-.89,5,5,0,0,1-1.72,2.46l-1.26.58"/><path class="cls-2" d="M121.1,32.38l-1.11.9-1.42.45a5.18,5.18,0,0,1,1.06-2.63,5.5,5.5,0,0,1,2.49-1.45,4.89,4.89,0,0,1-1,2.73"/><path class="cls-2" d="M121.6,22.58l-.13,1.1L120.9,25,119.81,26a4.88,4.88,0,0,1-.36-1.69l.15-1.13a5.13,5.13,0,0,1,1.61-2.49,5.29,5.29,0,0,1,.39,1.85"/><path class="cls-2" d="M118.18,19.46a5.09,5.09,0,0,1,1-2.76,5,5,0,0,1,1,2.78v0l-.25,1.38-.81,1.28a4.89,4.89,0,0,1-.87-2.65Z"/><path class="cls-2" d="M116.21,13.26a4.83,4.83,0,0,1,1.59,2.49l.13,1,0,.3-.51,1.52A4.68,4.68,0,0,1,116,16.21l-.09-1.07a5.56,5.56,0,0,1,.33-1.88"/><path class="cls-2" d="M115.65,17.66l-.13,0a6,6,0,0,0-3.17-.18,6,6,0,0,1-1.69-1.28,5.06,5.06,0,0,1,2.89-.2,4.32,4.32,0,0,1,1.82,1l.28.65"/><path class="cls-2" d="M112.62,10.59a4.79,4.79,0,0,1,2.14,2.08l.42,1.23a5.75,5.75,0,0,0-.14,1.6,5.44,5.44,0,0,1-2-2,4.85,4.85,0,0,1-.47-2.16l.09-.75"/><path class="cls-2" d="M111.53,12.5l.3.26.41,1.1v0l.69,1a5,5,0,0,1-2.51-.85,5.09,5.09,0,0,1-1.67-2.43,4.76,4.76,0,0,1,2.78.88"/><path class="cls-2" d="M98.29,33.82a1.09,1.09,0,0,1,1,1.12l-.12.45.25.42H101v-19a19.07,19.07,0,0,1,1.7-8.68l.43-.84.43.84a20,20,0,0,1,1.63,8.68v19h1.49l.25-.42-.11-.45a1.11,1.11,0,0,1,1.12-1.12A1.15,1.15,0,0,1,109,35c0,.78-.6,1.58-2,1.58h-2.47a10.45,10.45,0,0,1,.57,3.6,10.33,10.33,0,0,1-.82,4.29A13.55,13.55,0,0,0,108.86,43l.12-.08.35.82-.1.05A13.81,13.81,0,0,1,105.48,45l-1.71.31.3.74a1,1,0,0,1-1,1,1,1,0,0,1-1-1l.32-.74L100.49,45a13.76,13.76,0,0,1-3.62-1.27l-.1-.05.36-.82.11.08a13.84,13.84,0,0,0,4.64,1.48,9.2,9.2,0,0,1-.89-4.31,10.71,10.71,0,0,1,.56-3.6H99.08A1.7,1.7,0,0,1,97.15,35a1.17,1.17,0,0,1,1.14-1.15"/><path class="cls-2" d="M94.4,40.32l0,.15-.61-.21a3.91,3.91,0,0,1-1.1-1.74L92.42,37l.28-1.32A6.45,6.45,0,0,1,94,37.25a5.69,5.69,0,0,0,.37,3.07"/><path class="cls-2" d="M91.79,20a5.69,5.69,0,0,0-3.05.9h-.11l.13-.7a4.51,4.51,0,0,1,1.54-1.38,5,5,0,0,1,2.77-.48A4.84,4.84,0,0,1,91.79,20"/><path class="cls-2" d="M91.67,38l-.06.12L91,37.73a4.22,4.22,0,0,1-.72-2l0-.37A5,5,0,0,1,91,33a4.77,4.77,0,0,1,1,1.84A5.7,5.7,0,0,0,91.67,38"/><path class="cls-2" d="M88.65,32.56A4.72,4.72,0,0,1,90,30.06a4.83,4.83,0,0,1,.55,2,6.06,6.06,0,0,0-1.09,3l-.09.12-.47-.5-.28-1.43.05-.63"/><path class="cls-2" d="M88,31.6l-.11.09-.36-.64,0-.26A4.89,4.89,0,0,1,87.81,29,4.72,4.72,0,0,1,89.67,27L89.86,28l-.11.95A6.53,6.53,0,0,0,88,31.6"/><path class="cls-2" d="M88.68,22a4.72,4.72,0,0,1,2.62-1,5.15,5.15,0,0,1-.9,1.85,6.06,6.06,0,0,0-2.71,1.55l-.16,0,0-.66A4.1,4.1,0,0,1,88.68,22"/><path class="cls-2" d="M87.83,25.45a5,5,0,0,1,2.34-1.64,4.82,4.82,0,0,1-.47,2.05A6.18,6.18,0,0,0,87.39,28l-.12.06-.2-.68a4.12,4.12,0,0,1,.76-1.92"/><path class="cls-2" d="M87.57,33.73l-1.35-.45-1.1-.9A4.9,4.9,0,0,1,84,29.65a5.2,5.2,0,0,1,2.57,1.45,5.57,5.57,0,0,1,1,2.63"/><path class="cls-2" d="M87.85,34.86v0a5.05,5.05,0,0,1,1.67,2.26L88,37l-1.18-.59A4.91,4.91,0,0,1,85.08,34a4.63,4.63,0,0,1,2.77.89"/><path class="cls-2" d="M90.08,38.21h0A5.1,5.1,0,0,1,92.23,40l-1.5.23-1.38-.32a4.46,4.46,0,0,1-2.2-1.9,4.8,4.8,0,0,1,2.93.17"/><path class="cls-2" d="M93,40.93h0a5,5,0,0,1,2.61,1.38,5.15,5.15,0,0,1-2.87.5,4.92,4.92,0,0,1-2.61-1.37A5.06,5.06,0,0,1,93,40.93"/><path class="cls-2" d="M95.52,40.63a4.73,4.73,0,0,1-.7-2.48l0-.27a4.88,4.88,0,0,1,2.25,1.78h0a4.62,4.62,0,0,1,.72,2.54v.22a4.56,4.56,0,0,1-2.28-1.8"/><path class="cls-2" d="M93.91,13.87l.39-1.1.31-.27a5,5,0,0,1,2.86-.88,5,5,0,0,1-1.74,2.43,5.16,5.16,0,0,1-2.53.85l.69-1Z"/><path class="cls-2" d="M91.46,12.66a4.9,4.9,0,0,1,2.06-2.07l.1.75a4.71,4.71,0,0,1-.5,2.16,4.59,4.59,0,0,1-1.94,2,6.11,6.11,0,0,0-.13-1.59l.41-1.24"/><path class="cls-2" d="M90.83,17a4.3,4.3,0,0,1,1.83-1,4.63,4.63,0,0,1,2.8.21,5.74,5.74,0,0,1-1.68,1.27,5.79,5.79,0,0,0-3.09.18l-.13,0,.27-.65"/><path class="cls-2" d="M88.33,15.75a4.81,4.81,0,0,1,1.6-2.5,5.47,5.47,0,0,1,.4,1.89l-.12,1.07a5,5,0,0,1-1.47,2.37l-.52-1.51v-.3l.12-1"/><path class="cls-2" d="M86.11,19.48A5.22,5.22,0,0,1,87,16.7,5.36,5.36,0,0,1,88,19.47v0a5.12,5.12,0,0,1-.84,2.65l-.75-1.29-.25-1.37Z"/><path class="cls-2" d="M85,20.73a5.12,5.12,0,0,1,1.63,2.48l.13,1.13a4.9,4.9,0,0,1-.34,1.7L85.32,25l-.59-1.28-.14-1.11a5.5,5.5,0,0,1,.4-1.84"/><path class="cls-2" d="M84,25.13a4.92,4.92,0,0,1,2.17,2.06,4.63,4.63,0,0,1,.54,2.23L86.6,30l-1.34-.8L84.42,28a4.41,4.41,0,0,1-.56-2.22l.09-.68"/><path class="cls-1" d="M104.27,16.86a19.54,19.54,0,0,0-1.17-7.15V34.65h1.17Z"/><path class="cls-2" d="M57.32,37.26a19.33,19.33,0,0,0,6.19.89V12A21,21,0,0,1,57,11a19.26,19.26,0,0,0-5.12-.82,6.07,6.07,0,0,0-4.1,1.35V37.51a7.73,7.73,0,0,1,4.06-1.1,19.78,19.78,0,0,1,5.47.85"/><path class="cls-2" d="M42.52,36.41a7.48,7.48,0,0,1,4,1.11v-26a6,6,0,0,0-4.08-1.35,19,19,0,0,0-5.13.81,20.1,20.1,0,0,1-6.48.94V38.15a19.15,19.15,0,0,0,6.18-.89,19.56,19.56,0,0,1,5.47-.85"/><path class="cls-2" d="M66.8,12.5H65.12l.14.59,0,.13v27l-16.71,0c-.3.51-.66.6-1.44.6s-1-.09-1.31-.6L29,40.22V13.27l0-.19.14-.58H26.94V42.32h18a2.47,2.47,0,0,0,2.2,1.3,2.53,2.53,0,0,0,2.29-1.3h18V12.5Z"/><path class="cls-1" d="M51.85,16.51a9.51,9.51,0,0,0-2.53.4v1.34a8.46,8.46,0,0,1,2.57-.48,20.1,20.1,0,0,1,5.1.85,26.55,26.55,0,0,0,4.87.93V18.31a25.29,25.29,0,0,1-4.55-.91,20.29,20.29,0,0,0-5.46-.89"/><path class="cls-1" d="M51.85,31.7a9.13,9.13,0,0,0-2.53.4v1.34A7.44,7.44,0,0,1,51.89,33,19.12,19.12,0,0,1,57,33.8a27.35,27.35,0,0,0,4.88.92V33.49a23.11,23.11,0,0,1-4.57-.9,20.83,20.83,0,0,0-5.44-.89"/><path class="cls-1" d="M51.85,28.65a9.5,9.5,0,0,0-2.53.41V30.4a7.39,7.39,0,0,1,2.57-.48,19.38,19.38,0,0,1,5.11.85,27.13,27.13,0,0,0,4.86.91V30.46a26.19,26.19,0,0,1-4.55-.91,19.87,19.87,0,0,0-5.46-.9"/><path class="cls-1" d="M51.85,19.54a9.51,9.51,0,0,0-2.53.4v1.34a8.19,8.19,0,0,1,2.57-.47,18.91,18.91,0,0,1,5.09.85,28.09,28.09,0,0,0,4.88.92V21.34a26.22,26.22,0,0,1-4.57-.9,19.74,19.74,0,0,0-5.44-.9"/><path class="cls-1" d="M51.85,25.64a8.82,8.82,0,0,0-2.53.36v1.34a7.15,7.15,0,0,1,2.56-.44,19.18,19.18,0,0,1,5.09.85,28.38,28.38,0,0,0,4.89.9V27.43a25.73,25.73,0,0,1-4.59-.91,20.19,20.19,0,0,0-5.42-.88"/><path class="cls-1" d="M57.31,14.35a21,21,0,0,0-5.47-.86,9.53,9.53,0,0,0-2.52.38v1.34a7.64,7.64,0,0,1,2.56-.47,18.82,18.82,0,0,1,5.11.84,24.24,24.24,0,0,0,4.87.91V15.26a25.12,25.12,0,0,1-4.55-.91"/><path class="cls-1" d="M37.07,29.56a27.59,27.59,0,0,1-4.59.9v1.23a27.37,27.37,0,0,0,4.9-.93,19.64,19.64,0,0,1,5.1-.84,7.45,7.45,0,0,1,2.58.48V29.05a9.67,9.67,0,0,0-2.54-.39,19.21,19.21,0,0,0-5.45.9"/><path class="cls-1" d="M37.1,26.53a30.31,30.31,0,0,1-4.61.91v1.22a30.73,30.73,0,0,0,4.92-.91,18.67,18.67,0,0,1,5.07-.85,7.12,7.12,0,0,1,2.58.45V26a8.56,8.56,0,0,0-2.53-.38,19.66,19.66,0,0,0-5.43.89"/><path class="cls-1" d="M51.85,22.59a9.13,9.13,0,0,0-2.53.4v1.33a8.49,8.49,0,0,1,2.57-.47,18.64,18.64,0,0,1,5.11.86,28,28,0,0,0,4.86.9V24.39a25.29,25.29,0,0,1-4.55-.91,20.23,20.23,0,0,0-5.46-.89"/><path class="cls-1" d="M37.07,32.6a24.56,24.56,0,0,1-4.58.89v1.24a27.43,27.43,0,0,0,4.89-.93,18.76,18.76,0,0,1,5.1-.82,7.32,7.32,0,0,1,2.58.46V32.1a9.25,9.25,0,0,0-2.53-.4,20.34,20.34,0,0,0-5.46.9"/><path class="cls-1" d="M37.06,14.35a25.5,25.5,0,0,1-4.57.91v1.23a25.25,25.25,0,0,0,4.89-.91,18.51,18.51,0,0,1,5.1-.84,7.93,7.93,0,0,1,2.58.47V13.88a9.19,9.19,0,0,0-2.52-.39,20.7,20.7,0,0,0-5.48.86"/><path class="cls-1" d="M37.06,17.4a25.5,25.5,0,0,1-4.57.91v1.24a26.89,26.89,0,0,0,4.89-.93,19.33,19.33,0,0,1,5.1-.85,8,8,0,0,1,2.58.48V16.91a9.66,9.66,0,0,0-2.54-.4,20,20,0,0,0-5.46.89"/><path class="cls-1" d="M37.07,23.48a26.63,26.63,0,0,1-4.59.91V25.6a27.33,27.33,0,0,0,4.9-.9,18.49,18.49,0,0,1,5.1-.85,8.26,8.26,0,0,1,2.58.47V23a9.23,9.23,0,0,0-2.51-.4,19.57,19.57,0,0,0-5.48.89"/><path class="cls-1" d="M37.1,20.44a27.41,27.41,0,0,1-4.61.9v1.23a26.86,26.86,0,0,0,4.92-.91,18.29,18.29,0,0,1,5.07-.85,8,8,0,0,1,2.58.47V19.94a10.07,10.07,0,0,0-2.52-.4,19,19,0,0,0-5.44.9"/><polygon class="cls-2" points="60.42 105.15 60.37 109 57.33 106.62 54.22 109 54.14 105.15 50.42 104.19 53.38 101.75 51.8 98.22 55.57 99 57.33 95.56 59.02 99 62.86 98.22 61.21 101.75 64.17 104.19 60.42 105.15"/><polygon class="cls-2" points="81.47 132.28 77.65 130.84 75.95 134.59 74.3 130.84 70.42 132.28 71.86 128.43 68.15 126.68 71.86 124.99 70.42 121.1 74.3 122.55 75.95 118.78 77.65 122.55 81.47 121.1 80.08 124.99 83.78 126.69 80.08 128.43 81.47 132.28"/><polygon class="cls-2" points="70.31 80.6 74.14 81.41 75.83 77.95 77.59 81.41 81.39 80.6 79.8 84.11 82.75 86.6 79.01 87.52 78.94 91.39 75.83 89.04 72.81 91.39 72.74 87.52 69.01 86.6 71.96 84.11 70.31 80.6"/><polygon class="cls-2" points="85.6 111.83 82.6 110.34 79.68 111.83 80.22 108.54 77.83 106.19 81.12 105.67 82.6 102.72 84.14 105.67 87.38 106.19 85.1 108.54 85.6 111.83"/><polygon class="cls-2" points="97.78 99.72 94.34 99.67 92.72 102.61 91.06 99.67 87.63 99.72 89.39 96.81 87.63 93.88 91.06 93.94 92.72 90.97 94.34 93.94 97.78 93.88 96.01 96.81 97.78 99.72"/><path class="cls-2" d="M75.83,63.74l42.54,38.15a97.47,97.47,0,0,0,6.38-15.48L75.83,42.49,27,86.41a93.86,93.86,0,0,0,6.38,15.48Z"/><path class="cls-2" d="M141.81,114.76l2.29-14.2-6.58-5.91A59,59,0,0,0,139.4,89c2,1.79,8.62,7.75,9.57,8.59a124.55,124.55,0,0,1-7.16,17.15"/><path class="cls-2" d="M138.62,119.5c-.64-.58-1.55-1.4-2.6-2.31l0,0c1.5-2.56,2.92-5.16,4.17-7.87Z"/><path class="cls-2" d="M2.77,97.6c.94-.83,7.61-6.8,9.52-8.57.6,2,1.27,3.78,2,5.61l-6.59,5.92,2.28,14.16A125.3,125.3,0,0,1,2.77,97.6"/><path class="cls-2" d="M13.09,119.5l-1.57-10.25a86.72,86.72,0,0,0,4.21,7.91l-2.64,2.34"/><path class="cls-2" d="M132.22,119.06c-12.19,19.43-29.39,33.63-49.77,41.1,0,0-5.87,2.12-6.62,2.41-.66-.29-6.53-2.42-6.53-2.42-20.38-7.46-37.58-21.66-49.78-41.1a109.69,109.69,0,0,1-8.93-17.88l9.27-8.35a101.08,101.08,0,0,0,9.53,20c10.82,17.23,26,29.81,43.88,36.37l2.56.92,2.64-.92c17.93-6.55,33.07-19.14,43.84-36.37a99.52,99.52,0,0,0,9.58-20c1.82,1.69,8.2,7.41,9.26,8.35a111,111,0,0,1-8.93,17.89"/><path class="cls-1" d="M23.42,112.68l1.94-2.14-.17-.66-1.07-1.1c-2,.35-5.15.86-6.57.92l-.38-.43-.37.21.55,1,.62,1.19.36-.22-.16-.57,2.08-.49,1.12,2-1.5,1.57-.41-.47-.4.22.85,1.45.76,1.41.4-.23-.19-.57c.38-.54,1.63-2,2.54-3m-2.31-2.45,2.67-.55v0l-1.83,2Z"/><path class="cls-1" d="M32.92,122.68l.37-.28-.76-1-.7-1-.39.26.28.59c-1,.8-3.48,2.68-3.48,2.68v0c.63-1.76,1.38-3.8,2-5.64l-.69-.91L29,116.4l-.36.27.27.58a16.16,16.16,0,0,1-1.52,1.2l-1.68,1.2a16.81,16.81,0,0,1-1.63,1l-.47-.45-.35.26.74,1,.7,1,.36-.27-.29-.6c1-.8,2.42-1.83,3.56-2.67h0c-.73,1.86-1.41,3.79-2.15,5.75l.51.65.42.63c.54-.45,1.26-1,2.07-1.6l1.62-1.17c.61-.43,1.13-.75,1.65-1.06Z"/><path class="cls-1" d="M33.38,128.24a3.49,3.49,0,0,0-.17,5.07A4.84,4.84,0,0,0,36.68,135l.12-.82a3.21,3.21,0,0,1-2-1,2.54,2.54,0,0,1,.15-3.74,2.21,2.21,0,0,1,3.31.09,3.62,3.62,0,0,1,.8,1.6l-.37.44.33.39L40.5,131a7,7,0,0,0-1.39-2.16c-1.71-1.82-4.09-2.19-5.73-.64"/><path class="cls-1" d="M47,136.42a3.71,3.71,0,0,0-5.48.19c-1.45,1.8-1.11,3.81.81,5.43s4.2,1.38,5.46-.2c1.55-1.77,1.19-3.8-.79-5.42m-.64,4.2c-1,1.17-2.36,1.52-3.4.67s-.94-2.27,0-3.44,2.38-1.53,3.41-.66.87,2.25-.06,3.43"/><path class="cls-1" d="M57.17,143.81l-1.28-.76-1.28-.74-1.06-.7-.24.39.49.44a18.49,18.49,0,0,1-1,1.69l-1,1.73c-.4.61-.74,1.09-1.13,1.59l-.61-.25-.24.39,1.42.86,1.33.89.23-.39-.44-.44a11,11,0,0,1,.93-1.71l.34-.54.45.29c.12,1,.23,2.82.3,4.07a17.29,17.29,0,0,1,1.94,1l.24-.39-.2-.27c-.11-.49-.45-3-.56-3.7a1.89,1.89,0,0,0,2.49-.61c.49-.8.51-1.82-1.14-2.88m-.5,1.92c-.45.7-1.15.67-2,.13l-.52-.37.31-.5.82-1.19.85.46c.73.45.88.94.55,1.47"/><path class="cls-1" d="M67.57,149.36l-.53-.44-1.52-.26a62.39,62.39,0,0,1-4.74,4.69l-.57-.12-.18.41,1,.46,1.22.57.21-.42-.5-.35,1.39-1.62,2,.93a16.31,16.31,0,0,1-.28,2.13l-.61-.14-.18.41,1.56.67,1.45.68.18-.41-.48-.36c0-.64.09-2.57.22-4Zm-2.06,3L64,151.65l1.82-2h0Z"/><path class="cls-1" d="M87.74,154.81a13.7,13.7,0,0,1-.82-1.75l-.8-1.84a18.78,18.78,0,0,1-.72-1.81L86,149l-.19-.42-1.5.68-1.54.64.19.41.65-.15c.29.53.56,1.07.87,1.75l.82,1.85c.3.68.51,1.23.71,1.81l-.54.36.18.42,1.47-.69,1.5-.62-.19-.42Z"/><path class="cls-1" d="M100.45,147.9c-.37-.5-.7-1-1.09-1.63l-1-1.74a14.62,14.62,0,0,1-.92-1.7l.49-.43-.24-.4-1.25.77-1.28.73c.24.92.95,4.41,1.1,5.14-.8-.54-3.35-2.73-4-3.37L91,146l-1.27.72.24.38.57-.19.5.82c.49.82,2,3.53,2.39,4.3l-.48.44.22.38,1.06-.65,1.1-.61-.23-.4-.62.23c-.37-.49-.7-1-1.1-1.62l-.57-1-1-1.78v0c2.56,2.16,4,3.29,4.66,3.9l1-.56-1.22-6h0c.2.3.59.9,1.11,1.76l.59,1a10.48,10.48,0,0,1,.88,1.73l-.43.42.21.4,1.36-.86,1.44-.84-.22-.38Z"/><path class="cls-1" d="M107.31,142.82c-.43-.45-.83-.89-1.31-1.47l-.93-1.14-1.18-1.63.54-.61a1.3,1.3,0,1,1,1.75,1.92l-.45.29.34.87.9-.6c1.52-1.22,1.56-2.75.73-3.77s-1.91-1-3.15,0l-1,.91-1.17,1-1.15.91.29.35.58-.3c.43.42.82.87,1.31,1.43l1.2,1.59c.48.57.83,1.05,1.18,1.55l-.43.5.29.36,1.27-1.07,1.52-1.17-.3-.35Z"/><path class="cls-1" d="M118.53,132.34a35.11,35.11,0,0,1-3.63-1.55l-2.65-1.26-.57.35-.77,1.34c1,1.84,2.35,4.68,2.85,6.06l-.33.48.34.31.77-.82,1-.95-.33-.33-.5.36-1.07-1.86,1.6-1.63a15.65,15.65,0,0,1,1.86,1l-.34.52.33.32,1.15-1.23,1.16-1.12L119,132Zm-5.32,1.37-1.3-2.41v0l2.5,1.21Z"/><path class="cls-1" d="M126.42,122.59c-.48.06-3.08.16-3.78.19a1.9,1.9,0,0,0-.38-2.55c-.69-.57-1.7-.67-2.93.89l-.89,1.21-.88,1.17-.8,1,.38.28.48-.45c.54.34,1,.66,1.63,1.12l1.62,1.22a16,16,0,0,1,1.44,1.26l-.31.59.37.27,1-1.33,1-1.28-.37-.27-.47.44c-.53-.32-1-.66-1.63-1.1l-.45-.41.3-.43c1,0,2.82,0,4.11.09a14.8,14.8,0,0,1,1.21-1.79l-.37-.28Zm-5.26,1.2-.44.46-.46-.34-1.12-.9.54-.8c.51-.67,1-.79,1.52-.4s.55,1.2,0,2"/><path class="cls-1" d="M130.69,110.12c-2.07-1.2-3.93-.53-5.24,1.66s-.66,4.35,1.11,5.38c1.95,1.19,3.93.53,5.23-1.67s.68-4.34-1.1-5.37m.22,4.88c-.69,1.15-2.09,1.28-3.37.49s-1.92-2-1.22-3.21,2-1.26,3.37-.5,1.91,2.07,1.22,3.22"/><path class="cls-1" d="M75.83,153.92a1.56,1.56,0,0,0-1.49,1.56,1.58,1.58,0,0,0,1.49,1.61,1.62,1.62,0,0,0,1.61-1.61,1.59,1.59,0,0,0-1.61-1.56"/><path class="cls-1" d="M17.91,104.39a1.59,1.59,0,1,0-1.54-1.56,1.58,1.58,0,0,0,1.54,1.56"/><path class="cls-1" d="M134.08,104.39a1.59,1.59,0,1,0-1.54-1.56,1.6,1.6,0,0,0,1.54,1.56"/></g></g></svg>