<svg xmlns="http://www.w3.org/2000/svg" viewBox="0 0 411.16 130.01"><defs><style>.cls-1{fill:#58595b;}</style></defs><g id="Layer_2" data-name="Layer 2"><g id="Layer_1_1:1_" data-name="Layer 1 (1:1)"><path class="cls-1" d="M145.47,77.25c-14.68,0-22.16-6.78-22.16-20.23,0-4.8,1.54-12.51,3.8-23.4,2.16-10,4-17,6.15-20.82C138.09,4.47,145.08.89,156,.89c13.84,0,20.73,6,20.73,18.07a49.31,49.31,0,0,1-.51,6.36H161c.3-3.08.51-5.13.51-6,0-5.05-2.05-7.42-6.47-7.42s-6.77,2.49-8.61,7.92c-.94,2.77-2.47,9.34-4.72,19.8-1.85,8.83-2.78,14.89-2.78,18,0,5.22,2.36,8.1,6.67,8.1,6.06,0,8.42-4.19,10-13.84H171c-2.36,17.34-10.37,25.44-25.56,25.44M219.29,6.08a6.9,6.9,0,0,1,5.89-4h11.9l-31.85,70a7.28,7.28,0,0,1-6,3.88h-14L179.61,2.12h16l1.65,38a206.55,206.55,0,0,1,0,22.8,130.68,130.68,0,0,1,5.34-15.7ZM38.67,34.24c9.53,0,14.16-3.08,14.16-13.42,0-5.17-2.47-7.3-8-7.3H40.21L35.8,34.24ZM27.85,71.83A5.54,5.54,0,0,1,22.69,76H11.46L27.18,2.12H45.54C61.45,2.12,69.05,5.93,69.05,17c0,14-6,21.35-18.78,23.08,7.7.84,11.39,4.22,11.39,10.59a44.17,44.17,0,0,1-.52,5.74l-1.32,8.93a41.49,41.49,0,0,0-.52,6.57,34.29,34.29,0,0,0,.3,4.1H43.18c.51-12.1,3.09-19.91,3.09-23.91,0-5.33-2.88-6.26-10.08-6.26H33.33Zm75.58-23.51-.3-7.51q-.31-7.25-.31-14.47c0-3.38.2-7.69.61-13a139.5,139.5,0,0,1-6.06,15.62l-8.82,19.4ZM59.6,76l36-73.89h20.21L120.05,76H104.56l-.72-16.62H83.51L77.7,72.13a7.28,7.28,0,0,1-6,3.88Zm65.94,8.82-2.72,12.84q22.67-3.11,45.34-4.19a1.15,1.15,0,0,0,1.22-.94l1.77-8.3q-23-.52-45.61.59m-65.8,25.46a516.42,516.42,0,0,1,56.7-11.71,1.73,1.73,0,0,0,1.66-1.43l2.55-12.06Q92,86.74,63.85,90.94Zm116.2-25.92-1.87,8.85q20.12-.78,40.1,0a.9.9,0,0,0,1-.59l2.68-5.57q-21-2.07-41.86-2.72M0,130a523.88,523.88,0,0,1,52.76-17.83A2.72,2.72,0,0,0,55,110l3.88-18.29Q32,95.94,5.85,102.47Z"/><path class="cls-1" d="M283.32,74.29a56,56,0,0,1-18,3.3c-21.91,0-28.57-13.76-28.38-30.27.22-18.7,7.79-45.23,37.29-45.23,10.67,0,21.3,3.42,22.95,4l-2.95,16.61H292c-.59-5.61-3.77-16.28-18.08-16.28-21.35,0-25.86,27.73-26,42.58-.2,17.5,10,23.56,22,23.56,6.05,0,11.24-1.87,14.45-3Zm31.26-9.8c-3.23,3.3-11.49,13.1-17,13.1-2.75,0-4.38-2.31-4.35-5.06a41.49,41.49,0,0,1,1.08-6.82l11.17-52.83a27.4,27.4,0,0,0,.6-4.18c.05-4.08-3.13-5.06-8.2-5.06l.35-1.87L316.76,0l-14,65.71a20.83,20.83,0,0,0-.48,3.4c0,.78.42,1.76,1.19,1.76,2.09,0,6.77-4.73,9.66-7.59Zm34.7-11-.22-.23C344.19,66,334.81,77.59,326.33,77.59c-4.51,0-7.23-3.3-7.16-8.81a60.44,60.44,0,0,1,1.65-9.13l5.54-23a19.08,19.08,0,0,0,.48-3.41c0-.77-.41-1.76-1.07-1.76-2.2,0-6.88,4.73-9.77,7.59l-1.31-1.21c3.22-3.3,11.48-13.09,17-13.09,2.75,0,4.26,2.31,4.23,5.06a33.42,33.42,0,0,1-1.07,6.82l-6.25,26.41a23.38,23.38,0,0,0-.82,4.63c0,1.76.73,3.18,2.49,3.18,7.71,0,22.74-24.76,24.84-45h8.59L355.3,65.71a19.71,19.71,0,0,0-.47,3.4c0,1.11.41,1.76,1.08,1.76,2.2,0,6.87-4.73,9.66-7.59L367,64.49c-3.23,3.3-11.49,13.1-17,13.1-2.64,0-4.26-2.31-4.23-5.06a40.65,40.65,0,0,1,1-6.82Zm33.37-12.88.22.22c1.47-3.74,7.56-16.06,17.35-16.06,8.14,0,11,6.71,10.94,14.74-.18,15.85-10.34,38.08-27,38.08-9.57,0-14.35-6-14.26-13.65a43,43,0,0,1,1.2-9.13L380,12.88a27.4,27.4,0,0,0,.6-4.18c.05-4.08-3.13-5.06-8.2-5.06l.36-1.87L391.26,0Zm2,33.35c11.12,0,16.57-24.1,16.67-33.13,0-4.07-.43-10.45-5.38-10.45-7.15,0-17.65,23-17.79,34.55-.09,7.27,4.08,9,6.5,9"/></g></g></svg>