<svg xmlns="http://www.w3.org/2000/svg" viewBox="0 0 3870.47 468.43"><defs><style>.cls-1{fill:none;stroke:#231f20;stroke-width:0.71px;}.cls-2{fill:#58595b;}</style></defs><g id="Layer_2" data-name="Layer 2"><g id="Covertrims"><path class="cls-1" d="M3595.17,224.43a89,89,0,0,1-4.12,14.06c-2.32,6.87-4.52,13.35-4.52,20.29,0,17.46,15.32,26.31,45.53,26.31a285.57,285.57,0,0,0,35.75-3.14c8.84-1.43,13-3.05,13-11.66a20.81,20.81,0,0,0-.61-6.34c-2.46-18.76-3.15-24.19-9.39-39.93-.74-2-1.5-3.85-2.28-5.74a90.66,90.66,0,0,1-5-14.72,79.48,79.48,0,0,1-3.28-13.27c-.47-2.43-.92-4.82-1.47-7-.62-1.7-1.55-3.63-2.47-5.57a69.33,69.33,0,0,1-2.94-6.82c-2.28-4.82-6.06-16.92-7.86-22.72-3.84-11.39-11.09-11.39-14.19-11.39-5.08,0-8.76,3.78-10.11,5.42-3.24,3.61-8.44,15.83-15.59,36.46l-1,2.77-2.31,14.85-1,3.51a76.09,76.09,0,0,0-2.93,11.17,88.59,88.59,0,0,0-3.16,13.5M3788.12,463c-48.49,0-57.51-3.84-68.91-29.37a73.9,73.9,0,0,1-2.42-7,38.75,38.75,0,0,0-3.66-9.09l-4.75-7.65c-4.21-7.94-6.41-11.25-19.94-16.06-6.67-2.14-36.57-3.61-46.87-3.61h-25.35c-5.12,0-8.85.6-23.81,3.15-17.53,3.08-24.1,4.22-30.33,9.78-3.83,3.61-16.09,23.12-17.56,36.82,0,8-2.19,9.77-9.52,15.68-7.74,6.22-10,6.72-30.47,6.72-2.68,0-10.21-.16-18-.32-8.24-.16-16.76-.34-20-.34-1.47,0-5.87.28-10.51.59-5.42.34-11.14.69-13.26.69-.22,0-21.1-1.61-26.36-3.63l0,.08c-7.31-3.39-15.19-13.21-15.19-23.13a42,42,0,0,1,3.58-17.17,44.75,44.75,0,0,0,3.66-8.76,29.11,29.11,0,0,0,1.65-7.47c.22-1.55.42-3.1.72-4.54.47-3.12,1-5.92,1.51-8.74l.82-4.5c.46-2.24,1.93-6.82,3.63-12.11,1.47-4.65,3.15-9.89,3.51-11.62a114.46,114.46,0,0,0,2.5-16.5c.4-3.9.79-7.75,1.46-11.49,1.57-6.34,8.8-33,11.26-40.2.78-2.55,1.8-5.36,2.82-8.15,1-2.64,1.91-5.26,2.68-7.75,1.06-4.27,1.82-8.82,2.57-13.27.81-4.84,1.66-9.84,2.92-14.63.56-2.69,11-42.9,14.77-49.05a32.62,32.62,0,0,1,2.09-4.07,21.48,21.48,0,0,0,2.86-6.53,23.63,23.63,0,0,0,.79-4,33.17,33.17,0,0,1,.92-4.74c.46-2.78,10.16-46.34,12.84-52.79.25-.88.65-2.32,1-3.75s.77-2.87,1.17-4.14a57.13,57.13,0,0,1,3.33-11.25,67.12,67.12,0,0,1,3.23-7.8,57.93,57.93,0,0,0,3-7.11c2.26-5,3-9.45,3.81-15.31,8.75-48.69,22-73.35,70.06-73.35,3.08,0,11.25,0,20.14.67,19.18,1.17,43.55.18,71.76-1l8.52-.34c20.81-2.58,44.92,1.91,61,11.46,14.25,8.79,19.75,16.43,25.71,35.65,1.71,4.47,3.28,9.42,4.86,14.47,1.2,3.8,2.42,7.69,3.78,11.56,1.17,3.4,2.7,6.77,4.21,10.14a117.87,117.87,0,0,1,4.53,11l6.43,24.56c.33,1.59.53,3,.73,4.34a25.93,25.93,0,0,0,1.47,6.57,49,49,0,0,0,3.82,9.29l1.15,3.07c2.44,6.69,7.51,20.62,10.3,32.37l.93,4.82c1.51,7.86,1.86,9.72,4.46,17.06a337.17,337.17,0,0,1,10.45,32.49c.32,2.47.51,4.63.7,6.76a64.38,64.38,0,0,0,1.63,11.47c.59,1.34,1.53,3.16,2.45,5,1,2,2.08,4,2.9,6,.58,2.39,2.19,7.39,3.59,11.8,1.71,5.34,3.34,10.41,3.79,12.6a82.63,82.63,0,0,1,1.65,10.27,74,74,0,0,0,1.49,9.35c.62,1.65,1.54,3.58,2.45,5.52a67.64,67.64,0,0,1,3,6.83c1.36,4,8,24,8.92,31.56l.16,1.45c.64,5.67.73,6.39,2.55,9.82,4.33,9.06,9.92,26.61,12.26,36.8.66,2.06,1.23,4.28,1.79,6.45.62,2.45,1.22,4.8,2,7.16a35,35,0,0,0,2.46,5.08,27.9,27.9,0,0,1,3.26,7.56c.88,2.83,2.45,18,2.45,19.43,0,16.47-22.2,16.47-38.41,16.47-3,0-11.62.45-20.45.91-9.51.51-19.34,1-23.13,1M3076.43,124c-7.4,1.1-7.84,1.41-12.79,4.82l-1.09.81c-8.54,6.26-14.2,10.41-16.31,30.71-.53,2.76-.23,15.43-.09,21.5.07,2.73.12,5,.12,6.15,0,3.54-.57,13.14-1.17,23.26s-1.23,20.83-1.23,24.61c0,24,0,64.16,3.15,86.2,1.43,15.87,2.88,32,80.46,32a179.37,179.37,0,0,0,18.55-.64c13.4-1.8,42.36-9.92,53.31-14.94,42.37-20.74,52.1-83.11,52.1-91.8,0-4.38-.82-21.39-2.24-27-.75-3-1.68-5.81-2.62-8.65-1.06-3.24-2.11-6.48-2.95-9.9l-.44-2.11a55.13,55.13,0,0,0-2.5-9.37,76.5,76.5,0,0,0-6.34-7.78c-1.69-1.9-3.39-3.85-5-5.88a46.71,46.71,0,0,1-5.8-8.15c-7.16-9.69-11.17-11.79-24.43-18.77-20.83-13.25-26-15.89-27.35-16.41-17.73-7.41-55.27-9.92-69.66-9.92-5.1,0-14.22.56-23.88,1.16ZM3057,463h-2.4c-5,0-19.19-.46-33.9-.91-15.77-.51-32.09-1-38.17-1h-23.8c-15,0-55,0-55-26.67,0-1.66.37-6.25.77-10.87.38-4.32.77-8.66.77-10.22,0-6.36-.73-25.34-1.37-42.11-.52-13.22-1-25-1-28.12,0-.53.06-2.21.15-4.64.22-6.22.65-17.58.65-27.26.81-16.07,1.54-32.9,1.54-48.53,0-1.95-.55-7.9-1.09-13.67-.64-6.94-1.25-13.48-1.25-16.32,0-1.28.35-4.94.74-8.82s.82-8.08.82-9.69v-8.94c0-1.55.19-6,.37-10.75.19-5,.41-10.26.41-12.22,0-3.95-.18-15.62-.36-27.92-.2-13.62-.42-28-.42-33.38,0-1.79.18-7.06.36-12.73.2-6.39.42-13.3.42-16s-.54-11.37-1.06-19.83c-.64-10-1.28-20.4-1.28-24.23,0-7.56,1.48-32.67,20.48-38.61,5.35-1.75,70.88-2.75,74.13-2.75,1.2,0,3.2.08,5.71.19,4.13.18,9.78.46,15.69.46l4.43.29c7,.5,13.69,1,16.18,1,7.74,0,15.71-.66,23.41-1.27,7.89-.64,16-1.3,24.17-1.3,1.19,0,4.78.15,8.41.32s7,.33,8.21.33c.68,0,2.75-.14,5-.28,3-.19,6.29-.37,7.63-.37.79,0,3.47.26,6.44.58,3.15.33,6.6.72,7.81.72h10.33c13,0,32.57,3.83,36.46,5.39A34.34,34.34,0,0,1,3182,14c1.39.43,2.8.85,4.22,1.14,1.93.39,3.92.72,5.9,1a105.34,105.34,0,0,1,13.46,2.88c2,.91,3.38,1.65,4.74,2.38a46.61,46.61,0,0,0,7.23,3.39,32.15,32.15,0,0,0,5.29,1.11,46.32,46.32,0,0,1,6.61,1.45c1.92.74,3.75,1.57,5.59,2.39s3.45,1.55,5,2.18a38.59,38.59,0,0,0,7.55,2.42c1.66.41,3.29.82,4.8,1.3,1,.39,73,32.11,106.3,93.35,1.64,2.61,18.35,34.67,20,38.73,3.5,9.93,9,42.15,9,50.19,0,1.3-.18,4.9-.38,8.51-.19,3.41-.38,6.83-.38,8.07,0,1.87.39,6.68.78,11.49.4,5.09.81,10.17.81,12.15,0,10.92-.86,14.1-6.42,34.94l-.86,3.2c-4.76,21.27-5.69,24.2-10,31.17a50.89,50.89,0,0,1-4.39,7.8c-.62,1-1.26,2-1.9,3-1,1.93-2,4.22-2.92,6.51a78.14,78.14,0,0,1-3.3,7.31,86.23,86.23,0,0,1-8.31,9.92c-1.12,1.2-2.26,2.43-3.4,3.72-1.76,2.29-3.53,4.81-5.29,7.35s-3.59,5.14-5.57,7.71c-4.35,4.89-36.23,33.18-39.58,35.85-11.3,8.51-32.93,18.9-41.48,22.35-8.32,2.71-16.47,4.68-24.33,6.58l-16.28,5.65a177.32,177.32,0,0,1-19.72,4.18c-3.15.54-6.29,1.08-9.36,1.7C3155.59,463,3138.6,463,3057,463m-648,0c-9.45,0-17.34-1.69-23.45-5-11.94-6.68-11.87-13.71-11.83-18.86v-.95c.57-4,.3-17.9.13-26.18-.07-3.33-.13-6.11-.13-7.65,0-2.51.39-9.93.76-17.53.4-7.84.83-15.93.83-18.83,0-1.18-.18-4.56-.36-8.14-.23-4.2-.44-8.66-.44-10.4V333.49c0-1.88.36-8,.76-14.28.4-6.59.84-13.44.84-15.73,0-.88-.34-4-.69-7.37-.44-4.37-.91-9.08-.91-10.51a118.08,118.08,0,0,1-.79-16.59c0-17.07.83-34.76,1.59-50,1.6-13.43,1.6-14,1.6-17.67a182.77,182.77,0,0,0-1.72-21.43c-.59-4.75-1.16-9.44-1.46-14,0-3.06.18-11.17.38-19.5.2-8.74.4-17.71.4-21,0-2.77-.37-10.48-.74-18.4-.4-8.51-.81-17.24-.81-20.53,0-1,.19-4.15.4-7.3.19-2.92.36-5.83.36-6.74s-.17-3-.36-5.08c-.21-2.39-.4-4.76-.4-5.8V53.22c0-.91-.61-5-1-8a107.23,107.23,0,0,1-1.35-11.11c0-5.51,0-11.74,1.95-16.38,2.12-6.07,9.32-12.9,19.86-12.9,1.16,0,4.35.43,7.8.91,3.12.43,7.43,1,8.82,1h4.21a32.14,32.14,0,0,1,7.67-.65l18.19.65a53.77,53.77,0,0,0,8.08-.6l11-.05c3.81,0,20.77.54,26.45,2.06,1.25.34,2.3.67,3.32,1s1.88.61,3,.92c4,1.09,9.71-.17,15.07,1.29,6.08,1.61,15.83,9.06,15.92,9.15,4.73,4.23,20.52,23.64,47,57.83l.91,1.18a54.4,54.4,0,0,1,6.54,6.67c1.24,1.51,2.37,3,3.48,4.48a50.74,50.74,0,0,0,5,6.08l3.54,4.54c12.8,16.49,14.76,19,19.34,27,3.66,6.44,11.31,15.88,21.54,26.62a481.8,481.8,0,0,1,40.93,56.9c1,2,5.57,8.52,8.92,13.32,2.69,3.86,5.16,7.42,6.16,9l.29.35c2.08,2.69,6.69,8.61,9,10.64,2.51-3.07,2.47-13,2.42-19.59V222.4c0-1.32.2-5.08.42-8.84.19-3.56.41-7.15.41-8.39a60.07,60.07,0,0,0-.42-6.09,59.89,59.89,0,0,1-.41-6c0-1.64.41-6,.83-10.3.37-4,.78-8,.78-9.5,0-1.27-.6-6.32-1.08-10.37-.79-6.65-1.29-11.17-1.29-13.27,0-1.93.43-6.18,1.14-13,.57-5.51,1.23-11.74,1.23-13.84s-.62-9-1.17-15.23c-.63-7-1.2-13.62-1.2-16-.52-4.55-.36-19.89-.12-36.51.07-4.43.12-8.09.12-10.07,0-.83-.3-3.4-.6-6.29-.57-5.24-1-9.08-1-11,0-10.6,8.41-17.11,15.6-19.45,3.21-.83,6.2-.83,22.79-.83h20.61c2.43,0,8.13,0,14.63.63,3.12.08,6.81.23,9.76.42,1.77.11,3.21.21,4.09.21,2.68,0,5.19-.16,7.68-.31,2.67-.18,5.32-.34,8.16-.34.73,0,3-.26,5.52-.51,3.51-.37,7.4-.75,8.76-.75,9.65,0,25,7.59,25,28,0,2.37-.53,7.88-1.15,14.26-.59,6-1.24,12.68-1.24,15.11,0,1.81.17,7.72.38,13.86.2,6.77.4,13.79.4,16.14,0,2.83-.18,11.13-.37,19.65-.22,8.86-.41,18-.41,21.2V156a159.29,159.29,0,0,1-.82,19.65c0,2.13-.52,9.42-1.12,17.13-.56,7.48-1.22,16-1.22,18.75,0,2.13.38,8.5.74,15.09.4,7.25.82,14.78.82,17.48.57,9.06.35,22.35.18,34.09-.09,5.45-.18,10.64-.18,15.06,0,7.87.21,18.25.41,28.71.21,10.76.41,21.61.41,30a41.65,41.65,0,0,1-.48,5.55,27.6,27.6,0,0,0-.34,3.38l-.34,2.29a58.66,58.66,0,0,0-1.22,9.84c0,1.24.2,4.8.39,8.39.19,3.78.38,7.56.38,8.86,0,2.84,1.21,12.77,2.27,21.49,1.3,10.61,2.51,20.61,2.51,24.47,0,6.45,0,26.06-33.69,26.06a85.5,85.5,0,0,1-13.39-.72c-.42.06-3.48.22-6.54.39-3.27.17-6.56.33-7.79.33-2,0-8-.32-14.08-.66-5.84-.32-11.7-.64-13.66-.64-1.51,0-5.3.32-9.12.63-4.12.34-8.23.67-9.89.67-21.84,0-32.85-17.76-40.14-29.52a100.18,100.18,0,0,0-11.76-16.13c-1.46-1.7-3.19-3.73-5.35-6.34a261.49,261.49,0,0,1-25.59-33c-11.64-17.25-21.85-30.68-26.21-36.42-1.35-1.78-2.17-2.88-2.37-3.18-2.76-3.93-6.38-7.45-10.23-11.19l-.7-.79a141.07,141.07,0,0,0-10-13c-3.81-4.65-9.54-11.34-15.75-17.76-3.57-5-6.7-9.44-9.88-13.92l-3.65-4.58c-4.54-5.7-9.25-11.6-13-17.17a184.75,184.75,0,0,1-10.78-16.28c-1.93-3.15-3.86-6.28-5.87-9.31-2.35-3.11-4.43-5.86-7.06-8-5.08-3.07-8.85-4.8-10.74-4.8-1.15,0-4.94.61-6,8.36-.76,4.19-2.32,27.41-2.32,32.63,0,1.16.16,4.41.34,7.83.21,4,.43,8.31.43,10.05,0,.92-.17,4-.35,7.25-.2,3.55-.42,7.37-.42,8.69V310.5c0,.91-.2,3.84-.4,7-.21,3.39-.45,7-.45,8.33a52,52,0,0,0,.77,9.45c.75,4.32.85,16.38.85,27.61,0,1.17.35,5.06.7,9.17.4,4.55.81,9.34.88,11.43.48,2.72.42,8.32.13,17.87-.06,2.14-.12,3.95-.12,4.94a15.76,15.76,0,0,0,.46,4.76l.33,1.65c0,1.19.87,6.1,1.5,9.72,1.05,5.78,1.67,9.42,1.67,11.34,0,13.28-19.07,23.89-24.27,24.72-1.6.46-5.45.42-12.73.14-1.35,0-2.44-.1-3-.1-1.21,0-6.16.62-10.14,1.14-6.2.78-10.58,1.29-13,1.39-1.59.32-5.52.65-18,.65-2,0-7.84.33-13.69.63-6,.32-12.06.66-14.07.66m-468.6-209.7c.47,4.55,2.26,9.25,4.15,14.25,1,2.62,2,5.25,2.81,7.88,7,20.87,7.76,23,15.19,33.2,12.6,17.88,40.67,35.34,44.58,36.71a38.7,38.7,0,0,0,6.29,1.14,58.8,58.8,0,0,1,7.76,1.35,37.18,37.18,0,0,1,4.58,1.37,27.47,27.47,0,0,0,3.83,1.12c2.6.69,4.87,1.29,7.93,1.9,9.87,1.86,10.3,1.86,21.32,1.86.75,0,3.31.13,6.16.27,3.24.15,6.86.35,8.12.35,9,0,19.83-.19,22.32-.57,11.42-1.75,38.11-15,45.85-19.83,14.05-8.6,29.59-26.56,34.69-32.46l1.68-1.92c.3-.68,1.57-4.45,5-14.57,1.66-5,3.86-11.55,6.81-20.26,3.05-11.8,3.7-17.7,3.7-22.86,0-3.42-.19-6.68-.39-9.95-.19-3.44-.38-6.86-.38-10.48v-8.32a46.59,46.59,0,0,0-.7-10c-.78-2.27-12.35-29.37-18.14-36.38-2.71-3.63-6.12-6.54-9.73-9.6a98.18,98.18,0,0,1-7.44-6.77c-1.75-1.59-3.61-3.52-5.45-5.45-3.41-3.57-6.63-6.92-10.35-9.17-5.79-4.08-38-15.32-41.36-16-6.43-1.72-34-2.48-40.35-2.48-6.77,0-13.74,0-18.83,1.18-19.52,3.63-20.41,4.1-31.2,9.91l-1,.51c-23,11.51-24.9,12.58-33.82,21.57-7.73,6.9-21,24.53-23.81,29.68-2.88,4.67-3.84,10.14-4.85,15.93-.56,3.09-1.11,6.23-1.91,9.27-.53,2.41-1.22,4.89-1.89,7.35a83.84,83.84,0,0,0-2.74,12.45l0,3.36c0,1.54.76,12.47,1.17,18.35.2,2.89.35,5.19.4,6.11m138.26,214.82c-8.55,0-37.3-.63-44.76-1.31a159.47,159.47,0,0,1-18-3.28c-6.93-.59-14.19-1.26-21.54-3.23a65.85,65.85,0,0,1-15.54-4l-4.23-1.59a98.11,98.11,0,0,0-17.29-5.24c-8.16-2.19-14.42-4.17-20.77-7.39-5.25-2.81-9.87-5.8-14.78-9-2-1.32-4.06-2.64-6.19-4l-2.36-1.33c-30.45-17.36-35.14-20-58.75-46-12.52-12.46-14.32-15.27-22-27.13l-2.22-3.46a77.56,77.56,0,0,0-6.17-9c-1.79-2.37-3.53-4.69-5-7-6.88-13.15-12.59-37.88-14-45.51-1.67-14.74-4.83-53.66-4.83-66.59,0-7.25,1.29-14.9,4.08-24,1.67-8.87,11.92-43.12,15.48-49.57.81-1.65,13.39-25.57,15.53-28.13a57.6,57.6,0,0,1,6.29-7.86c1.11-1.21,2.19-2.42,3.19-3.63.75-1,3.09-4.46,5.84-8.5,4.8-7.1,10.27-15.15,12.36-17.67a63.37,63.37,0,0,1,7.73-7,60,60,0,0,0,6.63-5.91c2.08-2,3.76-3.76,5.46-5.56a89.72,89.72,0,0,1,9.36-9c5.05-4.09,10.82-7.4,16.4-10.61a74.21,74.21,0,0,0,7.11-4.83,78.29,78.29,0,0,1,7.92-5.38c6.29-4.45,24.84-12.31,35.76-15.67a78.5,78.5,0,0,1,8.68-2.35,80.57,80.57,0,0,0,7.8-2.11c3.71-1,7.15-2.24,10.58-3.48,3.7-1.32,7.42-2.63,11.1-3.63,11.44-2.64,64.68-7.81,69.28-7.81,4.28,0,17.8,1.75,29.74,3.28,6.6.86,12.4,1.61,15,1.84C2125.07,6.77,2139,8.1,2152,12l9.59,3.6c33.17,12.47,45.65,17.32,47.66,18.55,10.57,4.21,36.55,24.93,41.64,29.06a135,135,0,0,1,10,9.19c1.52,1.49,3.05,3,4.57,4.43a66.15,66.15,0,0,0,10.47,8.48l1.29,1.16c7,6.8,12,11.71,16.89,22.35a130.1,130.1,0,0,1,8,15.32c2.15,3.7,4.66,7.59,7.16,11.46,2.63,4.11,5.25,8.21,7.69,12.47a89,89,0,0,1,8.46,25c2.48,10.87,8,73.3,8,80.62,0,8.81-5.74,35.6-8.18,42.88l-2.41,6.87c-4.43,12.71-11.15,31.95-14.53,38.45-5.18,11.27-12.1,24.37-33.1,46.92-7,8.16-39.44,35.74-51.31,41.19-4.45,2.42-9.7,4.14-14.8,5.8-3.06,1-6.16,2-9.12,3.21l-2.33,1.34a71.79,71.79,0,0,1-12.16,5.78c-2.32,1.33-40.93,13.57-44.19,14.21-3.95.71-8.06,1.21-12.31,1.76-3.53.42-7.16.88-10.79,1.47-2.76.36-5.41.93-7.92,1.46-1.92.42-3.79.8-5.5,1.09a191.24,191.24,0,0,1-26.07,2M1734,464.88c-2.12,0-14.94-.35-27-.71-10.62-.29-20.67-.56-22.15-.56l-21-2c-28.39-3.24-30.4-4-55.06-13.68-10.74-3.28-20.54-7.38-37.94-18.24l-19.25-13.52c-4.27-3.12-9-6-13.59-8.78-4.76-2.88-9.67-5.86-14.19-9.17a64.31,64.31,0,0,1-7.58-5.94c-1.18-1-2.39-2.07-3.67-3.11-18.14-17.88-25.48-29.74-36.61-47.7l-.59-1c-12-20.48-21.38-36.69-24.61-65.24-.8-3.13-3.18-30.21-3.18-33.69,0-1,.35-4,.75-7.24s.84-6.8.84-8.1-.2-4.62-.39-8c-.21-3.63-.41-7.25-.41-8.57,0-3.91.43-6.17,1.46-11.62.46-2.37,1-5.42,1.77-9.57l0-.09c1-5.18,1.8-10.35,2.57-15.5,1.6-10.65,3.26-21.68,7.12-32.37,8.11-24.27,28.55-49.88,35.06-56.45l.24.22c8.2-10.77,47.57-43.61,61.87-50.86,15.87-7.91,33.76-14.5,54.7-20.12C1659.79,1,1679.05,1,1717.4,1c2.7,0,33.55,1.24,37.29,2,16.82,3.18,21.7,10,21.7,30.44,0,4.34-.41,8.82-.8,13.16s-.77,8.43-.77,12.37c0,1.8.36,7.08.74,12.54.42,6.16.83,12.57.83,14.92,0,7.58-.86,12.69-2.81,16.61l-.63,1c-4.83,5.46-14.1,9.13-23.09,9.13a76.21,76.21,0,0,1-12.13-1.27c-2.75-.24-5.4-.52-8.07-.79a142.74,142.74,0,0,0-15.45-1.11c-46,0-83.42,23.6-93.44,34.35-2.84,2.85-23.12,31.71-25.4,36.55-2.32,5.27-5.13,18.16-5.13,49.21,0,20,14.49,72,59.24,105.06,20.83,16.17,61.54,19.54,68.69,19.54,4.28,0,20.08-1.32,23.23-2.33l1.34-.22c.64-.06,2.28-.39,4.08-.74a51.38,51.38,0,0,1,7.79-1.16c14.13,0,22.57,9,22.57,24.13,0,.93-.16,3.76-.36,6.75-.2,3.21-.43,6.63-.43,8,0,.93.4,3.89.78,6.82.42,3.42.82,6.82.82,7.83,0,1.75-.47,5.62-1.22,11.76-.51,4.14-1.15,9.28-1.15,10.59v11.52c0,6.22,0,15.65-16.15,22.5-7.3,4-15.49,4.82-25.43,4.82M1168,224.43a88.27,88.27,0,0,1-4.12,14.06c-2.32,6.87-4.51,13.35-4.51,20.29,0,17.46,15.31,26.31,45.52,26.31a283.74,283.74,0,0,0,35.75-3.15c8.84-1.43,13-3.05,13-11.65a21.14,21.14,0,0,0-.6-6.34c-2.46-18.76-3.14-24.19-9.39-39.93-.74-2-1.5-3.86-2.28-5.74a90.66,90.66,0,0,1-5-14.72,79.36,79.36,0,0,1-3.28-13.28c-.47-2.43-.92-4.81-1.47-7-.62-1.69-1.55-3.62-2.47-5.56a71,71,0,0,1-3-6.83c-2.27-4.81-6-16.91-7.85-22.71-3.85-11.39-11.09-11.39-14.19-11.39-5.07,0-8.75,3.78-10.12,5.41-3.23,3.62-8.43,15.84-15.58,36.47l-1,2.77-2.31,14.85-1,3.51a77,77,0,0,0-2.92,11.17,88.68,88.68,0,0,0-3.17,13.5m193,238.51c-48.49,0-57.5-3.83-68.91-29.36a73.9,73.9,0,0,1-2.42-7,39,39,0,0,0-3.66-9.1l-4.75-7.64c-4.21-8-6.41-11.26-20-16.06-6.65-2.15-36.56-3.61-46.86-3.61H1189c-5.12,0-8.85.6-23.81,3.15-17.53,3.08-24.1,4.22-30.32,9.78-3.83,3.6-16.11,23.12-17.57,36.81,0,8-2.19,9.78-9.52,15.69-7.74,6.21-10,6.72-30.46,6.72-2.69,0-10.22-.16-18-.32-8.24-.16-16.76-.34-20-.34-1.47,0-5.87.28-10.51.58-5.42.35-11.14.69-13.26.69-.21,0-21.1-1.6-26.36-3.63l0,.08c-7.31-3.38-15.21-13.2-15.21-23.12a42,42,0,0,1,3.59-17.17,46,46,0,0,0,3.67-8.76,29.09,29.09,0,0,0,1.64-7.47c.22-1.55.42-3.1.72-4.54.47-3.12,1-5.93,1.51-8.74l.82-4.5c.46-2.25,1.93-6.83,3.63-12.12,1.48-4.64,3.16-9.88,3.51-11.62a114.33,114.33,0,0,0,2.5-16.49c.4-3.91.79-7.75,1.46-11.49,1.57-6.34,8.81-33,11.26-40.2.79-2.55,1.8-5.37,2.82-8.15s1.91-5.26,2.69-7.75c1.06-4.27,1.81-8.82,2.56-13.28.81-4.84,1.66-9.83,2.92-14.62.56-2.69,11-42.9,14.77-49.06a33.33,33.33,0,0,1,2.09-4.06,21.48,21.48,0,0,0,2.86-6.53,25.79,25.79,0,0,0,.8-4.05,31.72,31.72,0,0,1,.91-4.73c.46-2.79,10.16-46.34,12.84-52.79.25-.88.65-2.32,1-3.75s.78-2.87,1.17-4.14A57.62,57.62,0,0,1,1059,109a64.74,64.74,0,0,1,3.23-7.8,57.42,57.42,0,0,0,3-7.12c2.27-5,3-9.44,3.81-15.3,8.75-48.69,22-73.35,70.06-73.35,3.08,0,11.26,0,20.14.67,19.18,1.17,43.56.18,71.76-1l8.52-.33c20.81-2.58,44.92,1.9,61,11.46,14.25,8.78,19.75,16.43,25.71,35.64,1.72,4.48,3.27,9.43,4.86,14.48,1.2,3.8,2.42,7.68,3.78,11.55,1.17,3.4,2.69,6.78,4.21,10.15,1.61,3.57,3.28,7.26,4.53,11l6.43,24.56c.33,1.59.53,3,.73,4.34a26.37,26.37,0,0,0,1.47,6.57,48.64,48.64,0,0,0,3.82,9.28l1.15,3.08c2.44,6.69,7.51,20.61,10.29,32.37l.94,4.82c1.52,7.85,1.87,9.72,4.46,17.06a337.6,337.6,0,0,1,10.46,32.49c.31,2.47.5,4.63.68,6.76a65.42,65.42,0,0,0,1.64,11.47c.59,1.34,1.53,3.16,2.46,5,1,2,2.07,4,2.89,6,.59,2.39,2.19,7.38,3.6,11.8,1.71,5.34,3.33,10.41,3.79,12.6a86.52,86.52,0,0,1,1.64,10.27,77.68,77.68,0,0,0,1.48,9.34c.63,1.66,1.55,3.58,2.46,5.52a68.88,68.88,0,0,1,3,6.84c1.35,4,8,24,8.92,31.56l.16,1.44c.64,5.68.72,6.4,2.54,9.83,4.34,9.05,9.92,26.61,12.26,36.8.65,2.06,1.24,4.28,1.79,6.45.62,2.45,1.21,4.8,2,7.16a35,35,0,0,0,2.46,5.08,27.9,27.9,0,0,1,3.26,7.56c.89,2.82,2.45,18,2.45,19.43,0,16.47-22.2,16.47-38.4,16.47-3.06,0-11.63.45-20.46.91-9.5.51-19.34,1-23.13,1m-834.15,0c-9.46,0-17.35-1.67-23.45-5-11.94-6.66-11.86-13.7-11.82-18.84v-1c.59-4,.31-17.89.13-26.16-.06-3.36-.13-6.13-.13-7.67,0-2.51.37-9.92.76-17.53.41-7.85.82-15.93.82-18.83,0-1.18-.16-4.56-.34-8.15-.21-4.21-.44-8.65-.44-10.39V333.49c0-1.88.37-8,.76-14.29.4-6.58.82-13.43.82-15.72,0-.88-.34-4-.67-7.38-.43-4.35-.91-9.07-.91-10.51a116.27,116.27,0,0,1-.8-16.57c0-17.2.88-35.4,1.59-50,1.58-13.44,1.58-14,1.58-17.68a183.23,183.23,0,0,0-1.73-21.7c-.56-4.66-1.11-9.25-1.43-13.75,0-3.1.19-11.2.39-19.53.2-8.74.4-17.71.4-21,0-2.76-.36-10.47-.74-18.39-.42-8.51-.84-17.25-.84-20.55,0-1,.21-4.15.41-7.31.18-2.91.37-5.8.37-6.71s-.19-3-.36-5.08c-.21-2.39-.42-4.77-.42-5.81v-8.3c0-.9-.59-5-1-8a104.42,104.42,0,0,1-1.33-11.09c0-5.5,0-11.73,1.89-16.33,2.17-6.14,9.35-12.94,19.88-12.94,1.2,0,4.4.42,7.85.9,3.11.43,7.36,1,8.78,1H531a31.83,31.83,0,0,1,7.67-.66l18.23.66a51.45,51.45,0,0,0,8-.6l11-.06c3.83,0,20.79.55,26.5,2.07,1.23.34,2.26.67,3.27,1s1.91.61,3,.92c4.06,1.09,9.7-.16,15.07,1.29,6.18,1.64,15.86,9.1,15.94,9.17,4.7,4.21,20.46,23.61,46.92,57.8l.94,1.2a57,57,0,0,1,6.55,6.67c1.28,1.55,2.45,3.11,3.59,4.63a57.37,57.37,0,0,0,4.86,6l2.88,3.65c13.6,17.51,15.35,19.76,20,27.88,3.68,6.42,11.34,15.87,21.57,26.6a487.63,487.63,0,0,1,40.94,56.88c1,2,5.56,8.52,8.89,13.32,2.7,3.87,5.18,7.44,6.17,9l.29.35c2.11,2.69,6.68,8.59,9,10.62,2.54-3.07,2.48-13,2.44-19.63V222.4c0-1.31.2-5.08.42-8.84.19-3.57.38-7.14.38-8.39,0-2.17-.21-4.18-.39-6.09a57.1,57.1,0,0,1-.41-6c0-1.65.41-6,.81-10.28.38-4,.78-8,.78-9.52,0-1.27-.6-6.31-1.08-10.37-.78-6.64-1.31-11.16-1.31-13.27,0-1.94.44-6.18,1.15-13,.58-5.51,1.24-11.75,1.24-13.84s-.64-9-1.17-15.23c-.63-7-1.22-13.62-1.22-16-.54-4.54-.36-19.88-.12-36.51.07-4.43.12-8.09.12-10.07,0-.83-.3-3.39-.61-6.3-.56-5.21-1-9.06-1-11,0-10.59,8.45-17.1,15.69-19.45,3.15-.83,6.14-.83,22.72-.83h20.61c2.44,0,8.13,0,14.68.64,3.12,0,6.76.21,9.73.4,1.76.12,3.23.22,4.11.22,2.68,0,5.15-.16,7.63-.31,2.66-.16,5.33-.32,8.21-.32.72,0,3-.28,5.48-.54,3.5-.36,7.4-.74,8.78-.74,9.66,0,25,7.59,25,28,0,2.38-.55,7.89-1.17,14.27-.59,6-1.23,12.68-1.23,15.12,0,1.81.17,7.71.36,13.86.2,6.76.42,13.79.42,16.14,0,2.82-.19,11.12-.38,19.65-.2,8.86-.4,18-.4,21.19V156a155.76,155.76,0,0,1-.84,19.66c0,2.11-.52,9.4-1.11,17.11-.58,7.48-1.22,16-1.22,18.75,0,2.13.37,8.49.74,15.07.41,7.27.84,14.81.84,17.49.54,9.06.34,22.37.16,34.09-.09,5.46-.16,10.64-.16,15.07,0,7.86.19,18.25.39,28.72.2,10.75.4,21.59.4,30a45.48,45.48,0,0,1-.46,5.54,25.48,25.48,0,0,0-.33,3.38l-.35,2.31a57.39,57.39,0,0,0-1.23,9.83c0,1.23.19,4.81.37,8.37.21,3.78.41,7.56.41,8.88,0,2.83,1.2,12.75,2.27,21.48,1.29,10.61,2.52,20.61,2.52,24.46,0,6.45,0,26.07-33.68,26.07a85.19,85.19,0,0,1-13.39-.72c-.45.07-3.55.22-6.62.39-3.27.17-6.51.33-7.74.33-2,0-8-.32-14.09-.65-5.84-.33-11.68-.65-13.63-.65-1.52,0-5.33.32-9.14.64-4.1.33-8.23.66-9.89.66-21.8,0-32.83-17.76-40.11-29.53a102.3,102.3,0,0,0-11.61-16c-1.49-1.74-3.24-3.8-5.48-6.53a253,253,0,0,1-25.63-32.94c-11.36-16.85-21.53-30.28-25.88-36-1.56-2.07-2.49-3.32-2.71-3.66-2.75-3.86-6.41-7.4-10.29-11.17l-.66-.75a151.76,151.76,0,0,0-10-13c-3.69-4.48-9.32-11.08-15.75-17.73l-13.34-18.25c-4.63-5.78-9.42-11.76-13.25-17.44a192,192,0,0,1-10.66-16.08c-2-3.21-3.92-6.41-6-9.5a42.89,42.89,0,0,0-7-8c-5.11-3-8.88-4.77-10.72-4.77-1.15,0-5,.6-6,8.36-.76,4.33-2.36,27.55-2.36,32.63,0,1.16.18,4.41.36,7.84.21,4,.44,8.31.44,10,0,.91-.17,4-.36,7.26-.21,3.55-.44,7.36-.44,8.69V310.5c0,.92-.17,3.83-.35,6.94-.22,3.39-.44,7-.44,8.35a55.49,55.49,0,0,0,.72,9.49c.76,4.25.87,16.33.87,27.57,0,1.16.36,5,.72,9.16.39,4.56.81,9.36.86,11.44.49,2.73.43,8.31.13,17.86-.06,2.15-.12,3.95-.12,4.95a15.86,15.86,0,0,0,.46,4.78l.32,1.62c0,1.2.88,6.13,1.52,9.72,1,5.79,1.66,9.44,1.66,11.35,0,13.29-19.09,23.91-24.28,24.72-1.57.46-5.42.41-12.72.14-1.34,0-2.43-.09-3-.09-1.22,0-6.2.61-10.2,1.13-6.18.77-10.54,1.3-12.92,1.39-1.58.32-5.5.66-18.07.66-2,0-7.79.31-13.63.61-6,.33-12.08.65-14.1.65M194.36,224.44a89.2,89.2,0,0,1-4.12,14.05c-2.32,6.88-4.53,13.37-4.53,20.29,0,17.46,15.33,26.31,45.56,26.31A283.62,283.62,0,0,0,267,281.94c8.84-1.43,13-3.05,13-11.65a21.68,21.68,0,0,0-.6-6.37c-2.48-18.81-3.19-24.25-9.4-39.91-.72-2-1.5-3.83-2.28-5.73a92.17,92.17,0,0,1-5.05-14.71,79.88,79.88,0,0,1-3.26-13.26c-.46-2.43-.92-4.84-1.46-7.07-.63-1.65-1.54-3.58-2.46-5.48a70.26,70.26,0,0,1-3-6.92c-2.24-4.72-6-16.68-7.76-22.43-3.95-11.66-11.19-11.66-14.28-11.66-5.08,0-8.76,3.78-10.12,5.41-2.3,2.58-6.76,10.91-15.68,36.79-.38,1.08-.67,1.9-.85,2.44l-2.33,14.85-1.05,3.53a80.8,80.8,0,0,0-2.9,11.16,89.78,89.78,0,0,0-3.19,13.51m193,238.5c-48.47,0-57.49-3.83-68.93-29.36a73,73,0,0,1-2.44-7,39,39,0,0,0-3.64-9.08l-4.73-7.62c-4.23-8-6.43-11.26-19.94-16.07-6.68-2.14-36.57-3.6-46.87-3.6H215.42c-5.12,0-8.86.6-23.82,3.15-17.52,3.07-24.08,4.22-30.32,9.78-3.82,3.6-16.1,23.12-17.56,36.81,0,8-2.19,9.77-9.51,15.69-7.75,6.21-10,6.72-30.47,6.72-2.7,0-10.22-.16-18-.32-8.25-.16-16.77-.34-20-.34-1.46,0-5.84.28-10.46.58-5.43.35-11.18.69-13.3.69-.22,0-21.19-1.65-26.36-3.62l0,.07C8.25,456,.35,446.21.35,436.27a42.15,42.15,0,0,1,3.57-17.16,45.73,45.73,0,0,0,3.68-8.75,30.2,30.2,0,0,0,1.67-7.56c.2-1.51.39-3,.69-4.45.47-3.18,1-6,1.53-8.84l.82-4.43C12.75,383,14,379,16,372.77c1.46-4.57,3.11-9.74,3.46-11.44A113.86,113.86,0,0,0,21.91,345c.41-4,.81-7.87,1.48-11.65,1.72-6.85,8.8-33,11.27-40.2.78-2.55,1.81-5.39,2.84-8.21,1-2.61,1.9-5.2,2.66-7.67C41.23,273,42,268.48,42.72,264c.81-4.85,1.64-9.85,2.93-14.65.54-2.62,11.05-43,14.78-49.06a32.94,32.94,0,0,1,2.1-4.1,22.93,22.93,0,0,0,2.86-6.51,25.2,25.2,0,0,0,.76-4,32.66,32.66,0,0,1,.93-4.8c.47-2.77,10.18-46.36,12.83-52.76.19-.71.54-2,.88-3.21.45-1.62.9-3.27,1.36-4.72a58.17,58.17,0,0,1,3.3-11.2,66.78,66.78,0,0,1,3.25-7.87,59.84,59.84,0,0,0,3-7.08c2.27-5,3-9.47,3.79-15.27,8.74-48.7,22-73.37,70.07-73.37,3.08,0,11.25,0,20.12.67,19.2,1.17,43.56.18,71.76-1L266,4.82c20.81-2.59,44.89,1.89,61,11.46,14.23,8.77,19.75,16.43,25.72,35.64,1.7,4.45,3.24,9.36,4.82,14.35C358.72,70.12,360,74,361.33,78c1.17,3.46,2.72,6.88,4.26,10.29,1.63,3.61,3.25,7.21,4.47,10.82l6.43,24.58c.34,1.59.54,3,.72,4.31a26.44,26.44,0,0,0,1.48,6.61,49.84,49.84,0,0,0,3.81,9.29l1.05,2.75c2.46,6.75,7.58,20.76,10.4,32.68l.92,4.76c1.56,8.07,1.88,9.75,4.5,17.12a338.21,338.21,0,0,1,10.45,32.47c.31,2.48.51,4.6.67,6.7a64.51,64.51,0,0,0,1.64,11.55c.57,1.33,1.52,3.13,2.44,4.92,1.05,2,2.09,4.05,2.92,6.08.59,2.43,2.22,7.53,3.67,12,1.67,5.25,3.27,10.21,3.72,12.38a84.32,84.32,0,0,1,1.62,10.24,75.56,75.56,0,0,0,1.5,9.37c.62,1.69,1.57,3.67,2.49,5.62a69.12,69.12,0,0,1,2.95,6.73c1.89,5.64,8,24.36,8.9,31.57l.17,1.44c.64,5.68.72,6.41,2.54,9.84,4.29,9,9.88,26.55,12.27,36.78.66,2.07,1.23,4.3,1.79,6.47.62,2.46,1.22,4.79,2,7.15a36.68,36.68,0,0,0,2.45,5,28.26,28.26,0,0,1,3.25,7.6c.89,2.87,2.46,18,2.46,19.43,0,16.47-22.2,16.47-38.42,16.47-3,0-11.59.45-20.42.91-9.51.51-19.35,1-23.14,1"/><path class="cls-2" d="M2078.62,459c-9.19,0-37.15-.65-43.94-1.27a156.08,156.08,0,0,1-16.8-3.08l-.62-.15-.64-.05c-6.19-.54-13.2-1.15-20-3l-.6-.16-.62-.08a56.3,56.3,0,0,1-13.29-3.41l-4.4-1.65a107.36,107.36,0,0,0-18.44-5.59c-7.23-1.94-13-3.76-18.73-6.64-4.82-2.59-9.45-5.59-13.94-8.49q-3-2-6.28-4.05l-2.75-1.56c-30-17.1-33.85-19.31-56.49-44.21-12.13-12.09-13.49-14.21-21-25.94L1838,346.5a85.74,85.74,0,0,0-6.67-9.78c-1.7-2.24-3.19-4.23-4.39-6.11-5.74-11.19-11.13-33.05-13-42.36-1.76-15.68-4.73-53.44-4.73-65.22,0-6.36,1.17-13.15,3.68-21.37l.15-.48.09-.49c1.6-8.48,11.71-41.79,14.51-46.87,1.6-3.21,12.76-24.18,14.73-26.93l.46-.55.19-.4a54,54,0,0,1,5.21-6.38c1.21-1.33,2.37-2.63,3.46-3.94l.35-.45c.7-1,2.76-4,5.25-7.63l.75-1.11c3.48-5.14,9.94-14.68,11.85-17a57.89,57.89,0,0,1,6.43-5.68l.51-.42a65.93,65.93,0,0,0,7-6.25c2-2,3.73-3.74,5.43-5.54a82.84,82.84,0,0,1,8.54-8.25c4.51-3.65,10-6.78,15.21-9.8a79.16,79.16,0,0,0,7.63-5.14,74.09,74.09,0,0,1,7.44-5.09l.38-.22.35-.25c5-3.53,22.35-11.06,33.18-14.39a71.11,71.11,0,0,1,8-2.19c2.75-.64,5.53-1.28,8.46-2.27,3.86-1.06,7.37-2.32,10.76-3.53,3.62-1.31,7.22-2.57,10.65-3.5,10-2.3,62.18-7.44,66.91-7.49,3.68,0,18.07,1.85,28.57,3.2,6.85.89,12.73,1.64,15.36,1.87,12.9,1.24,26.29,2.52,38.37,6.12l9.29,3.5c14,5.26,43.09,16.19,46.33,17.91l.64.39.53.18c6.61,2.64,24.77,15.92,39.29,27.69,3.08,2.46,6.25,5.59,9.33,8.61,1.56,1.53,3.12,3,4.67,4.53a74.48,74.48,0,0,0,11.17,9.11l.79.71c6.44,6.3,10.49,10.27,14.72,19.41l.25.55.33.51a123.05,123.05,0,0,1,7.31,14.11l.46.9c2.24,3.86,4.78,7.8,7.39,11.83s5.1,8,7.43,12.05a78.71,78.71,0,0,1,7.42,22.18c2.41,10.55,7.86,72,7.86,78.89,0,7.29-5.29,32.77-7.72,40l-2.36,6.75c-4.09,11.73-10.93,31.34-14,37.26-5.11,11.1-11.6,23.36-31.69,44.93-6.64,7.68-37.94,34.31-48.45,39.13l-.56.27c-3.68,2-8.5,3.58-13.16,5.11l-.7.23c-3.07,1-6.15,2-9.11,3.22l-.59.24-2.89,1.67a62.82,62.82,0,0,1-10.58,5.05l-.82.28-.41.24c-4.76,2-38.11,12.53-41.83,13.38-3.17.57-6.68,1-10.3,1.48l-1.34.17c-3.58.43-7.33.9-11.08,1.52-2.52.32-5.21.88-7.77,1.42l-.56.12c-1.83.39-3.55.75-5.14,1A182.71,182.71,0,0,1,2078.62,459Zm-51.15-99.89c2.68.71,5,1.32,8.23,1.95,10.8,2.05,11.73,2.05,23.1,2.05.68,0,2.7.11,5,.22l3.32.16c2.57.12,4.93.23,5.93.23,3.22,0,19.46,0,23.68-.67,13.68-2.1,42-16.51,49.32-21.12,15.2-9.3,31.4-28.05,36.72-34.21l2.52-2.88.56-1.24c.47-1,.92-2.37,4.93-14.31l.37-1.1c1.66-5,3.85-11.54,6.8-20.24l.19-.64c3.31-12.82,4-19.31,4-25.13,0-3.61-.19-7.05-.4-10.5-.19-3.26-.38-6.51-.38-9.92v-8.33a55.79,55.79,0,0,0-.87-11.77l-.12-.56-.19-.55c-.47-1.4-12.51-30.49-19.72-39.23-3.07-4.14-7-7.49-10.86-10.75-2.34-2-4.78-4.06-6.78-6.14l-.42-.41c-1.61-1.46-3.31-3.25-5-5-3.58-3.75-7.28-7.64-12-10.53-7.9-5.26-40.38-16.43-44.37-17.29-8.57-2.3-41.94-2.69-42.27-2.69-7.27,0-14.79,0-20.89,1.43-19.93,3.69-21.61,4.38-33.44,10.75l-.89.46c-23.17,11.62-26.19,13.3-35.87,23-8.59,7.77-22.32,26.07-25.51,31.9-3.56,5.75-4.71,12.34-5.83,18.71-.57,3.18-1.06,5.94-1.74,8.54-.54,2.41-1.13,4.54-1.71,6.66l-.16.6a92,92,0,0,0-3,13.8l-.07.55,0,3.91c0,.46,0,2.07,1.19,18.93.2,2.84.34,5.12.4,6,.62,6.06,2.66,11.49,4.64,16.73,1,2.73,2,5.14,2.72,7.56,7.17,21.27,8.27,24.5,16.5,35.82,13.52,19.18,43,37.85,48.91,39.93a42.21,42.21,0,0,0,8,1.56,53.65,53.65,0,0,1,6.71,1.14l.5.12a29,29,0,0,1,3.46,1.05A37,37,0,0,0,2027.47,359.12ZM1734,455.8c-1.67,0-12.16-.27-26.73-.7-10-.27-19.41-.52-21.94-.56l-20.6-1.92c-27-3.09-28.47-3.66-52.59-13.1l-.65-.23c-10.1-3.08-19.19-6.89-35.8-17.26l-18.84-13.24c-4.45-3.27-9.35-6.24-14.09-9.11s-9.34-5.66-13.54-8.74l-.5-.34a57.62,57.62,0,0,1-6.49-5.12c-1.14-1-2.32-2-3.56-3-17.14-16.95-23.86-27.79-35-45.7l-.44-.77c-11.88-20.37-20.45-35-23.47-61.75l-.07-.62-.16-.61c-.64-3.15-2.87-28.09-2.89-31.45,0-.91.34-3.43.68-6.11l.13-1.13c.48-4,.78-6.47.78-8.09,0-1.09-.14-3.77-.3-6.74l-.1-1.78c-.2-3.43-.4-6.84-.4-8.08,0-3,.27-4.51,1.3-9.93.53-2.71,1.08-5.61,1.74-9.42l0-.17c1.07-5.43,1.87-10.77,2.64-15.93,1.54-10.21,3.12-20.78,6.68-30.61,5.86-17.54,18.86-36.19,27.17-46.49l.49.46,6.34-7.8c7.27-9.57,45.39-41.49,58.74-48.26,15.28-7.62,32.62-14,53-19.45,45.35-11.94,64.21-11.94,101.78-11.94,3.08,0,32,1.24,35.61,1.82,10.87,2.06,14.31,3.57,14.31,21.53,0,3.89-.38,8.12-.75,12.21-.47,5-.82,9.1-.82,13.32,0,1.94.28,6.3.76,13.18.26,3.87.81,12,.81,14.28,0,5.59-.51,9.44-1.6,12-2.9,2.85-9.06,5.6-15.86,5.6a69.84,69.84,0,0,1-10.7-1.15l-.65-.08c-2.37-.21-4.66-.44-7-.68l-1-.1a145.09,145.09,0,0,0-16.37-1.16c-49.4,0-88.75,25.08-100.07,37.24-3.27,3.27-24.27,33.11-27,38.86-4,9.13-6,26.91-6,53.08,0,21.51,15.38,77.27,62.92,112.36,22.55,17.5,64.83,21.32,74.08,21.32,3.32,0,19.29-1.09,25.11-2.53l.84-.13c.75-.11,1.92-.32,3.26-.57l1.13-.22c2-.38,5.19-1,6.1-1,3.34,0,13.5,0,13.5,15.05,0,.89-.16,3.45-.34,6.15l-.07,1.1c-.2,3.11-.38,6.19-.38,7.47s.25,3.31.8,7.62c.4,3.19.76,6,.8,7.15s-.56,5.67-1.16,10.54l-.07.64c-.78,6.29-1.14,9.43-1.14,11.05v11.52c0,5.39,0,9.64-10.62,14.15l-.41.17-.38.21C1749.47,455.17,1742.6,455.8,1734,455.8ZM2409,453.88c-7.91,0-14.35-1.3-19.14-3.89-7.11-4-7.09-6.54-7-10.78v-.47c.47-4.31.41-13.25.13-26.93-.07-3.26-.13-6-.13-7.47,0-2,.32-8.3.62-14.4l.22-4.37c.38-7.54.75-14.66.75-17.59,0-1.23-.18-4.73-.37-8.47-.22-4.16-.43-8.41-.43-10.07v-16c0-1.8.52-10.14.74-13.7l.13-2.11c.46-7.38.74-12,.74-14.2,0-1.2-.19-3-.67-7.57l-.08-.74c-.31-3.13-.85-8.42-.86-9.58V285l-.08-.69a110.94,110.94,0,0,1-.7-15.29c0-16.6.81-34.11,1.57-49.26,1.55-13.16,1.62-14.23,1.62-18.42a188.14,188.14,0,0,0-1.76-22.28c-.57-4.66-1.12-9.22-1.42-13.52,0-2.87.15-9.4.32-16.47l0-2.51c.21-8.82.41-17.88.41-21.19,0-2.89-.33-9.87-.71-18l0-.86c-.33-7.14-.79-16.92-.79-20.11,0-1,.18-3.83.38-6.7.19-3.2.37-6.35.37-7.34s-.18-3.45-.39-5.86c-.18-2.06-.36-4.11-.36-5v-8.3a78.94,78.94,0,0,0-1.13-9.12l-.08-.57c-.61-4.26-1.2-8.28-1.2-9.46,0-4.41,0-9.9,1.24-12.86l.21-.52c.92-2.64,4.79-6.82,11.29-6.82.94,0,5.16.63,6.55.82l.77.11a86.9,86.9,0,0,0,9.29,1h5.3l1-.25a24.41,24.41,0,0,1,5.54-.4l18,.64a63.37,63.37,0,0,0,9-.6l10.31,0c5.17,0,20.05.68,24.08,1.76,1.06.28,2,.56,2.83.85,1.38.44,2.32.74,3.44,1a33,33,0,0,0,8.88.83,25.54,25.54,0,0,1,6.2.46c3,.8,9.45,5.05,12.45,7.35,2.72,2.53,12.3,13.34,45.66,56.43l1.52,2,.76.63a47.57,47.57,0,0,1,5.39,5.52c1,1.26,2,2.56,3,3.84a66,66,0,0,0,5.62,6.92l3.22,4.12c12.7,16.36,14.34,18.47,18.62,25.92,5.05,8.89,15.06,20.19,22.64,28.16a474.77,474.77,0,0,1,39.83,55.38c1.27,2.32,4.32,6.79,9.35,14l.55.8c2.34,3.37,4.44,6.38,5.32,7.8l.37.6.47.55c4.9,6.34,8.06,10,10.23,11.9l7,6.16,5.93-7.24c4.28-5.23,4.55-14.21,4.47-25.41v-3.11c0-1.22.19-4.76.4-8.31l.13-2.5c.16-2.85.29-5.37.29-6.4a61.73,61.73,0,0,0-.42-6.57,53.87,53.87,0,0,1-.4-5.56c0-1.37.56-7.22.78-9.42l.16-1.76c.41-4.26.66-7,.66-8.63,0-1.48-.29-4.17-1.09-11-.48-4-1.28-10.74-1.28-12.63,0-1.66.63-7.64,1.09-12l.16-1.52c.7-6.78,1.12-11,1.12-13.27s-.42-7.11-1.11-15l-.09-1c-.32-3.54-1.17-12.88-1.17-15.26V91l-.06-.52c-.51-4.43-.22-24.54-.06-35.34.07-4.48.12-8.19.12-10.2,0-.95-.22-3.14-.5-5.77l-.15-1.47c-.32-3-.91-8.37-.91-10,0-7.08,7.35-10.12,9.07-10.74,2.06-.46,5.7-.47,20.25-.47h20.61c2.3,0,7.69,0,13.74.59l.68,0c3,.08,6.54.22,9.38.4,2.29.15,3.76.23,4.68.23,2.73,0,5.29-.15,7.82-.31,2.93-.19,5.38-.34,8-.34.89,0,3.14-.22,5.72-.49l.72-.07c5.77-.6,7.38-.7,7.84-.7,4.41,0,15.89,3.39,15.89,18.89,0,1.89-.54,7.53-1.07,13-.85,8.55-1.32,13.8-1.32,16.37,0,1.85.16,7.9.38,14.17l0,.75c.19,6.41.38,12.86.38,15.08,0,2.8-.18,11-.37,19.45-.22,8.92-.41,18.12-.41,21.4V156a152.87,152.87,0,0,1-.75,18.54l-.08.63,0,.64c0,1.77-.65,10.49-1.1,16.26l-.09,1.24c-.7,9.21-1.16,15.46-1.16,18.22,0,1.94.22,6,.59,12.53l.16,3c.34,6.1.81,14.45.81,17l0,.58c.53,8.46.34,21.19.17,32.42l0,1.71c-.08,5.23-.16,10.2-.16,14.45,0,7.4.18,17,.37,26.83l.05,2.7c.2,10.48.4,21,.4,29.2a34.18,34.18,0,0,1-.4,4.33l-.07.52c-.16,1.17-.28,2.26-.33,3.29l-.26,1.76a63.28,63.28,0,0,0-1.32,11.16c0,1.15.16,4.19.33,7.48l.11,2.21c.16,3.29.33,6.42.33,7.56,0,3.05.83,10.17,2.2,21.52l.13,1.06c1,8.42,2.45,19.92,2.45,23.38,0,6.35,0,17-24.62,17a78.56,78.56,0,0,1-11.9-.6l-1.46-.24-1.47.24-5.6.29c-3,.16-6.14.31-7.29.31-1.91,0-9.21-.4-13.58-.64-7.45-.41-12.1-.65-14.16-.65-1.68,0-4.49.22-9,.59l-.9.07c-2.71.22-7.76.63-9.15.63-15.52,0-23.86-11.41-32.42-25.2A108.86,108.86,0,0,0,2684,410.83c-1.48-1.73-3.18-3.72-5.31-6.29a252.45,252.45,0,0,1-25-32.15c-11.78-17.44-22.09-31-26.49-36.82-1.23-1.62-2-2.59-2.2-2.94a88.84,88.84,0,0,0-11.15-12.32l-.28-.36a144.59,144.59,0,0,0-10.26-13.23c-3.42-4.18-9.1-10.86-15.5-17.51-2.42-3.38-9.78-13.76-9.78-13.76l-3.65-4.58c-4.47-5.6-9-11.36-12.64-16.62l-.3-.42a179.16,179.16,0,0,1-10.24-15.49c-2-3.25-4-6.48-6.06-9.61l-.32-.45a51.26,51.26,0,0,0-8.62-9.57l-.46-.37-.52-.31c-7.17-4.34-11.65-6.1-15.43-6.1-5.91,0-13.38,4.25-14.94,16.25-.85,4.61-2.41,28.41-2.41,33.81,0,1.23.18,4.67.36,8.3.21,4.06.42,8,.42,9.58,0,.72-.12,2.71-.24,5l-.15,2.73c-.2,3.46-.39,6.91-.39,8.18V310.5c0,.8-.15,3-.31,5.43l-.12,1.87c-.21,3.35-.41,6.69-.41,8a60.61,60.61,0,0,0,.93,11.12c.69,4,.69,20.53.69,25.94,0,1.4.23,4,.65,9l.08,1c.38,4.37.79,8.94.85,10.94l0,.66.12.65c.41,2.34.13,11.57,0,16l-.05,1.66c0,1.52-.08,2.78-.08,3.56a24.19,24.19,0,0,0,.76,7.1l.09.46c.13,1.63.54,4.14,1.44,9.29l.14.84c.55,3,1.53,8.42,1.53,9.78,0,6.5-12.65,14.81-16.75,15.78l-.56.09-.4.13h-2.18c-1.93,0-4.46-.08-7.69-.2,0,0-2.85-.11-3.38-.11-.73,0-2.08,0-11.32,1.22-4.67.58-9.91,1.22-12.19,1.32l-.7,0-.7.14c-.56.11-3.4.47-16.22.47-1.73,0-6.36.23-11.43.5l-5.27.28C2415.11,453.64,2410.62,453.88,2409,453.88Zm1379.17,0c-48.22,0-51.78-4.19-60.63-24-.73-1.77-1.35-3.75-2-5.94a46.8,46.8,0,0,0-4.65-11.25l-4.58-7.37c-5.16-9.67-9.17-14.54-24.77-20.08-9.41-3-43.61-4.13-49.9-4.13h-25.35c-5.89,0-10.11.68-25.34,3.28-18.41,3.24-26.71,4.69-34.84,11.95-5.55,5.22-18.81,26.51-20.54,42.61l-.06.5v.5c0,3.64,0,3.64-6.13,8.6-5.53,4.44-5.86,4.7-24.77,4.7-2.67,0-10.12-.15-17.82-.3l-3.75-.08c-7-.14-13.66-.27-16.45-.27-1.47,0-4.58.17-11.11.61-4.08.25-10.22.64-12.4.67-5.75-.4-20.4-1.94-23.38-3l-.28-.11c-4.39-2.51-9.12-9-9.12-14.47a33.31,33.31,0,0,1,2.73-13.34,53.06,53.06,0,0,0,4.09-9.81,37.85,37.85,0,0,0,2-9l.08-.53c.16-1.17.31-2.33.54-3.41l.09-.53c.45-3,.94-5.7,1.45-8.41l.83-4.54c.32-1.58,1.86-6.34,3.35-11l.38-1.22c1.83-5.79,3-9.43,3.37-11.39a116.85,116.85,0,0,0,2.61-17c.41-4,.77-7.54,1.35-10.88,1.78-7.12,8.74-32.59,11-39.17.82-2.65,1.79-5.31,2.75-8s2-5.53,2.83-8.16l.14-.51c1.12-4.51,1.9-9.16,2.66-13.66s1.59-9.54,2.79-14.1c1.15-5.27,10.81-41.46,13.74-46.64l.4-.7.42-1c.24-.56.83-1.56,1.41-2.59a30.58,30.58,0,0,0,3.81-8.9,31.45,31.45,0,0,0,.94-4.89,28.1,28.1,0,0,1,.61-3.37l.18-.56.09-.59c.81-4.54,10.16-45.71,12.27-50.8l.2-.48,1.22-4.35c.38-1.43.72-2.69,1.08-3.81l.14-.46.1-.48a47.72,47.72,0,0,1,2.81-9.56l.17-.42.13-.43a57.48,57.48,0,0,1,2.59-6.21l.37-.77a67.48,67.48,0,0,0,3-7.32c2.57-5.81,3.44-11.07,4.31-17.29,8.13-45.21,18.9-65.54,61.08-65.54,3,0,10.91,0,19.45.65,6.11.37,12.76.55,20.47.55,15.34,0,33.13-.72,52-1.48l9.26-.37.38,0a88.89,88.89,0,0,1,10.86-.65c16.29,0,32.9,4.08,44.42,10.91,12.25,7.55,16.32,13.28,21.68,30.54l.19.55c1.65,4.34,3.27,9.45,4.68,14,1.22,3.89,2.48,7.87,3.87,11.84,1.24,3.64,2.83,7.15,4.35,10.55,1.63,3.58,3.15,6.95,4.25,10.18l6.36,24.25c.18.94.35,2.14.52,3.33a35.06,35.06,0,0,0,1.83,8.15,56.65,56.65,0,0,0,4.11,10l1,2.62c2.35,6.46,7.3,20,10,31.29l.84,4.44c1.54,8,2,10.4,4.82,18.38,3.27,7.9,9.15,27.09,10.05,31,.27,2.17.44,4.09.61,6a71.77,71.77,0,0,0,1.92,13.11l.18.64.26.61c.66,1.48,1.68,3.49,2.7,5.47.81,1.58,1.65,3.19,2.34,4.78.64,2.44,1.81,6.11,3,10l.53,1.67c1.36,4.23,3.2,10,3.56,11.7a72.77,72.77,0,0,1,1.45,8.9l.08.63a82.37,82.37,0,0,0,1.69,10.46l.12.49.18.48c.64,1.7,1.56,3.69,2.5,5.7l.24.5a60.25,60.25,0,0,1,2.64,6c3.62,10.71,7.85,24.65,8.46,29.62l.15,1.34c.69,6.06.91,8.1,3.55,13.06,3.77,7.9,9.2,24.89,11.43,34.58l.09.37.11.36c.6,1.89,1.13,3.92,1.63,5.92.69,2.67,1.34,5.25,2.27,7.91a41.74,41.74,0,0,0,3,6.25,22.59,22.59,0,0,1,2.45,5.29l.09.43.13.42c.56,2.17,1.94,14.59,2,16.91,0,6.61-14.5,7.19-29.35,7.19-3.31,0-11.86.44-20.92.92C3803.26,453.28,3791.9,453.88,3788.12,453.88ZM3589.5,208.75a101.3,101.3,0,0,0-3.25,14,80.17,80.17,0,0,1-3.76,12.71c-2.5,7.43-5,14.92-5,23.33,0,16.14,9.47,35.39,54.6,35.39a290.92,290.92,0,0,0,37.18-3.26c7.22-1.18,20.64-3.35,20.64-20.62a31.2,31.2,0,0,0-.77-8.19c-2.43-18.48-3.31-24.87-9.87-41.42-.71-1.91-1.51-3.88-2.33-5.87a82.35,82.35,0,0,1-4.57-13.23l-.15-.66-.25-.64a73.54,73.54,0,0,1-2.79-11.52L3669,188c-.46-2.41-.91-4.78-1.47-7l-.11-.47-.16-.45c-.68-1.86-1.66-3.94-2.66-6a64.39,64.39,0,0,1-2.73-6.25l-.16-.44-.2-.43c-2.05-4.35-6.07-17.28-7.39-21.53-2.76-8.22-8.91-17.78-22.85-17.78-9,0-15,6.11-17.11,8.73-2.73,3-7.14,10.33-17.16,39.26l-1.23,3.47-2.35,15.14-.87,2.93A84.94,84.94,0,0,0,3589.5,208.75ZM3054.58,453.88c-4.3,0-16.28-.37-29-.76L3021,453c-16.78-.53-32.35-1-38.45-1h-23.79c-31.35,0-45.95-5.6-45.95-17.6,0-1,.25-4.41.74-10.09l.09-1c.44-5.07.71-8.26.71-10,0-6.46-.72-25.27-1.35-41.87l0-.59c-.48-12.4-.95-24.77-.95-27.77,0-.51.05-2.07.13-4.32l0-.72c.23-6.5.63-17.38.63-26.86.76-14.69,1.54-32.35,1.54-48.53,0-2.17-.41-6.81-1.09-14.19-.6-6.43-1.24-13.35-1.24-15.8,0-.29.06-1.73.69-7.9l.1-1.07c.47-4.73.76-7.72.76-9.54v-8.94c0-1.32.15-4.86.3-8.8l.15-3.73c.17-4.44.33-8.7.33-10.45,0-3.27-.13-11.87-.27-21.73l-.14-9.71c-.18-12.49-.37-24.94-.37-29.85,0-1.55.14-5.79.3-10.58l.08-2.68c.2-6.27.4-12.83.4-15.47s-.43-9.79-1.08-20.36c-.53-8.45-1.25-20-1.25-23.7,0-4.26.68-25.75,14.1-29.95,6.28-1.26,64.72-2.34,71.43-2.34,1.12,0,3,.08,5.32.18l1.05.05c3.9.17,9.23.42,14.73.43l4.15.26c7.77.56,14,1,16.76,1,7.77,0,15.59-.62,23.15-1.21l1-.08c7.72-.63,15.68-1.28,23.46-1.28,1.13,0,4.55.15,8,.31l.7,0c3.44.16,6.75.31,7.92.31.63,0,2.28-.09,4.24-.21l1.32-.09c2.78-.17,5.84-.35,7.08-.35.76,0,3,.26,5.46.53l1.78.19c3.54.37,5.61.59,7,.59h10.33c12.06,0,30.09,3.59,33.11,4.73l1,.39,1.22.19c.64.12,1.83.51,3,.87,1.65.51,3.34,1,5.05,1.36,2.07.42,4.17.77,6.27,1.1a100.31,100.31,0,0,1,11.68,2.44c1.49.69,2.59,1.28,3.67,1.86a52,52,0,0,0,8.72,4,40.38,40.38,0,0,0,6.69,1.44,40.36,40.36,0,0,1,5,1c1.53.61,3,1.27,4.49,1.93l1,.43c1.63.73,3.24,1.45,4.69,2a45,45,0,0,0,8.86,2.85c1.31.32,2.6.64,3.81,1,3.47,1.55,70.48,32.22,101.46,89.16l.3.49c1.77,2.93,17.84,33.8,19.28,37.32,2.92,8.31,8.33,39.61,8.33,46.77,0,1.23-.17,4.6-.37,8l-.09,1.61c-.16,3.05-.3,5.86-.3,7,0,2,.27,5.45.7,11l.1,1.27c.33,4.13.79,9.77.79,11.43,0,9.67-.68,12.25-6,32.3l-.94,3.49c-4.87,21.75-5.57,23.26-9,28.73l-.42.68-.3.74a45.61,45.61,0,0,1-3.6,6.29c-.81,1.27-1.42,2.21-2,3.22a70,70,0,0,0-3.26,7.06l-.27.66c-.85,2.06-1.73,4.18-2.7,6.07a82.47,82.47,0,0,1-7.18,8.46c-1.17,1.26-2.37,2.55-3.56,3.9l-.39.47c-1.85,2.41-3.72,5.06-5.56,7.72-1.63,2.33-3.27,4.68-5.08,7.06-4.46,4.79-34.77,31.77-38.27,34.58-9.71,7.3-30,17.27-38.93,20.91-7.91,2.56-15.76,4.45-23.35,6.28l-.43.1-16.7,5.8a174.24,174.24,0,0,1-18.08,3.78c-3.41.57-6.65,1.14-9.8,1.77-28.86,5.65-45.7,5.65-126.6,5.65Zm-17.33-294.81c-.45,3-.49,8.94-.17,22.7l0,1.58c0,2,.09,3.65.09,4.59,0,3.16-.55,12.6-1.1,21.74l-.22,3.72c-.55,9.62-1.08,18.7-1.08,22.41,0,24.24,0,64.81,3.24,87.48,2.36,26.27,16.87,39.83,89.44,39.83a183.7,183.7,0,0,0,19.51-.7c14.6-1.95,44.37-10.31,56.13-15.71,46.84-22.92,57.39-88.86,57.39-100,0-3.27-.69-22-2.52-29.27-.8-3.21-1.79-6.21-2.74-9.11-1.12-3.42-2.07-6.36-2.81-9.38l-.37-1.8a62.72,62.72,0,0,0-3-11l-.33-.79-.46-.72a82.43,82.43,0,0,0-7-8.67c-1.72-1.93-3.3-3.75-4.78-5.64l-.25-.31-.26-.29a38.26,38.26,0,0,1-4.65-6.6l-.22-.38-.27-.36c-8.32-11.26-13.88-14.24-27.16-21.23-23.69-15.06-27.37-16.51-28.58-17-19-8-57.41-10.56-73-10.56-5.48,0-15.12.6-24.44,1.18l-2.19.13-.4.06c-8.76,1.3-10.53,2.14-16.57,6.29l-1.35,1C3046.37,130.19,3039.63,136.64,3037.25,159.07ZM1360.9,453.87c-48.23,0-51.78-4.19-60.63-24-.74-1.79-1.35-3.75-2-5.94a46.76,46.76,0,0,0-4.63-11.23l-4.59-7.39c-5.16-9.67-9.17-14.54-24.78-20.08-9.36-3-43.6-4.13-49.9-4.13H1189c-5.89,0-10.12.68-25.34,3.28-18.38,3.22-26.7,4.68-34.83,11.95-5.55,5.22-18.83,26.5-20.55,42.62l0,.49v.5c0,3.64,0,3.64-6.14,8.6-5.53,4.44-5.86,4.7-24.77,4.7-2.15,0-7.42-.1-13.42-.22l-5.85-.11c-7.85-.16-15.66-.32-18.75-.32-1.6,0-5,.21-11.1.6-6.56.42-10.73.65-12.41.67-5.9-.41-20.34-1.91-23.36-3l-.3-.11c-4.39-2.52-9.13-9-9.13-14.46a33.43,33.43,0,0,1,2.74-13.34,54.54,54.54,0,0,0,4.1-9.81,38.83,38.83,0,0,0,2-9l.07-.54c.16-1.16.31-2.3.54-3.39l.1-.54c.44-3,.94-5.7,1.44-8.4l.83-4.54c.33-1.62,1.94-6.58,3.35-11,2-6.27,3.34-10.52,3.76-12.6a117.84,117.84,0,0,0,2.6-17c.42-4.12.78-7.6,1.35-10.88,1.79-7.14,8.75-32.63,11-39.16.82-2.66,1.79-5.32,2.75-7.95l.38-1.05c.87-2.43,1.73-4.83,2.45-7.13l.14-.5c1.11-4.45,1.88-9,2.62-13.46l.09-.5c.69-4.13,1.54-9.25,2.75-13.82,1.14-5.26,10.81-41.5,13.73-46.65l.39-.67.41-1c.25-.58.85-1.6,1.44-2.64a30.12,30.12,0,0,0,3.81-8.93,33.66,33.66,0,0,0,.9-4.59,28.62,28.62,0,0,1,.65-3.63l.17-.57.1-.59c.8-4.53,10.14-45.67,12.26-50.79l.2-.46,1.21-4.36c.38-1.37.74-2.69,1.1-3.87l.13-.43.09-.44a48.72,48.72,0,0,1,2.82-9.58l.17-.42.14-.43a55.91,55.91,0,0,1,2.76-6.58l.27-.59a62.62,62.62,0,0,0,3-7.14c2.57-5.79,3.45-11,4.32-17.28,8.12-45.21,18.89-65.54,61.07-65.54,3,0,10.91,0,19.46.65,6.1.37,12.75.55,20.45.55,15.39,0,33.26-.72,52.18-1.49l9.07-.36.38,0a89.05,89.05,0,0,1,10.87-.65c16.29,0,32.9,4.08,44.41,10.91,12.25,7.55,16.32,13.27,21.68,30.53l.19.56c1.6,4.16,3.06,8.8,4.61,13.72l.22.7c1.18,3.75,2.38,7.57,3.72,11.37s3,7.57,4.5,10.87c1.4,3.1,3,6.59,4.11,9.86l6.34,24.25c.19.94.36,2.12.52,3.29a36.36,36.36,0,0,0,1.83,8.17,55.47,55.47,0,0,0,4.12,10l1,2.62c2.36,6.46,7.29,20,10,31.3l.86,4.47c1.56,8.08,2,10.45,4.81,18.35,3.25,7.85,9.14,27,10.06,31,.26,2.17.43,4.08.59,6a72.38,72.38,0,0,0,1.93,13.12l.18.65.27.62c.65,1.48,1.67,3.49,2.69,5.46.82,1.59,1.66,3.19,2.34,4.78.71,2.66,2.06,6.87,3.36,11l.22.68c1.26,3.94,3.16,9.88,3.55,11.7a78.86,78.86,0,0,1,1.48,9.21l.09.75a77.28,77.28,0,0,0,1.64,10l.12.51.19.49c.62,1.65,1.49,3.53,2.4,5.46l.32.7a58.82,58.82,0,0,1,2.64,6c3.63,10.75,7.86,24.7,8.47,29.64l.15,1.34c.69,6.07.92,8.11,3.55,13.07,3.77,7.89,9.2,24.88,11.43,34.58l.19.69c.6,1.9,1.14,3.95,1.65,6,.66,2.62,1.32,5.21,2.26,7.91a41.33,41.33,0,0,0,2.95,6.22,23.33,23.33,0,0,1,2.46,5.32l.09.43.14.42c.55,2.18,1.93,14.59,2,16.91,0,6.61-14.5,7.19-29.35,7.19-3.31,0-11.87.44-20.93.92C1373.85,453.4,1364.4,453.87,1360.9,453.87ZM1162.28,208.76a99,99,0,0,0-3.26,14.08,80.49,80.49,0,0,1-3.68,12.45c-2.56,7.57-5.09,15.07-5.09,23.49,0,16.14,9.47,35.39,54.59,35.39A290.52,290.52,0,0,0,1242,290.9c7.21-1.17,20.62-3.34,20.62-20.61a31,31,0,0,0-.76-8.18c-2.43-18.55-3.32-24.92-9.87-41.43-.71-1.91-1.51-3.9-2.33-5.88a84.31,84.31,0,0,1-4.57-13.22l-.15-.67-.25-.63a74,74,0,0,1-2.82-11.68c-.5-2.61-1-5.15-1.57-7.51l-.12-.49-.17-.48c-.67-1.82-1.62-3.87-2.61-5.94a64.68,64.68,0,0,1-2.78-6.36l-.15-.42-.2-.42c-2.06-4.38-6.07-17.29-7.38-21.53-2.78-8.23-8.93-17.78-22.86-17.78-6.25,0-12.47,3.17-17.08,8.68-2.78,3.1-7.18,10.41-17.19,39.31l-1.24,3.51-2.34,15.09-.86,2.92A87.22,87.22,0,0,0,1162.28,208.76ZM526.75,453.87c-7.94,0-14.38-1.3-19.13-3.88-7.12-4-7.11-6.52-7.07-10.75v-.46c.5-4.42.43-13.68.14-27l-.06-2.79c0-2-.07-3.63-.07-4.68,0-2.36.42-10.51.75-17.06.46-8.74.83-16.22.83-19.3,0-1.25-.16-4.82-.36-8.61-.2-4.05-.42-8.27-.42-9.92v-16c0-1.65.43-8.63.74-13.72.46-7.42.84-13.78.84-16.29,0-1-.27-3.81-.6-7.08l-.12-1.19c-.32-3.26-.84-8.48-.86-9.63V285l-.09-.71a108.32,108.32,0,0,1-.71-15.23c0-16.71.86-34.55,1.54-48.89l0-.38c1.55-13.15,1.61-14.23,1.61-18.42a188.77,188.77,0,0,0-1.8-22.8l-.07-.58c-.5-4.2-1-8.34-1.29-12.42,0-3.08.17-10.19.36-17.7l0-2c.2-8.6.39-17.26.39-20.48,0-2.93-.33-10.07-.73-18.35-.41-8.45-.85-17.49-.85-20.59,0-.87.17-3.31.34-5.89l.05-.84c.22-3.47.39-6.35.39-7.29s-.16-3.05-.35-5.23l0-.61c-.18-2.12-.37-4.13-.38-5.05v-8.3c0-1.14-.16-2.69-1.13-9.35-.49-3.34-1.23-8.39-1.23-9.78,0-4.42,0-9.94,1.21-12.89a12.06,12.06,0,0,1,11.49-7.31c.2,0,1.49.1,6.57.81l1.35.19a80.31,80.31,0,0,0,8.71.94H532l1.05-.26a24.54,24.54,0,0,1,5.55-.4l18,.65a61.77,61.77,0,0,0,8.94-.6l10.3-.05c5.15,0,20.05.69,24.12,1.77.8.22,1.53.45,2.25.67l.64.21c1.27.41,2.26.72,3.41,1a32.94,32.94,0,0,0,8.84.82,26.32,26.32,0,0,1,6.23.47c2.94.78,9,4.77,12.46,7.37,2.74,2.58,12.36,13.47,45.58,56.39l1.54,2,.73.62A47.26,47.26,0,0,1,687.12,92c1.12,1.35,2.17,2.75,3.19,4.11a70,70,0,0,0,5.39,6.64l2.59,3.28c13.5,17.38,14.92,19.2,19.23,26.76,5.14,9,15.13,20.22,22.69,28.16A480.21,480.21,0,0,1,780,216.31c1.2,2.22,3.84,6.12,9,13.55l.3.43c2.57,3.69,4.94,7.09,5.89,8.62l.38.63.49.56c4.61,5.89,7.79,9.78,10.22,11.88l7,6.11,5.92-7.17c4.31-5.21,4.59-13.84,4.52-25.46v-3.09c0-1.2.2-4.75.4-8.29.22-4.06.4-7.63.4-8.91,0-2.35-.2-4.52-.39-6.6a53.24,53.24,0,0,1-.41-5.53c0-1.11.4-5.39.69-8.51l.08-.94c.52-5.29.82-8.5.82-10.35,0-1.52-.31-4.33-1-10.35l-.12-1.07c-.62-5.22-1.26-10.6-1.26-12.22s.49-6.13,1.1-12c.85-8,1.29-12.54,1.29-14.78,0-2.08-.38-6.58-1-13.75l-.19-2.26c-.57-6.38-1.19-13.27-1.19-15.27V91l-.06-.54c-.51-4.23-.23-22.93-.06-35.3l0-1.35c.06-3.88.1-7,.1-8.85,0-.88-.19-2.91-.46-5.4l-.19-1.84c-.42-3.81-.93-8.51-.93-10,0-7.08,7.43-10.12,9.16-10.74,2-.45,5.62-.46,20.18-.46h20.61c2.3,0,7.69,0,13.81.59l.46,0h.48c3.1,0,6.38.21,9.08.38,2,.14,3.68.24,4.69.24,2.71,0,5.22-.15,7.73-.3,2.93-.18,5.43-.33,8.11-.33.9,0,2.91-.21,5.28-.46l1.15-.13c5.49-.56,7.3-.69,7.84-.69,4.41,0,15.9,3.39,15.9,18.88,0,1.88-.55,7.49-1.09,12.92-.87,8.88-1.31,13.92-1.31,16.47,0,1.84.17,7.84.36,14.09.21,7,.42,13.65.42,15.91s-.14,8.51-.29,15.42l-.1,4.75c-.2,8.71-.39,17.49-.39,20.67V156a148.85,148.85,0,0,1-.77,18.53l-.08.65v.65c0,1.68-.61,10.08-1.08,16.22-.75,9.62-1.26,16.61-1.26,19.47,0,2.15.28,7,.72,14.82l.11,2c.36,6.32.76,13.48.76,15.76l0,.54c.51,8.72.32,21.83.14,33.4-.08,5.52-.16,10.75-.16,15.22,0,7.91.18,18.36.39,28.9l0,1.11c.19,10.32.38,20.64.38,28.72a37.69,37.69,0,0,1-.39,4.4c-.19,1.36-.33,2.59-.38,3.73l-.27,1.74a63.35,63.35,0,0,0-1.34,11.2c0,1.16.16,4.3.33,7.65l.06,1.18c.2,3.61.4,7.17.4,8.42,0,3.2,1,11.38,2.33,22.58,1.15,9.4,2.46,20.06,2.46,23.36,0,6.36,0,17-24.62,17a79.48,79.48,0,0,1-11.9-.59l-1.36-.22-1.38.19-5.87.31c-3,.16-6.08.31-7.23.31-1.83,0-8.63-.36-13.6-.63-6.7-.38-12-.66-14.12-.66-1.77,0-4.9.25-9.85.67-3.32.26-7.86.62-9.18.62-15.52,0-23.85-11.42-32.4-25.22A110.74,110.74,0,0,0,802,411c-1.49-1.73-3.2-3.75-5.39-6.42l-.37-.42a241.92,241.92,0,0,1-24.69-31.74c-11.46-17-21.73-30.58-26.12-36.38-1.39-1.84-2.21-2.93-2.5-3.34a90.5,90.5,0,0,0-11.36-12.51,152.12,152.12,0,0,0-10.33-13.4c-5.11-6.22-10.41-12.21-15.58-17.58l-13.1-17.91-.35-.45c-4.44-5.54-9-11.27-12.58-16.55l-.31-.44c-3.65-4.77-6.95-10.14-10.14-15.32-2.06-3.37-4.07-6.63-6.18-9.8a52.68,52.68,0,0,0-8.86-10l-.51-.42L653,218c-8.92-5.32-12.66-6-15.37-6-5.94,0-13.42,4.26-15,16.28-.83,4.67-2.43,28.68-2.43,33.78,0,1,.12,3.52.27,6.41l.1,1.89c.2,3.86.42,7.94.42,9.58,0,.89-.16,3.71-.34,6.73l-.05,1c-.21,3.47-.4,7-.4,8.26V310.5c0,.89-.17,3.55-.34,6.4-.23,3.59-.45,7.49-.45,8.89a64.4,64.4,0,0,0,.86,11.09c.72,4,.72,20.55.72,26,0,1.32.21,3.68.6,8.09l.16,1.87c.36,4.13.79,9.1.83,10.89l0,.68.12.68c.42,2.31.13,11.53,0,16l0,1.84c0,1.45-.07,2.63-.07,3.39a24.39,24.39,0,0,0,.74,7.08l.08.45c.15,1.75.6,4.5,1.59,10,.59,3.3,1.54,8.56,1.55,9.89,0,6.51-12.66,14.82-16.77,15.79l-.56.09-.41.13c-.09,0-.61,0-1.36,0h-.71c-1.95,0-4.51-.07-7.79-.19,0,0-2.84-.1-3.34-.1s-2.16,0-11.37,1.21c-4.63.57-9.94,1.23-12.12,1.32l-.72,0-.7.14c-.56.11-3.41.47-16.28.47-1.85,0-7.1.27-12.64.56l-1.45.07C536,453.47,528.64,453.87,526.75,453.87Zm-139.42,0c-48.22,0-51.78-4.19-60.66-24-.78-1.88-1.42-4-2-6a47.3,47.3,0,0,0-4.58-11.16l-4.61-7.41c-5.17-9.67-9.18-14.54-24.75-20.08-9.42-3-43.63-4.13-49.92-4.13H215.42c-5.9,0-10.13.68-25.35,3.28-18.31,3.21-26.65,4.67-34.82,11.95-5.57,5.23-18.83,26.53-20.55,42.62l0,.49v.5c0,3.63,0,3.63-6.12,8.59-5.55,4.45-5.88,4.71-24.79,4.71-2.16,0-7.46-.1-13.48-.22l-5.82-.11c-7.84-.16-15.63-.32-18.73-.32-1.58,0-5,.21-11,.6-6.56.42-10.75.65-12.44.67-5.77-.41-20.42-2-23.41-3l-.24-.09c-4.47-2.53-9.15-8.93-9.15-14.48a33.43,33.43,0,0,1,2.73-13.34,53.64,53.64,0,0,0,4.11-9.81,39.79,39.79,0,0,0,2-9.1c.2-1.54.34-2.68.57-3.76l.11-.58c.4-2.69.84-5.12,1.29-7.52l1-5.44c.34-1.67,2-6.94,3.4-11.18,2.2-6.88,3.31-10.48,3.7-12.38a118.44,118.44,0,0,0,2.59-17c.4-3.95.77-7.52,1.35-10.88,1.92-7.61,8.73-32.59,11-39.18.83-2.66,1.81-5.36,2.79-8,1.09-3,2-5.6,2.8-8.09,1.32-5.25,2.17-10.35,2.84-14.45.77-4.63,1.57-9.41,2.74-13.77l.13-.55c1.09-5.07,10.8-41.1,13.64-46.16l.39-.7.42-1c.24-.54.83-1.55,1.41-2.57a31.66,31.66,0,0,0,3.82-8.91,33.87,33.87,0,0,0,.9-4.69,25.55,25.55,0,0,1,.65-3.58l.16-.55.1-.58c.81-4.55,10.16-45.71,12.26-50.78l.24-.57,1-3.72c.49-1.79.86-3.15,1.25-4.36l.15-.47L91,122a49.09,49.09,0,0,1,2.8-9.55l.16-.4.13-.4a57.32,57.32,0,0,1,2.61-6.29l.37-.8a66.92,66.92,0,0,0,3-7.27c2.58-5.88,3.44-11.11,4.29-17.28,8.11-45.2,18.88-65.53,61.08-65.53,3,0,10.91,0,19.45.64,6.13.38,12.82.56,20.59.56,15.2,0,32.81-.71,51.46-1.45l9.68-.4.37,0a89.67,89.67,0,0,1,10.9-.65c16.28,0,32.86,4.07,44.37,10.91,12.1,7.46,16.38,13.47,21.68,30.53l.19.56c1.56,4.07,3,8.61,4.52,13.42,1.37,4.35,2.63,8.36,4,12.37,1.25,3.68,2.85,7.24,4.41,10.68s3.09,6.86,4.19,10l6.35,24.26c.18.92.35,2.09.51,3.24a35.51,35.51,0,0,0,1.84,8.24,57.35,57.35,0,0,0,4.1,10.05l.91,2.36c2.39,6.55,7.36,20.2,10,31.53l.84,4.39c1.6,8.27,2,10.46,4.86,18.44,3.25,7.87,9.13,27,10.05,31,.27,2.16.43,4,.58,5.9a72.26,72.26,0,0,0,1.93,13.22l.17.62.26.6c.6,1.38,1.55,3.24,2.52,5.11s1.85,3.56,2.54,5.15c.66,2.54,1.91,6.51,3.65,11.93l.34,1.05c1.32,4.13,2.81,8.82,3.14,10.38a81.12,81.12,0,0,1,1.49,9.45,82.41,82.41,0,0,0,1.71,10.51l.12.48.17.47c.7,1.89,1.73,4.11,2.77,6.3a63.12,63.12,0,0,1,2.64,6c4.6,13.74,7.93,25.43,8.43,29.59l.17,1.41c.68,6,.91,8.08,3.53,13,3.71,7.79,9.17,24.81,11.45,34.6l.2.7c.6,1.87,1.11,3.88,1.61,5.84.72,2.83,1.36,5.32,2.29,8a42.5,42.5,0,0,0,2.92,6.16A23.64,23.64,0,0,1,458,427l.08.41.13.41c.56,2.2,1.95,14.63,2.05,16.95,0,6.61-14.5,7.19-29.35,7.19-3.28,0-11.84.44-20.9.92C400.28,453.4,390.82,453.87,387.33,453.87ZM188.72,208.75a99.44,99.44,0,0,0-3.29,14.12,81.62,81.62,0,0,1-3.68,12.42l-.17.48c-2.43,7.21-4.94,14.66-4.94,23,0,16.14,9.48,35.39,54.63,35.39a290.41,290.41,0,0,0,37.16-3.27c7.22-1.17,20.64-3.34,20.64-20.61a31.71,31.71,0,0,0-.76-8.21c-2.46-18.57-3.35-25-9.87-41.41-.6-1.62-1.31-3.35-2-5.1l-.3-.72a83.35,83.35,0,0,1-4.6-13.27l-.15-.64-.23-.63a73.48,73.48,0,0,1-2.81-11.66c-.53-2.81-1-5.27-1.57-7.56l-.13-.55-.2-.53c-.71-1.86-1.73-4.06-2.78-6.2a64.09,64.09,0,0,1-2.57-5.95l-.16-.46-.21-.44c-.95-2-3-7.32-7.28-21.23-4.08-12.06-11.78-18.06-23-18.06-8.9,0-14.92,6.08-17.09,8.69-2.63,2.93-7.19,10.34-17.28,39.63L195,179.21l-2.36,15-.87,2.95A90.06,90.06,0,0,0,188.72,208.75Z"/></g></g></svg>