<svg xmlns="http://www.w3.org/2000/svg" viewBox="0 0 110.78 95.1"><defs><style>.cls-1{fill:#58595b;}</style></defs><g id="Layer_2" data-name="Layer 2"><g id="Layer_1_1:1_" data-name="Layer 1 (1:1)"><path class="cls-1" d="M38.66,0V22.66a16.58,16.58,0,0,0,33.15,0V0Zm2.7,26.51,2.12-3.62,2.11,3.62Zm6.93,0-3.46-6,1.65-2.75,5,8.77Zm6,0L47.79,15.39l1.63-2.76,7.93,13.88Zm5.9,0L50.73,10.29l1.59-2.67L63.14,26.51Zm5.78,0L53.66,5.23l1.61-2.72,13.78,24Z"/><path class="cls-1" d="M5.66,69.4H8.23c4.2,0,4.73-2.48,4.73-8.93s-.53-8.93-4.73-8.93H5.66ZM9.25,47c7.2,0,9.44,3.83,9.44,13.5S16.45,74,9.25,74H0V47Zm12.39,0H36.22v4.57H27.33v5.77h8.18v4.7H27.33v7.19h8.89V74H21.64ZM51.79,63.34,49.1,52.19,46.26,63.34ZM52.92,68H45.09l-1.42,6H38l7.62-27h7.19L60.3,74H54.38Zm9.16-21h5.63V58.78l7-11.73h5.89l-7.8,12.41L80.61,74H74.08L67.71,60.92V74H62.08Zm21,0h5.47V74H83.1Zm14,9.31V74H92.21V47H99l6.53,16.62V47h4.94V74h-6.19Z"/><path class="cls-1" d="M8.59,89.64V80.4q0-.12.21-.21A2.68,2.68,0,0,1,9.32,80c.21,0,.41-.07.62-.09l.49,0a.59.59,0,0,1,.44.2.62.62,0,0,1,.17.41v9.24a8,8,0,0,1-.34,2.53,3.84,3.84,0,0,1-1,1.64,3.7,3.7,0,0,1-1.71.9,9.56,9.56,0,0,1-2.42.27H5.4A9.18,9.18,0,0,1,3,94.83a3.68,3.68,0,0,1-1.69-.9,3.84,3.84,0,0,1-1-1.64A8,8,0,0,1,0,89.76V80.4c0-.08.07-.15.22-.21A2.56,2.56,0,0,1,.73,80a5.58,5.58,0,0,1,.61-.09l.5,0a.58.58,0,0,1,.43.2.59.59,0,0,1,.18.41v9.12a7.25,7.25,0,0,0,.14,1.51,2.2,2.2,0,0,0,.47,1,1.87,1.87,0,0,0,.91.57,4.84,4.84,0,0,0,1.43.18h.16A5,5,0,0,0,7,92.73,2,2,0,0,0,8,92.16a2.23,2.23,0,0,0,.49-1,6.58,6.58,0,0,0,.15-1.51"/><path class="cls-1" d="M22.74,90.56V80.3c0-.08.07-.15.22-.19a3.22,3.22,0,0,1,.53-.12l.63-.06.5,0c.35,0,.53.21.53.62v14A.49.49,0,0,1,25,95a.73.73,0,0,1-.42.14H24.1A4.4,4.4,0,0,1,23,94.91a.54.54,0,0,1-.3-.2L16.09,84.49V94.55a.5.5,0,0,1-.18.4.66.66,0,0,1-.43.15l-.5,0a5.54,5.54,0,0,1-.6-.06,2.14,2.14,0,0,1-.5-.13c-.15-.07-.22-.14-.22-.22V80.34c0-.08.07-.15.22-.21a1.73,1.73,0,0,1,.5-.14l.59-.06.49,0a.6.6,0,0,1,.38.13,1.18,1.18,0,0,1,.25.3Z"/><path class="cls-1" d="M30.23,94.55A.51.51,0,0,1,30,95a.68.68,0,0,1-.45.15l-.49,0q-.3,0-.6-.06a2.1,2.1,0,0,1-.51-.13c-.15-.07-.22-.14-.22-.22V80.34c0-.08.07-.15.22-.21A1.71,1.71,0,0,1,28.5,80l.6-.06.49,0a.64.64,0,0,1,.45.17.49.49,0,0,1,.19.39Z"/><path class="cls-1" d="M38.14,90.93l3.09-10.59a1.27,1.27,0,0,1,.66-.36,5.47,5.47,0,0,1,.87-.07l.42,0a1.82,1.82,0,0,1,.37.09.42.42,0,0,1,.21.59L39,94.77a.39.39,0,0,1-.22.25.85.85,0,0,1-.35.08A7.39,7.39,0,0,1,37.33,95c-.31,0-.49-.13-.56-.24L32,80.61a.4.4,0,0,1,0-.34.46.46,0,0,1,.18-.21.65.65,0,0,1,.28-.12l.25,0,.62,0L34,80a1.69,1.69,0,0,1,.45.16.5.5,0,0,1,.24.26l3.15,10.51a2.29,2.29,0,0,1,.11.52c0,.19.05.35.08.5,0-.15,0-.31.05-.5a2.29,2.29,0,0,1,.11-.52"/><path class="cls-1" d="M45.63,94.45V80.67a.45.45,0,0,1,.19-.4.72.72,0,0,1,.44-.13h8.2a.48.48,0,0,1,.38.18.63.63,0,0,1,.15.41,3.8,3.8,0,0,1,0,.44,4.52,4.52,0,0,1-.06.53,2.13,2.13,0,0,1-.12.44q-.07.18-.21.18h-6.5v4h5.61a.47.47,0,0,1,.35.17.57.57,0,0,1,.16.4c0,.11,0,.26,0,.44s0,.37-.06.54a1.61,1.61,0,0,1-.13.45c-.05.13-.12.19-.2.19H48.08v4.19h6.38a.5.5,0,0,1,.38.17.64.64,0,0,1,.15.42,3.64,3.64,0,0,1,0,.43,4.78,4.78,0,0,1-.06.53,2.07,2.07,0,0,1-.12.45c0,.12-.12.19-.21.19h-8a1.53,1.53,0,0,1-.6-.14c-.21-.09-.32-.18-.32-.27"/><path class="cls-1" d="M57.62,94.67v-14a.46.46,0,0,1,.19-.38.67.67,0,0,1,.44-.15h4.51a11.83,11.83,0,0,1,2.4.2,3.78,3.78,0,0,1,1.62.72,2.8,2.8,0,0,1,.92,1.36A6.81,6.81,0,0,1,68,84.57V85a7.6,7.6,0,0,1-.16,1.68,3.59,3.59,0,0,1-.48,1.23,2.31,2.31,0,0,1-.86.81,4.4,4.4,0,0,1-1.3.47L68,94.12a1.35,1.35,0,0,1,.22.59.26.26,0,0,1-.1.21.94.94,0,0,1-.22.12,1.09,1.09,0,0,1-.26,0h-.19l-.47,0a5.54,5.54,0,0,1-.57-.07,2.38,2.38,0,0,1-.53-.15.71.71,0,0,1-.34-.29l-3-5.13H60.05v5.13a.48.48,0,0,1-.18.39.71.71,0,0,1-.43.14l-.49,0q-.3,0-.6-.06a2.1,2.1,0,0,1-.51-.13c-.15-.07-.22-.14-.22-.22M62.9,82.32H60.05v4.93H62.9a8,8,0,0,0,1.34-.09,1.57,1.57,0,0,0,.77-.34,1.17,1.17,0,0,0,.37-.67A5.72,5.72,0,0,0,65.47,85v-.45a5.79,5.79,0,0,0-.09-1.13,1.22,1.22,0,0,0-.37-.69,1.57,1.57,0,0,0-.77-.33,7.8,7.8,0,0,0-1.34-.1"/><path class="cls-1" d="M70.73,92.59l.5.12c.22.05.48.11.77.16s.62.1,1,.15a9,9,0,0,0,1,.06,5.52,5.52,0,0,0,1.09-.1,3.17,3.17,0,0,0,.93-.3,1.84,1.84,0,0,0,.66-.57,1.58,1.58,0,0,0,.24-.89A1.76,1.76,0,0,0,76.46,90a6,6,0,0,0-1.2-1c-.49-.3-1-.6-1.58-.91A9.45,9.45,0,0,1,72.11,87a5.16,5.16,0,0,1-1.21-1.42,4,4,0,0,1-.48-2,3.68,3.68,0,0,1,.36-1.7,3.09,3.09,0,0,1,1-1.13,4.31,4.31,0,0,1,1.51-.64,8.42,8.42,0,0,1,1.94-.21l.69,0,1,.07c.34,0,.68.08,1,.14a3.09,3.09,0,0,1,.81.22.61.61,0,0,1,.35.27,1,1,0,0,1,0,.47,2.28,2.28,0,0,1-.23.89.45.45,0,0,1-.51.29c-.34-.07-.73-.13-1.16-.2A9.44,9.44,0,0,0,75.7,82a4.89,4.89,0,0,0-2.07.37,1.25,1.25,0,0,0-.8,1.22,1.59,1.59,0,0,0,.48,1.16,6.83,6.83,0,0,0,1.21.92c.48.29,1,.59,1.57.9a8.49,8.49,0,0,1,1.58,1.08,5.32,5.32,0,0,1,1.2,1.49,4.34,4.34,0,0,1,.48,2.12,3.82,3.82,0,0,1-.43,1.92,3.31,3.31,0,0,1-1.17,1.18,4.79,4.79,0,0,1-1.68.6,11.47,11.47,0,0,1-2,.16l-1,0c-.34,0-.67,0-1-.09s-.64-.09-.93-.15a4.88,4.88,0,0,1-.75-.18c-.2-.07-.33-.14-.37-.23a1.06,1.06,0,0,1,0-.46,3.85,3.85,0,0,1,.23-1c.11-.27.26-.39.45-.35"/><path class="cls-1" d="M84.44,94.55a.48.48,0,0,1-.19.4.68.68,0,0,1-.45.15l-.49,0q-.3,0-.6-.06a2.1,2.1,0,0,1-.51-.13c-.14-.07-.22-.14-.22-.22V80.34c0-.08.08-.15.22-.21a1.71,1.71,0,0,1,.51-.14l.6-.06.49,0a.64.64,0,0,1,.45.17.47.47,0,0,1,.19.39Z"/><path class="cls-1" d="M93.23,82.35v12.2a.49.49,0,0,1-.2.4.68.68,0,0,1-.43.15l-.51,0a5.54,5.54,0,0,1-.6-.06,2.14,2.14,0,0,1-.5-.13c-.14-.07-.21-.14-.21-.22V82.35H87a.46.46,0,0,1-.37-.18.6.6,0,0,1-.16-.42c0-.11,0-.25,0-.43l.06-.53a1.61,1.61,0,0,1,.13-.45c0-.12.12-.18.2-.18H97a.52.52,0,0,1,.38.17.64.64,0,0,1,.15.42c0,.11,0,.26,0,.44a4.52,4.52,0,0,1-.06.53,2.13,2.13,0,0,1-.12.44c-.06.12-.13.19-.21.19Z"/><path class="cls-1" d="M106.23,89.46v5.09a.48.48,0,0,1-.19.4.67.67,0,0,1-.44.15l-.48,0q-.3,0-.6-.06a2.23,2.23,0,0,1-.51-.13c-.14-.07-.21-.14-.21-.22V89.46l-4.46-8.69c-.15-.3-.17-.52-.06-.65a.77.77,0,0,1,.63-.21h.59l.55,0a2.35,2.35,0,0,1,.44.11.39.39,0,0,1,.24.18L105,86.94l3.27-6.66a.52.52,0,0,1,.25-.2A3.13,3.13,0,0,1,109,80l.55,0h.58a.79.79,0,0,1,.63.2c.1.13.08.35-.07.66Z"/></g></g></svg>