<svg xmlns="http://www.w3.org/2000/svg" viewBox="0 0 119.01 39.14"><defs><style>.cls-1{fill:#58595b;}</style></defs><g id="Layer_2" data-name="Layer 2"><g id="Layer_1_1:1_" data-name="Layer 1 (1:1)"><path class="cls-1" d="M25.23,35.55a3.36,3.36,0,0,1-3.41-3.64,3.42,3.42,0,1,1,6.82,0,3.36,3.36,0,0,1-3.41,3.64m0-10.87c-4.2,0-7.51,2.81-7.51,7.23s3.27,7.23,7.51,7.23,7.51-2.9,7.51-7.23-3.31-7.23-7.51-7.23"/><polygon class="cls-1" points="96.75 0.32 96.75 5.57 90.77 5.57 90.77 0.32 86.73 0.32 86.73 14.32 90.77 14.32 90.77 9.07 96.75 9.07 96.75 14.32 100.78 14.32 100.78 0.32 96.75 0.32"/><polygon class="cls-1" points="115.15 0.33 115.15 7.8 109.44 0.33 104.92 0.33 104.92 14.32 108.88 14.32 108.88 5.73 115.62 14.32 119.01 14.32 119.01 0.33 115.15 0.33"/><path class="cls-1" d="M60.32.32V8.9c0,1.08-.5,1.95-1.66,1.95h-.73c-1.22,0-1.67-.91-1.67-1.95V7.32H52.45v2c0,3,1.7,5.12,5.48,5.12h.73c3.75,0,5.72-2.1,5.72-5.12v-9Z"/><rect class="cls-1" x="64.88" y="17.67" width="21.38" height="3.52"/><polygon class="cls-1" points="10.01 24.96 10.01 30.2 4.04 30.2 4.04 24.96 0 24.96 0 38.95 4.04 38.95 4.04 33.71 10.01 33.71 10.01 38.95 14.05 38.95 14.05 24.96 10.01 24.96"/><polygon class="cls-1" points="36.39 24.9 36.39 38.89 48.32 38.89 48.32 35.38 40.43 35.38 40.43 24.9 36.39 24.9"/><polygon class="cls-1" points="52.45 24.9 52.45 38.89 64.38 38.89 64.38 35.38 56.49 35.38 56.49 24.9 52.45 24.9"/><polygon class="cls-1" points="73.4 24.9 67.43 38.89 71.53 38.89 75.43 29.43 79.33 38.89 83.69 38.89 77.75 24.9 73.4 24.9"/><polygon class="cls-1" points="96.88 24.9 96.88 32.37 91.17 24.9 86.65 24.9 86.65 38.89 90.61 38.89 90.61 30.3 97.35 38.89 100.74 38.89 100.74 24.9 96.88 24.9"/><path class="cls-1" d="M110.75,35.46H109V28.31h1.79c2.21,0,3.81,1.18,3.81,3.58s-1.6,3.57-3.81,3.57m.08-10.56h-5.91v14h5.91c4.46,0,7.83-2.33,7.83-7s-3.37-7-7.83-7"/><path class="cls-1" d="M75.56,10.88a3.37,3.37,0,0,1-3.41-3.65,3.42,3.42,0,1,1,6.82,0,3.37,3.37,0,0,1-3.41,3.65M75.56,0c-4.2,0-7.51,2.82-7.51,7.23s3.27,7.24,7.51,7.24,7.51-2.9,7.51-7.24S79.76,0,75.56,0"/></g></g></svg>